<svg viewBox="0 0 1000 1000" xmlns="http://www.w3.org/2000/svg"><g fill="#202020"><path d="m818.84 610.92c-.68 4.6 2 2.8 5.74-9.26l-.23-9.55z"/><path d="m851.69 532.37c3.09-14.62 5.65-31.78-.2-23.56-1.49 14.95-3.84 17.93-5.19 34.14-3.58 12.13-8 20.59-8.44 18.19-.58 4.51-6.93 18.36-7.14 25.47 7.71-14.74 14.43-34.48 19.17-55.81 2.11-4.21 1.56.36 1.8 1.57z"/><path d="m98.41 504.53 3.28-7.23c-1 1.93-2.11 4.41-3.28 7.23z"/><path d="m602.68 707.36c-5.83.23-8.25.63-8.53.94 5.4-.37 9.85-.69 8.53-.94z"/><path d="m733.37 707.38h-7.71a37.84 37.84 0 0 0 7.71 0z"/><path d="m98.41 504.53c-2.84 6.19-5.77 12.33-8.65 18.49.44 1.73 4.72-9.35 8.65-18.49z"/><path d="m894.28 367.44c-1 4.15-1.73 7.65-2.26 10.89.85-3.41 1.68-6.71 2.57-10.1a3.61 3.61 0 0 1 -.31-.79z"/><path d="m308 285.93 6.2-.46a51.61 51.61 0 0 0 5.06-1.73z"/><path d="m567.11 274c-5.87-.14-7.92 2.64-10.16 3.89 3.31-1.17 7.65-1.68 12.8-1.88.1-.56-.67-1.2-2.64-2.01z"/><path d="m921.14 314.8-1.6 7.12c.4-1.86 1.16-4.92 1.6-7.12z"/><path d="m145.71 360.41a5.69 5.69 0 0 0 -1.71 2c.33.09 1-.71 1.71-2z"/><path d="m148.3 409.41c-.1-.27-.33-.05-.47-.18-.32 1.49-.32 1.99.47.18z"/><path d="m30.53 685.09 1.16-4c-.36-.58-.72-1.18-1.21-1.34z"/><path d="m872.43 525c-.17.43-.23.58-.4 1-1.78 6-.65 2.61.4-1z"/><path d="m703.62 702.27c-25-1 40.2-5.61 2.67-6.18 3.54.91-33.71 6.38-2.67 6.18z"/><path d="m896.51 361.11c1-3.35 1.93-6.76 2.91-10.18-1.42 4.61-2.32 7.74-2.91 10.18z"/><path d="m706.29 696.09h-3.88z"/><path d="m689.71 277.28a26.61 26.61 0 0 0 5.5 1.6c-.21-.31-1.41-.72-5.5-1.6z"/><path d="m916.56 392.35 2.22-4.51 2.29-4.47c-1 1.75-1.8 3.34-2.55 4.82s-1.37 2.87-1.96 4.16z"/><path d="m476.94 264.7c-5.52-.52-7.38-1-15-1.06.69.18 1.38.32 2.28.47a59.51 59.51 0 0 1 12.72.59z"/><path d="m254 268.16c1.2.07 2.78 0 4.16.06l7-1z"/><path d="m759.81 301.23a54.37 54.37 0 0 1 -10.26-2.44c3.45 1.97-29.14 2.94 10.26 2.44z"/><path d="m895.83 367.77c-.32-1.44-.13-3.35.68-6.66-.66 2.46-1.3 4.82-1.92 7.12.23.77.57.98 1.24-.46z"/><path d="m466.65 286.34c-11.65-.85-23.29-1.47-34.93-2.13 9.76.72 22.44 1.36 34.93 2.13z"/><path d="m131.9 485.37-2.47 7.71a50.16 50.16 0 0 0 2.47-7.71z"/><path d="m328.29 284.44c-3.12-.36-6.33-.61-9.62-.77-1.64-.09-3.3-.16-5-.2s-3.36 0-5.06 0a28.46 28.46 0 0 0 -4 1l5.91-.09 2.95-.05h3z"/><path d="m749.48 298.76h.07s0 .01-.07 0z"/><path d="m517.43 307.29c33.58-.19 15.74-3.74 22.85-5.92 40.07-1.37 18.57 2.57 32.22 4.35 25-1.18 44.18-4.72 62.84-4.72 1.4.59 5 .79.78 1.58 26.43-3.15 78.53-.77 109.33-4.7a15.86 15.86 0 0 1 4 .88c-5-1.81-5.79-3.68-4.78-5 15-.18 27.92-2.56 33.6-.19-9.23 0-10 1-14.3 1.77l15.76-1.17c14.23 3.36-21.52 1.37-21.5 3.94 30.75-1.37 66.57-4.53 90.14-3.74 5 3.36-55.1 1.58-23.62 4.35l-36.48-1c27.91 5.13-22.16-.2 3.49 5.32 48 .61 53.66-2.15 101.53-1.55 10.77-2-3.58-2.76 7.18-4.73 3.93-.23 7.59-.4 11-.53l4-.15 2.36-.07a57.13 57.13 0 0 1 7.37.26 36.4 36.4 0 0 1 -4.23 8.28c-.32.43-.63.8-.92 1.13l-.11.12a.61.61 0 0 0 -.13.21l-.36.74-.72 1.46c-.94 1.94-1.86 3.82-2.76 5.78-3.6 7.84-6.92 17-10.51 36-1.32 13.01 1.44 19.01-10.46 52.64l-.37-12.73c-13.07 44.59-1.94 27-17.73 73.12.91-8.73 8.76-35.47 6.4-28.84-11.54 29.49-4 22.05-10.63 45.35l-4.65 3.9c-13 47.73-25.55 100.81-39.93 153.67-.15-3.19 1.4-12.51-3.11-.47q-1.63 6.27-3.3 12.64a106.9 106.9 0 0 1 -3.47 11.49 19.89 19.89 0 0 1 -4.43 7.31 10.33 10.33 0 0 1 -2.81 1.93 21.05 21.05 0 0 1 -4.23 1.43 95.94 95.94 0 0 1 -12.12 1.66l-13.62 1.3-27.26 2.47c-9.08.76-18.16 1.36-27.18 2s-18 1.27-26.83 1.76l-26.25 1.38c-8.62.43-17.1.9-25.4 1.16l-25.08 4.62c-5.89.37-11-.58-4.67-1.58-12.95.34-13.26.73-11.87 1.43s4.47 1.53-1.71 2.45c-14.71 1-19.53-.59-10.26-2l-18.73 2c-6.75.69-14 1.43-21.49 2s-15.38 1.24-23.39 1.83-16.2 1.19-24.41 1.57-16.44.82-24.54 1.14l-12.05.44c-4 .13-7.89.16-11.74.22-15.42.17-29.74.14-41.8-.5 3.13-.3 6.26-.65 9.38-1a221.81 221.81 0 0 0 -39.55 2.65c-5.12.69-10.16 1.4-16.09 1.65a170.8 170.8 0 0 1 -21.47-.52l6.68-.5c-10.18-.19-20.49-.28-30.87-.4l-31.24-.49-15.63-.22-15.56-.36-30.71-.76c-40.42-1.42-78.42-3.52-109.28-7.61-5.06 1.45-20.12.58-36.19-.72l-12.11-1-9.92-.79a39.9 39.9 0 0 0 -8 .19c0-1.15-.43-1.87-1.43-1.86.78-1.57 1.46-2.93 2.08-4.12l.87-1.67.41-.74.19-.36v-.08l.08-.19.17-.36 4.59-10c2.7-5.75 4.73-10.07 7-14.93 4.51-9.73 9.72-21.74 22-52.21 6.26-16.38 5.49-25.8 12.38-46.38l3.08.56 7.11-28.73 8.86-13.43 6.26-19.35c-3 7.54-7.23 15.68-7.64 14.21 9.64-30.28 28.7-71.91 30.46-72.1l23.45-71.41c.59 2-3.35 14-6 23.56 10.87-38.73 5.56-5.72 15.52-41.21-2.35 4.39-.8-3.13-1.1-4.12 1-2.07 2.11-4.5 3.3-7.21l1.83-4.27c.61-1.45 1.19-2.79 1.76-3.94a15.86 15.86 0 0 1 1.6-2.65 4 4 0 0 1 1-.88 3.93 3.93 0 0 1 .62-.3l.33-.1c.2-.06.42-.13.68-.19a40 40 0 0 1 4.37-.78c16.31-2.15 34.3-4.88 49.48-7.34l-5.57 2.91c55.17-7 116-16.41 178-22.07a95.34 95.34 0 0 1 -11.87-.05c-2.41-.26-3.35-.73-3-1.31.66-1.15 6.39-2.79 15.48-3.74l7.57 2.6c11.57-3.05-19.12.46 4.79-4.14 11.61-.87 15.59-.18 15 .87s-5.72 2.53-12.32 3.68l7-.91 7-.82 14.05-1.64c1.72.84-4.85 1.86-6.47 3.23a71.38 71.38 0 0 1 12.69-1.37c5.37-.28 11.63-.23 18-.34s13-.26 19-.58a82.48 82.48 0 0 0 15.54-2l1.63.89 11.23-.52 10.53-.34 19.24-.7c12.12-.23 23-.58 33.56-.74l15.64-.1 7.83-.05h4l4 .06 16.53.3 8.77.19c3 .08 6.05.26 9.19.4.56-1.38 5.76-1.67 12.71-1.8l11.4-.16c4 0 8.08-.14 11.88-.45 18.52 1.77 38 4.26 58.58 6.79s42.11 5 64.76 6.61c8 .29 12.57.2 15.18.07s3.24-.41 3.33-.72c.17-.62-1.84-1.42 5.36-1.78.55.68 3.79 1.3 8 1.89s9.33 1.16 13.69 1.52c8.69.78 14.17 1.36 2.32 1.89 6.85.17 13.08.37 18.89.35s11.17.12 16.31-.05 10-.17 14.8-.36l14.39-.76c2.42-.11 4.88-.36 7.38-.57l1.88-.17.81-.07h.29l1.21-.17c1.64-.2 3.47-.54 5.65-.91l1.7-.29.45-.07h.23.11v.08c-.08.23-.17.45-.26.68-.37 1-.76 2-1.16 3.09s-1 2.44-1.45 3.75l-.42 1.06-.21.56-.6 1.33q-1.23 2.79-2.54 5.73c1-1.56 2.07-3.19 3-4.69l.69-1.09c.11-.18.23-.35.33-.53l.15-.23.1-.11.69-.81c.86-1 1.49-1.51 1.41-.33-.17.4-.35.8-.52 1.21l-.28.61-.49 1c-.7 1.46-1.44 2.92-2.18 4.34-1.48 2.84-3 5.54-4.35 7.82-2.72 4.56-4.86 7.43-5 6.36l1.19-3.07c-29.95 70.84-83.74 156.42-105.47 213.89l1.25-3.2-25 58.36c-13.06 26.1 5.86-16.61-4.94 2.16-6.46 15.88-12.66 29.89-18.66 42.79-3 6.44-6 12.61-8.87 18.6l-2.18 4.45c-.71 1.44-1.37 2.77-2 4a24.09 24.09 0 0 1 -3.77 5.43 8.81 8.81 0 0 1 -1.67 1.33 10.11 10.11 0 0 1 -2 .91 27.56 27.56 0 0 1 -6.45 1.16c-1.32.11-2.74.19-4.26.27l-4.69.24-9.47.53c-12.69.76-25.7 1.76-39.72 3.3-44-5-154.48 9.68-213.55 8.34l3.5 1.58c-15.08 2.64-18.43.07-29.65.32 1.67 1.29 16.58.62 7.2 2.15-128.56 9.76-265.76 13.12-397.78 19.32-8.37.42-14.65 1-19.62 1.71-2.47.35-4.7.73-6.56 1.11a4 4 0 0 1 -.66.94c-1.22 1.35-3.67 3-7.82 3.94a13.26 13.26 0 0 1 1.33-4.5c.45-1 1-2.22 1.65-3.41l.12-.22v-.06l.07-.16.15-.34c.19-.44.4-.89.6-1.34l1.26-2.81 2.8-6-1.61 8.63-.39 2.16-.1.55v.27a.74.74 0 0 0 0 .12 1.71 1.71 0 0 0 .13.23 2.18 2.18 0 0 0 .63.65 4 4 0 0 1 0-.49v-.1s0 0 0 0l.05-.14.37-1.08.75-2.17 3-8.67 6.19-17.36q6.3-17.42 12.83-34.8c8.72-23.17 17.72-46.37 26.72-69.48 18-46.23 36-92.19 51.61-137.33-1.34 5.58-.47 6.09-3.84 14.78 9.51-17.94 27-69.52 25.3-70.55 5.57-13.79 2.9-2.57 7.13-10.76 8.62-18.36 15.46-48.46 21.56-57.63 1-1.57-1.32 5.58-2.49 9.1.92-3.18 2.78-8.34 4.95-14.13l1.66-4.42c.55-1.46 1.07-2.79 1.58-4a20.64 20.64 0 0 1 2.68-4.86 7 7 0 0 1 .93-1 9.49 9.49 0 0 1 1.22-.84 27.42 27.42 0 0 1 3.12-1.47c1-.41 1.62-.74 1.67-1s-.51-.41-1.74-.44c1.62-.36 3.49-.66 5.51-1l6.39-.87q6.42-.89 12.65-1.87c2.08-.31 4.14-.69 6.2-1l6.15-.82 12.05-1.58c3.95-.6 7.89-1 11.75-1.39s7.69-.8 11.44-1.15 7.47-.54 11.12-.71 7.25-.27 10.78-.3c4.54-1.15 10.62-1.65 17.26-2 3.32-.18 6.77-.32 10.25-.43s7-.06 10.39-.09c13.61-.19 25.65-.05 28.59-2.27-.64 1.14 2.94 1.91 9 2.44s14.63 1 24 1.19c18.7.58 40.57.76 51.89.35-7.6.94 19.49 2.51 10.56 3.91 6.41.31 12.7.69 18.45.94s11 .39 15.27.47c8.57.12 13.4-.32 11.24-1.64 23.48 4.45 47.37 5.35 68.71 6.26s40.08 1.77 53.19 6.31c76.91 3.83 148.57 6.28 218.15 2.61-.58 1.14-5.69 1.88-13 2.41-3.64.25-7.83.53-12.27.63l-13.77.24-6.89.11h-6.61c-4.27 0-8.19.09-11.5.23-6.61.32-10.71.81-10 2 33.1-.25 59.21-2.16 85.15-4.47 13-1.08 25.91-2.55 39.68-4 6.88-.82 14-1.59 21.4-2.39l5.61-.72 4.23-.52c1.78-.21 3.56-.38 5.32-.55 3.5-.26 1.58.53-.71 1.4l-3.47 1.23c-.52.19-1 .37-1.36.53l-.5.23-.2.1-.57.15.59-.09h.17l.36-.08.72-.16 1.49-.32c1-.19 2-.41 3.09-.64l3.21-.66 1.63-.32.81-.16.41-.08h.21a.61.61 0 0 1 -.09.13c-1.13 1.58-2.38 3.2-3.54 4.9l-.9 1.28-.44.63-.6.89-2.49 3.74-.68 1-1.26 2-2.52 4c-1.66 2.69-3.38 5.33-4.93 8.06s-3.17 5.4-4.74 8.1-3 5.44-4.52 8.14a494.17 494.17 0 0 0 -29.91 65.8c-.32-.31 1.73-6.35 3.78-12-2.2 5.38-5.05 11.52-6.89 16.32s-2.91 8.16-1.71 7.93l3.75-10.52c2.5-4 3-3.17 2.31.32s-2.38 9.68-4.32 16.46c-3.92 13.53-8.48 29.46-8.1 30.7.65-10.18-4.77 3.2-9.67 15.24s-9.47 22.68-7.78 6.81c-2.19 7.28-4.4 16.56-2.54 15.37-4.1 10.47-6 13.56-3.73 2.3-6.29 19.62-7.68 26.13-9.09 32.14s-2.74 11.55-9.1 29c-.89-.47 1.32-7.62 1.5-11.64-2.25 9.17-4.57 18.34-7.85 28.84a328 328 0 0 1 -13.93 36.57c.16-2-1.94 1.09 1.62-7.51-5 12.45-9.62 23.93-14.16 35-1.17 2.76-2.32 5.49-3.48 8.21l-1.71 4.07-1.78 4q-1.78 4-3.56 8l-3.75 7.95c-1.26 2.64-2.52 5.37-3.83 7.86a50.57 50.57 0 0 1 -4.24 6.95 21.93 21.93 0 0 1 -5.24 5.17 19.29 19.29 0 0 1 -7 2.72 54.24 54.24 0 0 1 -8.89.89c-3.24.11-6.63.2-10 .27-6.82.15-13.91.22-21.33.19 17.38-4.8-20.22-.86-23.47-4.51l-31.86 2 12.86 1.46c-27.95.71-52.57 4.11-76.62 3.56l20.72-2.12-52.34 2.16 29.68.6c-28.23 2.7 3.16 4.63-34.07 4.63 7.55-.6-27.95.73-42.57-1.07h.09c-13.79 1.57-28 3.21-48.66 2.86-5.4-1 4.2-4.24.69-4.94-13.56 3.5-65.4 2.69-82.58 6.32 5.74-.9 6-2.87 4.1-3.23l-11.38 2.77c-12.95-.57-14.85-1-12.77-2.55-19.44 0-16.34 1.15-14.15 2.12 1.1.49 2 .92-.33 1.14s-7.74.22-19.28-.23c3.62-.22 1.88-.59 9.43-1-46.32-.71-89.55 1-131.92-3.18-3.06-1.17-2.27-1.64.41-1.75s7.26.06 11.78.27c9 .39 17.84.73 10.77-1.22-30.53-1.24-62.17-2.91-93.51-5.75-15.67-1.45-31.25-3.2-46.55-5.32s-30.32-4.69-44.85-7.65c3.59.85 7.2 1.63 10.8 2.42-4.52 1.89-15.31-.74-28.6-4.48l-.62-.18-.48-.14-1-.29-1.81-.58-3.68-1.2-3.57-1.13-1.75-.53-.88-.25-.44-.13-.22-.06s-.1 0-.07-.05l.07-.11c1.44-2.44 2.73-4.75 3.89-7 .58-1.14 1.12-2.29 1.64-3.46.26-.58.51-1.18.76-1.78l.18-.47.28-.66.54-1.31c-.18.42-.35.83-.51 1.22-.07.2-.15.4-.22.59l-.1.28v.18a9.54 9.54 0 0 0 -.28 1.37 3.87 3.87 0 0 0 .12 1.77c.3.75.82.81.76.3l1-1.85.25-.46.3-.56.9-1.71c1.18-2.3 2.36-4.6 3.56-6.91 2.37-4.64 4.74-9.35 7-14.2s4.68-9.77 7-14.86l7-15.71c9.43-21.59 19.32-45.85 30.47-74.74l-1.72 7.6c1.31-2.72 2.69-5.66 4.11-8.79s2.84-6.46 4.32-9.9c3-6.87 6-14.28 9-21.76l2.26-5.61 2.18-5.62 4.29-11c2.79-7.21 5.37-14.09 7.79-20.14 1.34-7.74 6.52-21.69 1.63-13.84l3.15-6.84c1-2.28 2-4.57 3-6.86 1.92-4.58 3.8-9.15 5.57-13.74 3.48-9.18 6.77-18.33 9.67-27.5 1.47-4.57 2.93-9.16 4.27-13.68s2.7-9 4.15-13.29c2.88-8.64 6.2-16.88 10.82-24.09a54.8 54.8 0 0 1 8-9.88c.37-.37.72-.77 1.1-1.13l1.2-1 2.4-2.09 2.57-1.88 1.29-.95 1.35-.85 2.73-1.69c.93-.53 1.9-1 2.84-1.51 1.87-1.06 3.9-1.84 5.86-2.74 1-.44 2-.78 3-1.17s2-.79 3.07-1.09c2.08-.64 4.14-1.33 6.27-1.84a146 146 0 0 1 26-4.1c8.78-.67 17.68-.78 26.6-.71-4.23.35-9.25 1.05-12.36 1.61s-4.29 1-1 .68q30-3.1 60.13-6c-4.94-2-8-.79-20.8-1.6a165.8 165.8 0 0 1 16.91-3.05c7-1 15-1.82 22.49-2.38-27 3.56.51 3.65 12.3 4.13-2-.57 1.94-1.62.9-2.27 31.77 1.93 5-5.09 48.17-5.06l-2.2 1.34c16.06-1.55 30.82-4 48.23-4.48 7.33 2.32-17.1 2.09-18.09 4.34 6.1-.34 12.14-1 18.12-1.71l8.92-1.15 8.84-1.08c5.86-.69 11.65-1.3 17.36-1.62a121.82 121.82 0 0 1 16.9.25c-5.17.53-11.49.89-17.8 1.31s-12.62.89-17.79 1.47c24.17 2.12 26.92 1.34 44.79 1.27h-1.76c6.89 0 13.77.18 20.66.26l10.32.14 10.32.26-10.52-.75a143.4 143.4 0 0 1 23.2-3.41c4-.31 8-.46 12-.52s8.21-.07 12.43-.06c8.44 0 17.2.26 26.44.2s18.94-.24 29.27-1.05c-40.12 3-6.68 2.28-9.85 5.21 5.23.59 11.82 1.25 16.52 1.85s7.53 1.25 5.25 1.56c9.72-.73 17.8.07 26.84 1 4.52.47 9.29.91 14.66 1.13s11.31.2 18.21-.15c1.14 1.06 20.74 1.74 16.17 3.84 25.33 1.25-5.84-2.17-3.61-3.22 19.59-.13 42.4 2.88 67.66 4.74a389.94 389.94 0 0 0 39.62.89c6.84-.22 13.78-.68 20.77-1.48a198.49 198.49 0 0 0 21.05-3.55c8.07-1.51 15-3.1 21.1-4.88 3.07-.82 5.91-1.79 8.61-2.64 1.36-.42 2.66-.92 3.93-1.37l3.67-1.34c7-2.94 14.32-6.39 23.57-11.18l.85-.44.22-.1c.05 0 0 .09 0 .13v.33c-.07.46-.15.92-.23 1.39-.16 1-.34 2-.51 3-.38 2.11-.82 4.44-1.34 7s-1.12 5.45-1.83 8.6-1.53 6.68-2.39 10.33c-2.78 7.1-2.8 3.87-2.14-1.13.17-1.19.36-2.49.55-3.77.16-1.1.33-2.19.48-3.15l.52-3.15-2.37 6.82-1.28 4-1.25 4c-1.62 5.28-3.14 10.37-4.55 15.44-2.81 10.15-5.34 20.2-8 31.43.46-4.72-1.53-.29-4.56 6.14-4.91 17.82 0 12.87-8.31 35.85a118.34 118.34 0 0 1 1.44-18.75c-5.28 21.14-9.72 42.26-15.49 64.09-3.37 5.21 1.51-13.78 2.76-21.7l-5.56 20.33c-2 7.19-4 14.58-5.82 21.47-3.66 13.76-6.45 25.5-6.37 29.63l5.82-15.21c-2.65 8.85-3.63 3.83-2.05-2.81 4.5-21.34 10.17-29.64 11.49-30.52l-4.15 15.53c2.59-3.52 5-9.15 7.36-16.1s4.56-15.23 6.74-24c4.36-17.61 8.58-37.31 13.22-52.8l.23 14.11c2-10.95 4-21.88 5.91-32.83 3-6.49 6.54-10.5 2.75 5 8.37-21.75 4.2-20.16 11.81-38.73.93-2 .86-1 .47 1l5.11-23.13c-.16 2.25.91 1.12 1.44 1.25.26.08.38.52.1 2-.15.75-.39 1.76-.76 3.11q-.28 1-.66 2.28c-.25.8-.52 1.7-.83 2.7.29-.89.58-1.77.86-2.64s.59-1.85.88-2.76l1.69-5.46c1.09-3.61 2.11-7.15 3.07-10.57s1.85-6.7 2.67-9.84c.41-1.55.8-3.08 1.19-4.58.19-.74.37-1.47.56-2.2l.13-.54c0-.08.07-.21 0-.25h-.13l-.44-.16c-6.84 3.09-13.34 6-19.07 8.45l-4.17 1.74c-1.35.56-2.66 1.13-3.92 1.57l-7.14 2.58-2.88.91-2.61.78c-1.71.52-3.37.87-5 1.22a41.77 41.77 0 0 1 -8.74 1l3.22-1-4.69 1.25-4.22.95c-2.63.61-4.92 1.08-6.9 1.49-4 .87-6.68 1.38-8.52 1.85-3.69.93-3.89 1.34-3.63 1.85s1 1-1 1.91-6.6 2.31-17.16 3.94c-9.71-1.86-19.24-4.08-28.65-6.56-1.83 1-3.67 2.05-5.52 3-5.81-.09-17.27-.69-15.11-1.85-21.65 1.27 3.64 1.5-9 3-13.93-1.95-33.18-3-49.74-4.26s-30.39-2.55-33.37-5.2c-10.21 1.56 26.61 3.81-3.36 3.18-4.07-2.89-12.75-3.23-23.55-3.35-5.41-.06-11.35.09-17.54-.07s-12.6-.57-19-1.33a36.52 36.52 0 0 1 8-1.09c3-.14 6-.14 7.91-.19 3.86-.1 3.54-.36-9.25-2.18a59.76 59.76 0 0 1 -14.74 1.3c-5.75 0-12.18-.57-18.8-1l-20-1.51c-6.52-.42-12.74-.59-18.15-.4-.26.9-3.33 1.44-8.35 1.75s-12 .52-20.1.6l-12.84.15-13.86.29c-4.71.12-9.49.21-14.22.42s-9.41.45-13.94.74c.56-.32-3.42-.48-10.25-.53s-16.49.14-27.29.31l-34 .9-30.51.89 1-.67c-3.15 2.05-13.43 3.41-26.06 4.65s-27.63 2.31-40.23 3.66c.83-2.26 5.31-3.48 18.94-5.46l-23.77 1.78c-5.52 1.57-12.88 2.79-28.25 4.41l5.76-3.21c-7.9.65-15.81 1.51-23.87 2.45s-16.24 1.89-24.86 3-17.56 2.5-26.93 4.56c-2.35.46-4.71 1.15-7.11 1.71l-3.6 1c-1.21.33-2.43.69-3.64 1.12l-3.72 1.26-3.68 1.42c-.62.24-1.25.47-1.87.73l-1.84.83c-1.23.57-2.5 1.08-3.73 1.72-.12.44.33.58 1.11.57a23.51 23.51 0 0 0 3.17-.26 33.82 33.82 0 0 1 7.2-.46c1.72.19 2.19.87-.15 2.62a26.09 26.09 0 0 1 -2.29 1.51c-.94.61-2.05 1.36-3.38 2.18a99.28 99.28 0 0 0 -10.07 7.2c-1-.06-2.22-.29-2.11-1.46a4.64 4.64 0 0 1 1.43-2.51c.5-.53 1.14-1.15 1.94-1.85.4-.35.84-.73 1.34-1.11s1.07-.73 1.67-1.12a29.11 29.11 0 0 0 -3.1 2.24l-2 1.56c-.34.28-.71.54-1.06.85l-1.05.95c-1.43 1.29-3 2.59-4.41 4.06-.73.71-1.47 1.4-2.21 2.08s-1.38 1.41-2.08 2.07a43.6 43.6 0 0 1 2.62-3.61c.94-1.15 1.83-2.38 2.84-3.48l3.13-3.29c1.08-1.06 2.23-2 3.37-3.07a42.24 42.24 0 0 0 -5.07 3.42 35.94 35.94 0 0 0 -3.05 2.64 17.67 17.67 0 0 0 -2.63 3.5c-.56.9-.89 1.82-1.8 3.16-.46.66-1 1.49-1.73 2.5l-2.76 3.79c-.37-.35-1 0-1.79.73a22.53 22.53 0 0 0 -2.45 2.84c-1.63 2.09-2.93 4.12-3.1 2.75a55.62 55.62 0 0 1 4.93-7.66c2.21-3 4.78-6 6.59-8.51a80.33 80.33 0 0 0 -8.8 10.77 119.31 119.31 0 0 0 -6.91 11.52c-2 3.71-3.66 7.18-5.07 10.08s-2.57 5.24-3.47 6.75c1.57-1.08 2.42.89-1 12.69-9.46 30.14-5.47 9.61-12.18 26.78-1 7.71-8.93 26.27-6.32 27.74-3 8.73-5 9.86-6.9 13-.53 2-1.32 4.58-2.28 7.6s-2.17 6.42-3.42 10-2.59 7.39-3.92 11.16-2.7 7.46-3.95 10.93c-2.45 6.95-4.59 12.86-5.45 16.06s-.47 3.67 2-.33l1.74-3.84c-.23.76-.57 1.62-.87 2.54l.05-.12-.05.12c-8.44 25.5-19.63 51.07-31.57 76.18s-24.65 49.79-36.08 73.81l-.85-.53-2.55 5.47c-.43.92-.87 1.85-1.3 2.78l-.78 1.55-.89 1.81-7.21 14.51c-1.21 2.39-2.41 4.79-3.62 7.19 2.66.57 5.39 1.1 8 1.64 5.35 1.08 10.61 2.16 15.75 3.12l6.69 1.24c2 .37 4 .74 5.95 1 3.91.66 7.71 1.27 11.36 1.83 7.3 1.06 14 1.93 19.67 2.35 9.28 1.63 21.69 5.4 17.52 5.93 6 .8 10.78 1.29 15 1.72l12 1.3c4.05.47 8.41 1.11 14 1.9 2.77.42 5.83.89 9.28 1.46l11.67 1.86c-12.29-.57-10.24.05-9.28.3s.82.17-15.86-2.12l19.79 3.17 8 1.24c2.54.37 5 .69 7.51 1s5 .59 7.64.84 5.39.43 8.38.61c6 .38 12.82.53 21.37.58-5.89.79 0 2.08 9.29 3.15s21.94 1.81 29.51 1.82l-11.1-1.45-11.06-1.62c17 .79 31.78 1.7 46.85 2.45l-8.29 3c32.5 3.29 61.92 1.78 89.22.21s52.63-3.16 77.37-.41c8.53-1.39-.27-1.56-9.3-1.8s-18.29-.55-10.66-2.07c29.79-.24 60.93 3.61 70.24 3.38 40.81.71 37.9-5.92 80.58-5.84-5.49-1-10.73-4.06 21.11-6.06 29.79-.39 36.74 4 18 5.43-7.14.3-10.6 0-10.3-.39-9.61.7-22.22 1.56-10.4 2.52l3.83-1.3c14.81.8 55.77-.46 46.2 1.75 22.47-1.75 9.57-2.21-7.11-2.36 38.23.66 59.66-1.61 99-1.54-6.26-.48-12.06-1.72-5.84-1.88 28.85-.06 35.18-.8 39.18-1.72a67.8 67.8 0 0 1 6.92-1.51c1.77-.3 4.1-.6 7.42-1.31a39.3 39.3 0 0 0 5.75-1.72 28.09 28.09 0 0 0 7-3.89 51.08 51.08 0 0 0 5.79-4.47 17.4 17.4 0 0 1 2.47-1.92c1-.57 1 .11 1.35.24s1-.32 2.92-3.21a69.26 69.26 0 0 0 3.54-6.23c1.37-2.73 3.07-6.21 5.23-10.71 6.08-10.56 7.3-11.41 6.67-8.4a64.28 64.28 0 0 1 -2.09 6.6c-1 2.64-2.14 5.45-3.05 7.72 7.53-16.7 15-31.93 21.74-45.42s12.49-25.24 16.5-34.8c-2.06 6-4.07 12.09-6.25 18.12 3.86-10.82 7.25-19.53 10.65-28.42l-6.12 9.31c2.21-5.14 4.15-9.93 5.66-13.36s2.51-5.51 2.94-5.24c2.54-11.33-6.72 6.86-.85-15.25 6.26-13.52 13.89-42.92 18.55-46.69-8.19 21.77-7.05 20.83-5.39 19.09s3.83-4.24-2.54 14.45c2.21-7.3 5.31-16 9.38-26.42.89-1.45.1 1.71-.74 4.63 8.69-20.55 9.53-25.63 10.13-31a70.35 70.35 0 0 1 1.67-10.29 195.83 195.83 0 0 1 7.1-22.4c-.32 6.08 6.79-8.81 9.12-15.88-3.29 8.59-4.71 10.42-4.8 8s1.26-9 3.65-17.12c3-6.7 5.15-11.93 6.88-16.18s2.88-7.62 3.92-10.55l2.78-8.19c1-2.69 2.1-5.49 3.68-9l-3.84 7.86-3.78 7.95c.35-3.07 2-8 4.59-14.44 1.31-3.23 2.81-6.87 4.6-10.82s3.65-8.33 5.81-13c1-.47-.86 3.76-2.39 7.4s-2.87 6.6-1.06 3.43a99.42 99.42 0 0 1 7.09-16.62c1.48-2.81 3.13-5.62 4.82-8.5.85-1.43 1.7-2.88 2.6-4.33s1.85-2.88 2.78-4.35c3.69-5.88 7.79-11.82 11.78-18.07 2.07-3.08 4.12-6.23 6.11-9.49l.37-.61.18-.31.29-.42 1.13-1.72 2.25-3.46c1.49-2.31 2.95-4.63 4.36-6.94l2.2-2.82c.69-.84 1.44-1.67 2.05-2.35 1.24-1.38 2.21-2.37 3-3.08a6.85 6.85 0 0 1 2.9-1.91c1.3-.43 2.14-.35 10-10.14 1.44-2.07 2.81-4 4.12-5.82l3.81-5.28c2.45-3.37 4.73-6.46 6.87-9.32h-.65l-.9.14-1.79.3-3.43.56-6.39 1c-4.08.6-7.84 1.12-11.46 1.6-7.26.94-13.89 1.73-21.49 2.65l-5.83.73c-2 .27-4 .42-6.08.67l-10.89 1.22c-5.32.71-11.55 1.37-19.23 2.57 5.43.65 8.61.78 7.2 1.37a46.57 46.57 0 0 1 -5.84 1.35l-6 1.16-3.9.74c-1.41.26-2.92.49-4.54.76l3.8-.39 3.8-.49 7.58-1 7.58-1 3.79-.49c1.26-.17 2.51-.39 3.77-.59l3.77-.6 1.89-.3 3-.44c4.06-.61 8.09-1.15 12.32-1.92 8.44-1.41 16.81-3 25.4-4.47l-16.85 3.7-8.08 1.69c-2.65.55-5.27 1.11-7.76 1.56l-7.42 1.4-5 1.08c-1.6.35-3.21.73-4.82 1.06l-4.84.93c2.3-.25 4.64-.45 7-.81l7-1.08 9.84-1.51 10.07-1.75c13.15-2.42 25.62-4.74 33.47-5.8l-17 3.83a60.81 60.81 0 0 0 -6.35 1.6c-1.5.58 2 .37 6.09.71-3.32.09-7.13.39-11.15.85s-8.31 1-12.66 1.65l-6.47.93-3.22.48-2.91.46c-3.17.51-6.35 1.14-9.58 1.65-6.46 1-13.05 2-19.86 2.86a187.17 187.17 0 0 1 -21.24 1.08l.49-6c-5.47.14-10.81.1-16 .3-2.61.08-5.21.19-7.79.31l-3.85.21-3.85.15c-10.25.42-20.38 1.21-31 1.65l-8 .41-4.09.2-4.14.12c-5.57.15-11.31.28-17.28.36-11.94 0-24.82-.19-39.11-1.22l9.18.89 4.59.44 4.59.38c-3.88 1.12-12.73.79-22.92.29-5.1-.22-10.54-.63-15.86-.93s-10.54-.5-15.19-.56c1.84-1.86-9.71-3.31-17.53-5 .43.78-10 0-21.3-.52s-23.34-.93-26.1.85l-25.37-4.67c-46.2-4.92-53.31 1-97.83-3.11 13.6-1.09-6.58-4.08 23.44-3.24-14.9-1.22-28.27-2.61-28.62-1.24-8.62-1.91-41.53-.33-55.17-2.84-3.18.26-5.31.87-8.73 1.29a90.13 90.13 0 0 1 -16.55.25c-1.82-.48.11-1 .11-1-.06.5-6.64.48-11.38.84s-7.65.88-.36 2.2c-22.89-4-55.19-4.39-86.69-3.24-3.93.08-7.86.3-11.75.5l-11.57.57c-1.91.1-3.8.15-5.68.28l-5.58.37-10.85.63c-7.08.29-13.78.86-20 1.07-3.11.13-6.1.2-9 .23s-5.54.13-8.09.09c-8.13 1.19-16.69 2.27-25.35 3.86l-13.09 2.23a71.58 71.58 0 0 0 -14.08 3.53 29.92 29.92 0 0 0 -7.29 4 26.81 26.81 0 0 0 -5.82 6.16 57.58 57.58 0 0 0 -6.16 12.87l-8.38 22.28c.13-2-.88-.45 1.33-5.58-16.42 37.36-3.76 25.42-22.4 68-11.53 20.95 7.27-23.6.82-10.26-8.38 3.66-19.37 52.55-34.17 80.3l2.37-7.19c-10.66 21.46-18.7 55.19-33.2 91.39 0 0 .15-2-.83-.56-6.51 26.01-23.69 73.49-36.36 108.79 1.84-11.8 4.89-16.38-.09-10.66-5.72 15.81 5.65-3.1-5.78 28.46-5.24 9.68-15.1 31.82-18.83 33.82l11.28-29.58c-4.59 6.92-8.26 16.49-11.6 26.24-.82 2.44-1.64 4.89-2.46 7.31l-3.68 10.51c-2.47 6.94-4.81 13.32-7.29 19.28a14.17 14.17 0 0 1 -.94-1.87c-1.36 3.61-2.65 7-3.61 9.61 8.53-.6 16.06-1.19 22.76-1.76l9.49-.84 4.34-.41 2.08-.2 1-.1.74-.09c7-.85 12.81-1.7 18.9-2.53 12.16-1.67 25.24-3.26 50-4.59l-5.45-.87c28.22-5.56 24 .78 52.18-3.79l8.82 3.44c18.72-2.07 65.52-7.71 99.14-10.44-18.9 4-58.19 7.88-82.47 11.06 18.62-1.08 63.22-4 72.79-6.56-7.47.83-16.86 2.35-24.3 2.18q34-6.66 89.66-9.87c-6.12 8 96.76-3.79 124 .55 65.42-6.71 130.18-6.5 206.57-11.47-27.46-4.34 22.29-1.49 17.24-7.32 17.77-1.44 24.57-1.74 26.18-1.44l54.15.45c6.54.5 2.21 1.1-3.37 1.72s-12.62 1.27-11.76 1.9c4.88-.23 8.79-.37 12-.45s5.53-.09 7.61-.09c4.15 0 6.38 0 8 .16.84 0 1.54.14 2.45.15a17.57 17.57 0 0 0 3.58-.25 27.76 27.76 0 0 0 6.91-2.06 33.91 33.91 0 0 0 10.95-7.83c-.9.64-1.46.81-1.56.58s.2-.84.76-1.78 1.32-2.16 2.29-3.77 1.86-3.31 2.8-5.22 1.87-3.93 2.77-5.91 1.82-4 2.87-6.16c2.09-4.34 4.5-9.12 7.1-14l-8.14 13.49-4.07 6.81a86.31 86.31 0 0 1 -5 7.71 91.21 91.21 0 0 0 4.74-9.81c1.18-2.72 2.3-5.22 3.37-7.55 2.15-4.66 4.1-8.6 5.93-12.07 3.65-6.94 6.79-12 9.94-17 6.3-10.11 12.62-20.27 23.1-45.74l-5.81 16.51c11.16-25.99 45.16-93.86 52.74-120.86 2.8-4.19 7.17-9.4 2.18 2 15-30.22 30.07-64.6 44.62-97.16 7.27-16.28 14.41-32.11 21.31-46.73 3.46-7.31 6.86-14.33 10.19-20.94q3.18-6.3 6.2-12.25c2.6-5.12 5.19-10.14 7.8-15.11-.58 2.35-1.23 4.85-2 7.48 2.27-4.95 4.2-9.49 6-13.78l5.16-12.52.66-1.57c.08-.1-.07 0-.14 0h-.24l-.49.06-1 .13-3.92.49c-2.61.32-5.24.61-7.91.87-5.38.53-10.87.9-17.25 1.12.85-.39 3.22-1 4.16-1.39.48-.19.59-.34-.05-.39a35.61 35.61 0 0 0 -4.66.25l-6.12.85-8.54.94-6.1.81c-2.12.31-4.4.46-6.75.69l-7.24.59c-2.45.17-4.92.39-7.36.42-4.88.14-9.61.16-13.72 0l14-1.84c-8.09-.18-15.68-.11-22.93-.31l-10.61-.1c-3.45-.08-6.83-.13-10.14-.17l-37.3-.34c-23.77-.21-46.37-.51-73.88-2.52.27-2.17-12.44-4.83-28.51-7.22-8-1.22-16.91-2.3-25.4-3.27-4.24-.49-8.41-.87-12.31-1.26s-7.55-.77-10.81-1l1-.57c-9.66-.56-19-1-28-1.42-9-.24-17.76-.33-26.29-.41h-6.36l-6.29.1-12.4.26-12.14.21-12.07.58-12 .6-6 .31-6 .41-24.13 1.68c-16.24 1.35-32.92 2.63-50.66 4.27-11.12-.6-26-.11-43.24.74-8.6.53-17.77 1.19-27.34 1.92s-19.51 1.73-29.67 2.67c-40.6 3.95-84.35 9.46-119.66 12.85 10.85-.62-1.31 3.6-13.73 5.75-16.6 1.34-45.09 9.32-43 5l5.88-.75a64.28 64.28 0 0 0 -13.17-.3c-1.34.07-2.75.17-4.2.28s-3 .25-4.93.52a40.29 40.29 0 0 0 -6.57 1.45l-.94.31c-.37.13-.74.26-1.08.4-.7.28-1.4.57-2.08.91a27.27 27.27 0 0 0 -4 2.3 29.24 29.24 0 0 0 -6.69 6.59c-.48.67-.91 1.27-1.27 1.84s-.73 1.18-1.05 1.75c-.66 1.16-1.22 2.28-1.72 3.36-1 2.15-1.74 4.14-2.38 5.89s-1.23 3.36-1.85 5.05c-2.44 6.7-4.89 13.4-7.18 19.66l3.45 5.94c-31.24 62.78-60.32 172.4-79.89 205.73-4.56 16.24-11.76 35.8-16.27 51.9l-2.35-1.82-15.75 41.1c-2.42 6.43-4.84 12.89-7.4 19.73-4.44 12.07-9.12 24.81-14.28 38.86l30.21 2 14.65 1 11.83.72-11.9 1.17a151.06 151.06 0 0 0 20.69.28c5.9-.41 11-1.14 16.06-1.88 10.08-1.5 19.82-3 34.81-2.26l8.81 4.66c56.73 2.85 114.21 8.35 170.43 5-.92.6-2.61 1.8-11.82 1.85l12.12.31 7.31.21 7.89.15c10.81.2 22.61.4 33.28.41 5.33 0 10.37-.1 14.87-.26s8.43-.39 11.55-.7c6.25-.61 9.21-1.56 6.76-3 .71 3.85 58.67-.34 89.25-3.22l-4.68 2.94c12.89-2.2 19.52-3.55 27.45-4.63s17.13-2 35.16-3.32c8.58 0 7.61 1.89-3.8 1.69 14.3.1 19.82-.8 26.1-1.84s13.29-2 30.61-2.28l-12.77 2.52c29.34-1.39 27-2.34 42.94-5.47 4.58-.59 10.35-1.08 16.49-1.44 3.07-.18 6.24-.33 9.4-.45s6.3-.27 9.34-.35c12.17-.33 22.62-.07 24.88 1 1.91-.92 6.83-2.21 13.44-3.35a181.1 181.1 0 0 1 23.52-2.72c2.41.73-3.81 1.89-6.94 2.46 12.27-.64 22.94-1.55 32.55-2.64s18.18-2.42 26.27-3.6l11.85-1.7 11.7-1.55a57.08 57.08 0 0 0 13-3.12 30.16 30.16 0 0 0 6.76-3.65 32.51 32.51 0 0 0 5.86-5.44c1.25-.14 3.33-2.23 5.07-5.17a39.34 39.34 0 0 1 -5 7.74 30 30 0 0 1 -7.28 6.33 35.2 35.2 0 0 1 -8.1 3.63 53.5 53.5 0 0 1 -7.44 1.69c-2.32.38-4.49.62-6.5.84l-5.73.57-10.16 1c-12.31 1.19-19.4 1.83-17.95 1.58.25 2.56 31.69-.22 7.08 5.87l21.6-4 6.15-1.13c2.15-.41 4.51-.86 7-1.47a57.4 57.4 0 0 0 8-2.48 37.61 37.61 0 0 0 8.39-4.6 33.55 33.55 0 0 0 7-7 42 42 0 0 0 4.5-7.77 90.14 90.14 0 0 0 4.66-14.4c2.17-8.55 4.43-16.65 6.82-24a24.48 24.48 0 0 1 2-3.65l-.59 3.12a174.06 174.06 0 0 0 4.9-18.75c3.08-9.3 5.08-15.19 7.69-24.22 3-2.9 11-34.38 15.36-49.44-3.06.48 3-19.15-4.51-1.28.88-2.34-.48 3-3.22 13-.57 2.29-1.29 5-1.55 6.51 0-.31 0-.69 0-1.1l-10.48 37.6c2-12.31 4.4-25.09 10.65-41.35.46-8.24 1.1-17.27 1.62-22.31 9.64-19.57 23-58.79 26.9-63.67 11.58-46.49 29.85-108.8 33-139.21 1.53-6.65 3-10.31 4.29-12.89.66-1.29 1.3-2.32 1.9-3.31.31-.49.6-1 .89-1.49a13.39 13.39 0 0 0 .93-1.92c-.25 1.06-.49 2.14-.74 3.23s-.48 2-.71 3l-1.44 5.84a79.92 79.92 0 0 0 -1.91 9.21c1.29-5.54 3-12.15 4.82-19.21l8.56-31.64-22.82.54-5.25.16-2.53.09-2.06.08c-2.26.11-4.41.24-6.43.37-8.06.54-13.93 1.28-15.81 2.37-34.33-1.39 19.26-3.55-27.89-2.57l6.36-1.18c-92.75-5.14-150.75 10.63-253.62 3.86 7.13.41 10.69.59 12.15 1.2-29.32-.6-59.07-.58-89-.29s-60.11.71-90.3 1.76-60.36 2.91-90.17 6.2q-22.35 2.5-44.36 6.22c-14.69 2.42-29.09 5.48-43.25 8-16.06 3.13-24.73 5.06-31.89 6.95s-12.72 3.72-22.46 5.38c-2.4-.8-4.76-1.75-7.08-2.62-2.74.4-5.47.7-8.26 1s-5.73.5-8.76.87a60.25 60.25 0 0 0 -9.26 1.76 32 32 0 0 0 -9 4 31.5 31.5 0 0 0 -7.76 6.61 50.53 50.53 0 0 0 -5.4 7.74c-3.06 5.28-5.33 10.5-7.81 15.47s-5 9.94-7.55 14.88-5.12 9.92-7.72 15c-10.37 20.27-21 42.26-30.3 71.79l4.86-6.62c-4.33 10.2-10.57 26.6-15.73 40s-9.28 23.63-9.72 21.48c-.48 2.25-.63 7.54-4.68 15.26l-1.72.07c-5.61 17.28-11 34.63-16.36 52-7.7 19.63-8.6 17.55-10.26 17.79s-4.05 2.77-14.28 31.86c-3.46 10.93-7.58 26.76-10.33 38.87s-4.16 20.51-2.31 16.6c3-8.75 8.31-22.11 10.06-22.25l-5.79 20.11c1.62 2.53 2.31 8 5 6.83 1.34-.58 3.17-2.8 5.87-7.84s6.22-12.93 11.09-24.78q2.14-8.68 4.35-17.3c1.5-5.77 2.94-11.56 4.48-17.32l5.93-10.1-4.9 14.18-4.81 14.21c7.51-15.41 9.34-26.18 12.15-38 2.09-2.29 4.57-6.72 7.37-13.23 1.25-5.74 2.59-11.46 3.88-17.2s2.61-11.47 4-17.2c3.19-3.33-2.08 16 7-5.69 3.79-16.08-9.34 13.31-1.08-12.6 8-15.21 7.83-9.94 13.36-29.27 2.13-2.19 1.32 2-1 9.63 5-17.17 16.62-44.12 17.77-53.57a157.65 157.65 0 0 0 7.33-15.24c2.54-5.93 5.14-12.33 7.59-18.13 4.86-11.63 9.1-20.87 10.78-19.2 1.19-5.57 9-30.25 15.5-45.31-1.78 7.38-1.12 7.57.9 3.85 1-1.86 2.37-4.69 3.93-8.1l2.46-5.41c.84-1.84 1.7-3.66 2.6-5.37a31.08 31.08 0 0 1 5.68-8.12 10.68 10.68 0 0 1 5.49-2.89 13.44 13.44 0 0 1 5.29 0c1.33.32 1.77.82 1.07 1.59a36.12 36.12 0 0 1 8.74-1.58l6.33-.55 3.45-.26 3.58-.36c9.72-.93 20.71-2.41 32-4.49s22.82-4.71 33.86-7.45 21.56-5.57 30.87-8.18a47.66 47.66 0 0 1 -9.42 3 219.54 219.54 0 0 1 23.63-3.63l18-1.37c.55-1.07 3-2.24 6.75-3.46s8.69-2.38 14.16-3.52c11-2.29 24-4.24 33.06-6.11 13.56 1 9.53 2.43 3.26 3.95s-14.79 3.37-10.47 4.86c-.8-1.53 10.7-3.25 21.32-4.59 5.31-.65 10.39-1.25 13.57-1.82s4.45-1.1 2.13-1.67c10.34.73 14.78.9 18 1.2s5.15.75 10.49 2.25c3.5-5 19.17-1.25 36.29-4.42 30 2.14 7.75 4.51 40.7 2.76 15.67 1.25-13.64 3.22-13.64 3.22zm311.51 330.16h-.06c1.78-6.52 3.31-12.07 4.28-15.62zm-32.73 39a78.71 78.71 0 0 0 12.1-1.72 21.3 21.3 0 0 0 5.19-2 14.68 14.68 0 0 0 4-3.31c.88-.33 1.28 0 1 .91a8 8 0 0 1 -3.41 3.69c.5-.49.2-.5-.57-.22a35.58 35.58 0 0 1 -3.92 1.26 42.08 42.08 0 0 1 -6.65 1c-2.52.24-5.25.33-7.74.38zm71.6-104.34c-2.47 10.14-3.95 13.35-4.9 14.57 1.3-4.75 2.79-10.32 4.67-17.64 0-.32 0-1 0-1.28a12.75 12.75 0 0 1 .23 4.34z"/><path d="m869.4 553.05c.35-1.47.46-2.3 1-4.19-.83 2-1.58 3.87-2.31 5.81-.06 1.3-.14 2.63-.17 3.79.49-1.82 1.01-3.71 1.48-5.41z"/><path d="m102.26 496-.57 1.27a22.78 22.78 0 0 1 1.44-2.56 15.24 15.24 0 0 1 -.87 1.29z"/><path d="m107.9 554.75-.7-.16-1.4 5.62z"/><path d="m343.85 296.12a21.11 21.11 0 0 0 4.8.39 27.61 27.61 0 0 0 -4.8-.39z"/><path d="m500.2 288.73 22.13.53c-9.57-.36-16.55-.53-22.13-.53z"/><path d="m620.36 290.12a5.66 5.66 0 0 0 2.38-1.13h-.23z"/><path d="m896 392.38c.65-1.51 1.27-3 1.79-4.37 3.97-10.34 1.12-3.37-1.79 4.37z"/><path d="m533.91 698.58c6-.68 12-1.35 18.3-1.84-10.16.07-18.05.26-18.3 1.84z"/><path d="m470.48 286.6h.07l-3.9-.22z"/><path d="m578.72 696.06a246.17 246.17 0 0 0 -26.51.68c8.32-.04 18.13-.03 26.51-.68z"/><path d="m863 470.08-1.85 5.5c.21 0 .25.34.23.8z"/><path d="m861.36 476.38-1.62 6.24a31.73 31.73 0 0 0 1.62-6.24z"/><path d="m856.3 495.75 3.44-13.13c-1.42 4.47-3.27 9.96-3.44 13.13z"/><path d="m909.57 317.71-.49-2c-.08.98.08 1.69.49 2z"/><path d="m918.41 284.58c-.48 1.54-1.15 3.38-1.87 5.24s-1.42 3.58-2.19 5.5q-.5 1.28-1 2.58l-.24.62-.11.31-.06.15-.1.33-.9 2.91c-1.19 3.91-2.27 7.87-3.21 11.79l.37 1.67a47.92 47.92 0 0 1 2.13-8.68c.58-1.85 1.24-3.85 1.95-5.94l.55-1.59.06-.2.05-.1.08-.2.16-.39c.23-.54.45-1.09.68-1.65.94-2.25 1.94-4.88 2.7-7.24s1.2-4.38.95-5.11z"/><path d="m732.74 284.45c13.46 1.33 26.91 2.61 40.37 3.59-7-1.48-16.18-3.46 2.16-2.7-12.65-1.48-18.32-2.16-20.56-2.24s-1 .39.15.95 2.24 1.21-.27 1.45-8.59.11-21.85-1.05z"/><path d="m606.7 275.86c21.92 0-.21-1.61.95-2.17-13.93.73-17.28.92-.95 2.17z"/><path d="m112.2 697.08-2.58 2.2c16.81 2.13.31-.96 2.58-2.2z"/><path d="m286.63 699.45c-5.42-.65-10.83-1.42-16.24-2.12l-7.84 2c8.02.13 16.05.14 24.08.12z"/><path d="m389.45 718-7.37.47q14.09-.66 28.13-1.45z"/><path d="m293.46 261.77 5.35 2.79c11.39-1.34 13.61-5.04-5.35-2.79z"/><path d="m116.05 732.71c7.27 1.15 25.87 1.07 37.2-1.16-14.83.66-29.68.31-37.2 1.16z"/><path d="m144.56 381.67 3.59-12.83-7.81 23.79z"/></g></svg>