<svg id="art" xmlns="http://www.w3.org/2000/svg" viewBox="0 0 1000 1000"><path d="M71.53,530l30.65,41.47,8.74,11.82a8.16,8.16,0,0,0,4.48,3.45,7.68,7.68,0,0,0,5.78-.76,7.54,7.54,0,0,0,3.44-4.48c.43-1.84.43-4.19-.75-5.78L93.22,534.2l-8.74-11.82A8.2,8.2,0,0,0,80,518.93a7.67,7.67,0,0,0-5.78.76,7.59,7.59,0,0,0-3.45,4.48c-.42,1.85-.42,4.19.76,5.78Z"/><path d="M165.18,443.54A443.71,443.71,0,0,1,197.8,497.8q4,8,7.76,16.09a7.55,7.55,0,0,0,4.49,3.45,7.68,7.68,0,0,0,5.78-.76,7.54,7.54,0,0,0,3.44-4.48,8.6,8.6,0,0,0-.75-5.78,444.87,444.87,0,0,0-30.41-55.53q-4.83-7.52-10-14.82a8.08,8.08,0,0,0-4.48-3.45,7.67,7.67,0,0,0-5.78.76c-3.18,2.05-5.1,6.83-2.69,10.26Z"/><path d="M283.8,384.54l17.72,59.59,5.05,17c1.12,3.75,5.32,6.5,9.22,5.23s6.44-5.19,5.24-9.22l-17.71-59.59-5.06-17c-1.11-3.76-5.31-6.51-9.22-5.24s-6.44,5.2-5.24,9.22Z"/><path d="M427.46,343.12a538,538,0,0,0,3.68,65.44q1.19,10.06,2.71,20.07c.26,1.74,2,3.64,3.44,4.49a7.53,7.53,0,0,0,10.27-2.69,8.73,8.73,0,0,0,.75-5.78q-.71-4.63-1.33-9.28l.27,2a541.49,541.49,0,0,1-4.62-57.73q-.21-8.26-.17-16.52c0-3.92-3.47-7.68-7.5-7.5a7.63,7.63,0,0,0-7.5,7.5Z"/><path d="M567,338.56q-.68,5.81-1.44,11.58l.26-2q-4.17,31-11.32,61.43-2,8.64-4.31,17.22c-1,3.79,1.26,8.32,5.24,9.22a7.62,7.62,0,0,0,9.22-5.23,640.75,640.75,0,0,0,14.48-70.47q1.61-10.86,2.87-21.76a7.45,7.45,0,0,0-2.19-5.3,7.5,7.5,0,0,0-10.61,0,8.73,8.73,0,0,0-2.2,5.3Z"/><path d="M708.87,369.23q-4.51,13.65-10.1,26.92l.75-1.79a359.86,359.86,0,0,1-21.17,42.19q-3.4,5.81-7,11.48A7.57,7.57,0,0,0,674,458.29a7.66,7.66,0,0,0,10.26-2.69,368.79,368.79,0,0,0,32.33-63.71q3.63-9.24,6.74-18.67a7.57,7.57,0,0,0-5.24-9.23,7.67,7.67,0,0,0-9.22,5.24Z"/><path d="M834.11,429.9l-38,54.14-10.75,15.32a7.49,7.49,0,0,0,2.69,10.26c3.84,2,7.85.75,10.26-2.69l38-54.14,10.75-15.32a7.5,7.5,0,0,0-2.69-10.27c-3.84-2-7.85-.74-10.26,2.7Z"/><path d="M928,500.29a573.32,573.32,0,0,1-42.94,44q-6.35,5.84-12.87,11.48c-3,2.57-2.84,8,0,10.6a7.69,7.69,0,0,0,10.61,0,571.38,571.38,0,0,0,44.25-42.68q5.88-6.3,11.55-12.79a8,8,0,0,0,2.2-5.3,7.66,7.66,0,0,0-2.2-5.31c-2.83-2.6-7.84-3.15-10.6,0Z"/><path d="M948.56,637.21l30.23-20.71a8,8,0,0,0,3.44-4.48,7.67,7.67,0,0,0-.75-5.78c-2.08-3.21-6.8-5.06-10.27-2.69L941,624.26a7.94,7.94,0,0,0-3.44,4.48,7.63,7.63,0,0,0,.75,5.78c2.07,3.21,6.8,5.06,10.26,2.69Z"/><path d="M21.21,636.45l50.14,31.46a7.56,7.56,0,0,0,10.26-2.69A7.66,7.66,0,0,0,78.92,655L28.79,623.5a7.57,7.57,0,0,0-10.27,2.69,7.66,7.66,0,0,0,2.69,10.26Z"/></svg>