<?xml version="1.0" encoding="utf-8"?>
<!-- Generator: Adobe Illustrator 23.1.1, SVG Export Plug-In . SVG Version: 6.00 Build 0)  -->
<svg version="1.1" id="Layer_1" xmlns="http://www.w3.org/2000/svg" xmlns:xlink="http://www.w3.org/1999/xlink" x="0px" y="0px"
	 viewBox="0 0 476 129.8" style="enable-background:new 0 0 476 129.8;" xml:space="preserve">
<style type="text/css">
	.st0{fill:#5195D0;stroke:#FFFFFF;stroke-width:0.3845;}
	.st1{fill:#4A5E81;}
	.st2{fill:#5195D0;}
	.st3{fill:#D9CFCD;}
	.st4{fill-rule:evenodd;clip-rule:evenodd;fill:#B5ADAB;}
	.st5{fill-rule:evenodd;clip-rule:evenodd;fill:#FFFFFF;}
	.st6{fill:#A70E13;}
	.st7{fill:#40502E;}
	.st8{fill:#5B6C36;}
	.st9{fill:#1C2C1D;}
	.st10{fill:#4A604A;}
	.st11{fill:#233A17;}
	.st12{fill:#7B5A3E;}
	.st13{fill:#957761;}
	.st14{fill:#563021;}
	.st15{fill:#B11116;}
	.st16{fill:#8B0304;}
	.st17{fill:#790000;}
	.st18{fill:#FFFFFF;}
	.st19{fill:#94070A;}
	.st20{fill:#613731;}
	.st21{fill:#001100;}
	.st22{fill:#304822;}
	.st23{fill:#806C5A;}
	.st24{fill:#6B7E47;}
	.st25{fill:#452914;}
	.st26{fill:#2D1400;}
	.st27{fill:#2E3E2E;}
	.st28{fill:#495D3A;}
	.st29{fill:#5D7856;}
	.st30{fill:#837D52;}
	.st31{fill:#4C5117;}
	.st32{fill:#53614A;}
	.st33{fill:#B29C6E;}
	.st34{fill:#7C6450;}
	.st35{fill:#927F5E;}
	.st36{fill:#A28F64;}
	.st37{fill:#5A6C43;}
	.st38{fill:#3F5C3A;}
	.st39{fill:#604D3D;}
	.st40{fill:#034EA2;}
	.st41{fill:#FFF200;}
	.st42{fill:#846427;stroke:#DBA111;stroke-width:0.15;}
</style>
<g>
	<g>
		<g>
			<g>
				<path class="st0" d="M292.1,67.2c-5.2,0-9.7-1.7-13.1-5.2v24.2h-11.6V43.6c0-12.9,9.5-23.5,23.1-23.5c13.5,0,23,10.6,23,23.5
					C313.5,56.6,303.9,67.2,292.1,67.2z M290.5,31c-6.4,0-11.5,5.7-11.5,12.6c0,7.2,5.1,12.9,11.5,12.9S302,50.9,302,43.6
					C302,36.4,296.9,31,290.5,31z"/>
				<path class="st0" d="M355.3,43.8c0,13.4-10.2,23.5-22.7,23.5S310,57.3,310,43.8c0-13.4,10.1-23.6,22.6-23.6
					C345.1,20.1,355.3,30.3,355.3,43.8z M343.7,43.9c0-7.8-5-13.2-11.1-13.2s-11.1,5.4-11.1,13.2c0,7.6,5,12.8,11.1,12.8
					S343.7,51.5,343.7,43.9z"/>
				<path class="st0" d="M374.3,20.1c12.6,0,20,8.3,20,20.1v26h-11.5V39.9c0-2.5-0.9-8.5-8.5-8.5c-5.1,0-8.7,3.5-8.7,8.5v26.3h-11.5
					v-26C354.1,28.8,362.1,20.1,374.3,20.1z"/>
			</g>
		</g>
		<g>
			<path class="st1" d="M358.1,84.1v2.1h-8.2l4.5-5.2c1.4-1.6,1.6-2.1,1.6-3.1c0-0.6-0.5-1.5-1.7-1.5c-1.3,0-1.8,0.9-1.8,1.9h-2.2
				c0-2.5,1.8-4.2,4.1-4.2c2.3,0,3.9,1.7,3.9,3.8c0,1.7-0.6,2.7-2.2,4.4l-1.6,1.8L358.1,84.1L358.1,84.1z"/>
			<path class="st1" d="M371.3,80.3c0,3.4-2.4,6.1-5.7,6.1c-3.3,0-5.8-2.7-5.8-6.1s2.4-6.1,5.8-6.1
				C368.9,74.1,371.3,76.9,371.3,80.3z M369.1,80.3c0-2.2-1.6-4-3.5-4s-3.5,1.8-3.5,4s1.6,4,3.5,4S369.1,82.5,369.1,80.3z"/>
			<path class="st1" d="M344.7,80.4h4.6v2.1h-4.6V80.4z"/>
			<path class="st1" d="M312.1,84.1v2.1h-8.2l4.5-5.2c1.4-1.6,1.6-2.1,1.6-3.1c0-0.6-0.5-1.5-1.7-1.5c-1.3,0-1.8,0.9-1.8,1.9h-2.2
				c0-2.5,1.8-4.2,4.1-4.2c2.3,0,3.9,1.7,3.9,3.8c0,1.7-0.6,2.7-2.2,4.4l-1.6,1.8L312.1,84.1L312.1,84.1z"/>
			<path class="st1" d="M325.7,80.3c0,3.4-2.4,6.1-5.7,6.1c-3.3,0-5.8-2.7-5.8-6.1s2.4-6.1,5.8-6.1
				C323.3,74.1,325.7,76.9,325.7,80.3z M323.5,80.3c0-2.2-1.6-4-3.5-4s-3.5,1.8-3.5,4s1.6,4,3.5,4S323.5,82.5,323.5,80.3z"/>
			<path class="st2" d="M331.2,86.2H329v-9.7h-1.4v-2.1h3.6V86.2z"/>
			<path class="st2" d="M343.7,82.5h-1.5v-8h-1.9l-6.7,10.3h6.4v1.7h2.2v-1.7h1.5V82.5z M337.7,82.5l2.2-3.4v3.4H337.7z"/>
			<path class="st2" d="M381.1,84.1v2.1h-8.2l4.5-5.2c1.4-1.6,1.6-2.1,1.6-3.1c0-0.6-0.5-1.5-1.7-1.5c-1.3,0-1.8,0.9-1.8,1.9h-2.2
				c0-2.5,1.8-4.2,4.1-4.2c2.3,0,3.9,1.7,3.9,3.8c0,1.7-0.6,2.7-2.2,4.4l-1.6,1.8L381.1,84.1L381.1,84.1z"/>
			<path class="st2" d="M394.3,80.3c0,3.4-2.4,6.1-5.7,6.1c-3.3,0-5.8-2.7-5.8-6.1s2.4-6.1,5.8-6.1
				C391.9,74.1,394.3,76.9,394.3,80.3z M392,80.3c0-2.2-1.6-4-3.5-4s-3.5,1.8-3.5,4s1.6,4,3.5,4C390.5,84.3,392,82.5,392,80.3z"/>
		</g>
		<g>
			<path class="st1" d="M185.8,26.9h5.8v2.9h-5.8v6.7h-3.1V25.3c0-3.1,1.8-5.2,5.2-5.2h5v3.1h-5c-1.5,0-2.1,0.6-2.1,2.1L185.8,26.9
				L185.8,26.9z"/>
			<path class="st1" d="M210.3,28.2c0,4.8-3.4,8.6-8,8.6c-4.7,0-8-3.8-8-8.6s3.4-8.5,8-8.5C207,19.7,210.3,23.5,210.3,28.2z
				 M207.2,28.2c0-3.1-2.2-5.6-4.9-5.6s-4.9,2.5-4.9,5.6s2.2,5.6,4.9,5.6C205,33.9,207.2,31.3,207.2,28.2z"/>
			<path class="st1" d="M222.8,21.4c1.1,1.1,1.7,2.6,1.7,4.3v10.9h-3.1v-11c0-1.8-1.1-2.8-2.8-2.8c-1.8,0-2.8,1.1-2.8,2.8v11h-3.1
				v-11c0-1.7,0.6-3.2,1.7-4.3c1.1-1.1,2.6-1.7,4.3-1.7C220.2,19.7,221.8,20.3,222.8,21.4z"/>
			<path class="st1" d="M233.5,36.5h-6.1V20.1h6.1c4.6,0,7.4,3.1,7.4,8.2C240.9,33.3,238,36.5,233.5,36.5z M233.5,23h-3v10.6h3
				c3.7,0,4.3-3.3,4.3-5.3C237.8,25.9,237.1,23,233.5,23z"/>
			<path class="st1" d="M246.4,36.5h-3.1V20.1h3.1V36.5z"/>
			<path class="st1" d="M115.7,48.7c-0.8,0.7-1.3,1.8-1.3,4.4c0,2.3-0.3,4.9-2.5,6.7c-1.3,1.1-3,1.5-5.2,1.5v-3
				c1.1,0,2.4-0.2,3.2-0.9c0.8-0.7,1.3-1.7,1.3-4.4c0-3.1,0.7-5.2,2.4-6.7c1.2-1.1,2.9-1.6,5-1.6v3
				C117.3,47.8,116.2,48.2,115.7,48.7z"/>
			<path class="st1" d="M127.1,47.8v13.5H124V47.8h-4.4v-2.9h11.9v2.9H127.1z"/>
			<path class="st1" d="M144.2,61.3h-3.1v-4.8c0-0.6-0.4-1.1-1.1-1.1h-3.9v5.9H133v-11c0-1.6,0.6-3,1.6-4.1c1.1-1.1,2.6-1.7,4.2-1.7
				c3.3,0,5.8,2.4,5.8,5.3c0,1.7-0.7,3-1.7,3.9c0.9,0.5,1.4,1.4,1.4,2.7L144.2,61.3L144.2,61.3z M141.3,50c0-1.4-1.1-2.5-2.6-2.5
				c-1.8,0-2.7,1.3-2.7,2.8v2.2h2.7C140.4,52.5,141.3,51.5,141.3,50z"/>
			<path class="st1" d="M148.5,59.9c-1.1-1.1-1.7-2.6-1.7-4.3V44.9h3.1v10.8c0,1.8,1.1,2.8,2.8,2.8c1.8,0,2.8-1.1,2.8-2.8V44.9h3.1
				v10.8c0,1.7-0.6,3.2-1.7,4.3c-1.1,1.1-2.6,1.7-4.3,1.7C151.1,61.6,149.6,61,148.5,59.9z"/>
			<path class="st1" d="M168.1,47.8v13.5H165V47.8h-4.4v-2.9h11.9v2.9H168.1z"/>
			<path class="st1" d="M181.3,47.8v13.5h-3.1V47.8h-4.4v-2.9h11.9v2.9H181.3z"/>
			<path class="st1" d="M189.2,59.9c-1.1-1.1-1.7-2.6-1.7-4.3V44.9h3.1v10.8c0,1.8,1.1,2.8,2.8,2.8c1.8,0,2.8-1.1,2.8-2.8V44.9h3.1
				v10.8c0,1.7-0.6,3.2-1.7,4.3c-1.1,1.1-2.6,1.7-4.3,1.7C191.8,61.6,190.3,61,189.2,59.9z"/>
			<path class="st1" d="M213.5,61.3h-3.1v-4.8c0-0.6-0.4-1.1-1.1-1.1h-3.9v5.9h-3.1v-11c0-1.6,0.6-3,1.6-4.1
				c1.1-1.1,2.6-1.7,4.2-1.7c3.3,0,5.8,2.4,5.8,5.3c0,1.7-0.7,3-1.7,3.9c0.9,0.5,1.4,1.4,1.4,2.7L213.5,61.3L213.5,61.3z M210.6,50
				c0-1.4-1.1-2.5-2.6-2.5c-1.8,0-2.7,1.3-2.7,2.8v2.2h2.7C209.7,52.5,210.6,51.5,210.6,50z"/>
			<path class="st1" d="M228.4,61.3h-3.1v-4.6h-5.7v4.6h-3.1V50.4c0-1.7,0.6-3.2,1.7-4.3c1.1-1.1,2.6-1.7,4.3-1.7s3.2,0.6,4.3,1.7
				c1.1,1.1,1.7,2.6,1.7,4.3L228.4,61.3L228.4,61.3z M225.3,50.3c0-1.8-1.1-2.8-2.8-2.8c-1.8,0-2.8,1.1-2.8,2.8v3.4h5.7L225.3,50.3
				L225.3,50.3z"/>
			<path class="st1" d="M231.2,56.1V44.9h3.1v11.2c0,1.5,0.6,2.2,2.1,2.2h4.9v3.1h-5C233,61.3,231.2,59.3,231.2,56.1z"/>
			<path class="st1" d="M246.4,61.3h-3.1V44.9h3.1V61.3z"/>
			<path class="st1" d="M158.8,76.4h6.6v2.9h-6.6v1.6c0,1.5,0.6,2.1,2.1,2.1h5.8v3.1h-5.8c-3.4,0-5.2-2.1-5.2-5.2v-6
				c0-3.1,1.8-5.2,5.2-5.2h5.8v3.1h-5.8c-1.5,0-2.1,0.6-2.1,2.1V76.4z"/>
			<path class="st1" d="M170.7,84.7c-1.1-1.1-1.7-2.6-1.7-4.3V69.6h3.1v10.8c0,1.8,1.1,2.8,2.8,2.8c1.8,0,2.8-1.1,2.8-2.8V69.6h3.1
				v10.8c0,1.7-0.6,3.2-1.7,4.3c-1.1,1.1-2.6,1.7-4.3,1.7C173.3,86.4,171.8,85.8,170.7,84.7z"/>
			<path class="st1" d="M195,86.1h-3.1v-4.8c0-0.6-0.4-1.1-1.1-1.1h-3.9v5.9h-3.1v-11c0-1.6,0.6-3,1.6-4.1c1.1-1.1,2.6-1.7,4.2-1.7
				c3.3,0,5.8,2.4,5.8,5.3c0,1.7-0.7,3-1.7,3.9c0.9,0.5,1.4,1.4,1.4,2.7L195,86.1L195,86.1z M192.2,74.8c0-1.4-1.1-2.5-2.6-2.5
				c-1.8,0-2.7,1.3-2.7,2.8v2.2h2.7C191.2,77.3,192.2,76.3,192.2,74.8z"/>
			<path class="st1" d="M213.3,77.8c0,4.8-3.4,8.6-8,8.6c-4.7,0-8-3.8-8-8.6c0-4.8,3.4-8.5,8-8.5C209.9,69.2,213.3,73,213.3,77.8z
				 M210.1,77.8c0-3.1-2.2-5.6-4.9-5.6s-4.9,2.5-4.9,5.6s2.2,5.6,4.9,5.6C208,83.4,210.1,80.9,210.1,77.8z"/>
			<path class="st1" d="M221.9,81.3h-3.2v4.8h-3.1V75.3c0-3.3,2.7-6,6.1-6c3.5,0,6.1,2.7,6.1,6C227.8,78.7,224.9,81.3,221.9,81.3z
				 M221.6,72.2c-1.6,0-3,1.4-3,3.1v3.1h3c1.7,0,3-1.4,3-3.1S223.3,72.2,221.6,72.2z"/>
			<path class="st1" d="M232.9,76.4h6.6v2.9h-6.6v1.6c0,1.5,0.6,2.1,2.1,2.1h5.8v3.1H235c-3.4,0-5.2-2.1-5.2-5.2v-6
				c0-3.1,1.8-5.2,5.2-5.2h5.8v3.1H235c-1.5,0-2.1,0.6-2.1,2.1V76.4z"/>
			<path class="st1" d="M246.4,86.1h-3.1V69.6h3.1V86.1z"/>
		</g>
		<g>
			<g>
				<circle class="st3" cx="447.1" cy="42.5" r="13.5"/>
				<path class="st4" d="M464.1,41.6c0-0.2-0.2-0.4-0.4-0.4h-1.3c-0.1-0.7-0.2-1.4-0.3-2.1l1.2-0.4c0.2-0.1,0.4-0.3,0.3-0.6
					l-0.6-1.7c-0.1-0.2-0.3-0.4-0.6-0.3l-1.2,0.4c-0.3-0.6-0.6-1.3-0.9-1.9l1-0.7c0.2-0.1,0.2-0.4,0.1-0.6l-1.1-1.5
					c-0.1-0.2-0.4-0.2-0.6-0.1l-1,0.7c-0.5-0.5-0.9-1-1.5-1.5l0.7-1c0.1-0.2,0.1-0.5-0.1-0.6l-1.5-1.1c-0.2-0.1-0.5-0.1-0.6,0.1
					l-0.7,1c-0.6-0.4-1.2-0.7-1.9-0.9l0.4-1.2c0.1-0.2-0.1-0.5-0.3-0.6l-1.7-0.6c-0.2-0.1-0.5,0.1-0.6,0.3l-0.4,1.2
					c-0.7-0.2-1.4-0.3-2.1-0.3V26c0-0.2-0.2-0.4-0.4-0.4h-1.8c-0.2,0-0.4,0.2-0.4,0.4v1.3c-0.7,0.1-1.4,0.2-2.1,0.3l-0.4-1.2
					c-0.1-0.2-0.3-0.4-0.6-0.3l-1.7,0.6c-0.2,0.1-0.4,0.3-0.3,0.6l0.4,1.2c-0.6,0.3-1.3,0.6-1.9,0.9l-0.7-1
					c-0.1-0.2-0.4-0.2-0.6-0.1l-1.5,1.1c-0.2,0.1-0.2,0.4-0.1,0.6l0.7,1c-0.5,0.5-1,0.9-1.5,1.5l-1-0.7c-0.2-0.1-0.5-0.1-0.6,0.1
					l-1.1,1.5c-0.1,0.2-0.1,0.5,0.1,0.6l1,0.7c-0.4,0.6-0.7,1.2-0.9,1.9l-1.2-0.4c-0.2-0.1-0.5,0.1-0.6,0.3l-0.6,1.7
					c-0.1,0.2,0.1,0.5,0.3,0.6l1.2,0.4c-0.2,0.7-0.3,1.4-0.3,2.1h-1.3c-0.2,0-0.4,0.2-0.4,0.4v1.8c0,0.2,0.2,0.4,0.4,0.4h1.3
					c0.1,0.7,0.2,1.4,0.3,2.1l-1.2,0.4c-0.2,0.1-0.4,0.3-0.3,0.6l0.6,1.7c0.1,0.2,0.3,0.4,0.6,0.3l1.2-0.4c0.3,0.6,0.6,1.3,0.9,1.9
					l-1,0.7c-0.2,0.1-0.2,0.4-0.1,0.6l1.1,1.5c0.1,0.2,0.4,0.2,0.6,0.1l1-0.7c0.5,0.5,0.9,1,1.5,1.5l-0.7,1
					c-0.1,0.2-0.1,0.5,0.1,0.6l1.5,1.1c0.2,0.1,0.5,0.1,0.6-0.1l0.7-1c0.6,0.4,1.2,0.7,1.9,0.9l-0.4,1.2c-0.1,0.2,0.1,0.5,0.3,0.6
					l1.7,0.6c0.2,0.1,0.5-0.1,0.6-0.3l0.4-1.2c0.7,0.2,1.4,0.3,2.1,0.3V59c0,0.2,0.2,0.4,0.4,0.4h1.8c0.2,0,0.4-0.2,0.4-0.4v-1.3
					c0.7-0.1,1.4-0.2,2.1-0.3l0.4,1.2c0.1,0.2,0.3,0.4,0.6,0.3l1.7-0.6c0.2-0.1,0.4-0.3,0.3-0.6l-0.4-1.2c0.6-0.3,1.3-0.6,1.9-0.9
					l0.7,1c0.1,0.2,0.4,0.2,0.6,0.1l1.5-1.1c0.2-0.1,0.2-0.4,0.1-0.6l-0.7-1c0.5-0.5,1-0.9,1.5-1.5l1,0.7c0.2,0.1,0.5,0.1,0.6-0.1
					l1.1-1.5c0.1-0.2,0.1-0.5-0.1-0.6l-1-0.7c0.4-0.6,0.7-1.2,0.9-1.9l1.2,0.4c0.2,0.1,0.5-0.1,0.6-0.3l0.6-1.7
					c0.1-0.2-0.1-0.5-0.3-0.6l-1.2-0.4c0.2-0.7,0.3-1.4,0.3-2.1h1.3c0.2,0,0.4-0.2,0.4-0.4V41.6z M457.7,36.6l-7.9,2l-0.4-6.6
					l-0.1-1.4C452.9,31.3,456,33.5,457.7,36.6z M444.9,30.6l-0.1,1.2l-0.4,6.8l-7.9-2C438.3,33.5,441.3,31.3,444.9,30.6z M435,42.5
					c0-0.6,0-1.1,0.1-1.7l7.4,2.9l-4.4,6.9C436.2,48.5,435,45.7,435,42.5z M447.1,54.6c-1.8,0-3.6-0.4-5.2-1.2l5.2-6.3l5.2,6.3
					C450.7,54.2,449,54.6,447.1,54.6z M456.1,50.7l-4.4-6.9l7.4-2.9c0.1,0.6,0.1,1.1,0.1,1.7C459.2,45.7,458,48.5,456.1,50.7z"/>
				<g>
					<polygon class="st5" points="447.1,46.8 440.3,51.7 442.9,43.7 436.1,38.8 444.5,38.8 447.1,30.8 449.7,38.8 458.1,38.8 
						451.3,43.7 453.9,51.7 					"/>
					<path class="st6" d="M447.1,31.3l2.4,7.4l0.1,0.2h0.3h7.8l-6.3,4.6l-0.2,0.1l0.1,0.2l2.4,7.4l-6.3-4.6l-0.2-0.1l-0.2,0.1
						l-6.3,4.6l2.4-7.4l0.1-0.2l-0.2-0.1l-6.3-4.6h7.7h0.3l0.1-0.2L447.1,31.3 M447.1,30.2l-2.7,8.4h-8.8l7.1,5.2l-2.7,8.4l7.1-5.2
						l7.1,5.2l-2.7-8.4l7.1-5.2h-8.8L447.1,30.2L447.1,30.2z"/>
				</g>
			</g>
			<path class="st7" d="M457,24c-0.1-0.1-0.2-0.3-0.4-0.4c-0.1-0.1-0.2-0.3-0.4-0.3c-0.1,0,0,0.3-0.2,0.4c-0.2,0.2-0.4-0.1-0.4-0.2
				c-0.1-0.2-0.2-0.2-0.4-0.4c-0.1-0.2-0.2-0.3-0.3-0.5c-0.1-0.2-0.3-0.4-0.5-0.5s-0.5-0.4-0.8-0.4s-0.1,0.1-0.2,0.2s-0.2,0.1-0.3,0
				c-0.2-0.1-0.3-0.4-0.5-0.4c-0.3-0.1-0.5,0-0.8-0.2s-1.3-0.4-1.7-0.1c-0.2,0.2,0,0.2,0,0.4c0,0.2-0.2,0.2-0.4,0.2
				c-0.3,0-0.6,0.1-0.5,0.5c0,0.1,0.1,0.3,0.2,0.4s0.3,0.1,0.5,0.2c0.3,0.2,0,0.6,0.1,0.8c0.1,0.4,0.4,0.4,0.8,0.4
				c0.3,0,0.6,0.1,0.9,0.1c0.1,0,0.3,0,0.3,0.2s-0.2,0.2-0.3,0.3c-0.2,0.4,0.3,0.3,0.5,0.2c0.2-0.1,0.2-0.1,0.4,0
				c0.2,0.1,0.3,0.3,0.5,0.4s0.5,0,0.7-0.1s0.7-0.2,0.8,0c0.2,0.4-0.5,0.4-0.4,0.7c0.1,0.3,0.8,0.1,1,0.1s0.4,0,0.6-0.1
				c0.3-0.1,0.7-0.2,1-0.4c0.2-0.2,0.3-0.6,0.3-0.8C457.4,24.5,457.3,24.3,457,24z"/>
			<path class="st8" d="M457,24.6c-0.2,0.1-0.8,0.1-1.2-0.1c-0.4-0.1-0.7-0.2-1.1,0c-0.5,0.2-1,0.2-1.3,0.2s-0.4-0.1-0.2-0.1
				c0.8,0,1.6-0.3,1.5-0.5c-0.1-0.1-0.5-0.5-0.8-0.6c-0.2-0.1-0.5-0.2-0.8-0.2c-0.3-0.1-0.9-0.3-1.1-0.4c-0.2,0-0.6-0.3-1-0.5
				s-0.4-0.5-0.2-0.3c0.2,0.2,0.6,0.3,0.8,0.4c0.2,0.1,0.5,0.2,0.3-0.1c-0.2-0.2-0.4-0.8-0.4-0.8s0.6,0.7,0.8,0.9
				c0.2,0.2,0.6,0.4,0.8,0.5c0.2,0.1,0.1-0.2,0-0.5c-0.1-0.2-0.3-0.5-0.1-0.4c0.3,0.1,0.6,0.9,0.8,0.9c0.2,0.1,0.5,0.3,0.9,0.5
				s0.2-0.2,0.1-0.5c-0.1-0.2-0.3-0.5-0.4-0.7v-0.1c0,0,0,0,0,0.1c0.1,0.1,0.2,0.3,0.3,0.2c0.1-0.1,0.1-0.2,0.1-0.4
				c-0.1-0.1-0.3-0.2-0.4-0.3c-0.2-0.1-0.5-0.4-0.8-0.4s-0.1,0.1-0.2,0.2s-0.2,0.1-0.3,0c-0.2-0.1-0.3-0.4-0.5-0.4
				c-0.3-0.1-0.5,0-0.8-0.2s-1.3-0.4-1.7-0.1c-0.2,0.2,0,0.2,0,0.4c0,0.2-0.2,0.2-0.4,0.2c-0.3,0-0.6,0.1-0.5,0.5
				c0,0.1,0.1,0.3,0.2,0.4s0.3,0.1,0.5,0.2c0.3,0.2,0,0.6,0.1,0.8c0.1,0.4,0.4,0.4,0.8,0.4c0.3,0,0.6,0.1,0.9,0.1
				c0.1,0,0.3,0,0.3,0.2s-0.2,0.2-0.3,0.3c-0.2,0.4,0.3,0.3,0.5,0.2c0.2-0.1,0.2-0.1,0.4,0c0.2,0.1,0.3,0.3,0.5,0.4s0.5,0,0.7-0.1
				s0.7-0.2,0.8,0c0.2,0.4-0.5,0.4-0.4,0.7c0.1,0.3,0.8,0.1,1,0.1s0.4,0,0.6-0.1c0.3-0.1,0.7-0.2,1-0.4c0.2-0.2,0.3-0.6,0.3-0.8
				c0-0.2,0-0.3,0-0.4C457.2,24.5,457,24.5,457,24.6z"/>
			<path class="st9" d="M457.7,23.9c-0.1,0-0.3-0.1-0.4,0c-0.2,0.1-0.1,0.2-0.2,0.3c-0.2,0.2-0.8,0-1.1,0c-0.3,0-0.5,0.2-0.5,0.5
				c0,0.2,0.1,0.4,0.1,0.6c0.1,0.2,0.2,0.3,0.2,0.5s-0.3,0.2-0.4,0.4c-0.1,0.2,0,0.4,0.1,0.6s0.3,0.4,0.5,0.5c0.3,0.1,0.6,0,0.9,0.1
				c0.2,0.1,0.4,0.2,0.4,0.5c0,0.4-0.5,0.5-0.6,0.9c-0.1,0.2-0.1,0.4,0.1,0.5c0.1,0.1,0.4,0.1,0.6,0.1s0.6-0.1,0.7,0.2
				c0.1,0.2-0.1,0.4-0.1,0.7c0,0.2,0.3,0.4,0.5,0.5c0.3,0.1,0.6,0.1,0.9,0.1c0.4,0,0.8-0.1,1.2-0.1c0.2,0,0.4,0,0.5-0.1
				c0.3-0.3,0.3-0.9,0.2-1.3c-0.1-0.3-0.2-0.6-0.3-0.8c-0.2-0.6-0.4-1.2-0.7-1.8c-0.1-0.2-0.3-0.3-0.4-0.5c-0.1-0.1-0.2-0.3-0.2-0.4
				c-0.1-0.1-0.2-0.3-0.3-0.4c-0.1-0.1-0.1-0.2-0.1-0.3c-0.1-0.1-0.2-0.3-0.3-0.4c-0.2-0.2-0.4-0.1-0.5-0.3
				C458.1,24.1,457.9,24,457.7,23.9z"/>
			<path class="st10" d="M461.2,29.4c-0.1-0.3-0.2-0.6-0.3-0.8c-0.2-0.6-0.4-1.2-0.7-1.8c-0.1-0.2-0.3-0.3-0.4-0.5
				c-0.1-0.1-0.2-0.3-0.2-0.4c-0.1-0.1-0.2-0.2-0.2-0.3c-0.4,0.6-0.9,1-1.4,0.5c-0.8-0.9-1.8-1.4-2.3-1.6c-0.1,0.1-0.1,0.2-0.1,0.3
				c0,0.2,0.1,0.4,0.1,0.6c0.1,0.2,0.2,0.3,0.2,0.5s-0.3,0.2-0.4,0.4c-0.1,0.2,0,0.4,0.1,0.6s0.3,0.4,0.5,0.5c0.3,0.1,0.6,0,0.9,0.1
				c0.2,0.1,0.4,0.2,0.4,0.5c0,0.4-0.5,0.5-0.6,0.9c-0.1,0.2-0.1,0.4,0.1,0.5c0.1,0.1,0.4,0.1,0.6,0.1s0.6-0.1,0.7,0.2
				c0.1,0.2-0.1,0.4-0.1,0.7c0,0.2,0.3,0.4,0.5,0.5c0.3,0.1,0.6,0.1,0.9,0.1c0.4,0,0.8-0.1,1.2-0.1c0.2,0,0.4,0,0.5-0.1
				C461.3,30.4,461.3,29.8,461.2,29.4z"/>
			<path class="st9" d="M455.6,25.2c0,0-0.1,0.5,0,0.8c0.1-0.1,0.2-0.2,0.2-0.3C455.8,25.6,455.6,25.4,455.6,25.2z"/>
			<path class="st11" d="M456.7,28.6c0,0,0,0.2,0.4,0.2s0.6,0,0.8,0.2c0.1,0.1,0.4,0.4,0.1,0.4c-0.4,0-1.1,0.1-1.3,0
				C456.5,29.3,456.4,28.9,456.7,28.6z"/>
			<path class="st9" d="M457.5,27.9c0,0,0,0.3,0.3,0.5c0.4,0.2,0.2,0.7,0.2,0.7s0.6-0.1,0.6-0.4C458.6,28.3,458.4,28.1,457.5,27.9z"
				/>
			<path class="st7" d="M458.2,24.3c-0.1,0-0.2,0-0.3,0c-0.3,0.1-0.2,0.3-0.3,0.5c0,0.2-0.2,0.4-0.2,0.7c0,0.3,0.1,0.4,0.2,0.6
				s0.1,0.5-0.1,0.6c-0.2,0.2-0.4,0.3-0.4,0.6c0,0.2,0,0.4,0.2,0.6c0.4,0.3,0.9,0.2,1.2,0.6c0.2,0.2,0,0.4-0.2,0.5
				c-0.1,0.1-0.3,0.2-0.4,0.2c-0.1,0.1-0.2,0.1-0.3,0.2c-0.2,0.2,0,0.5,0.2,0.5c0.1,0,0.2,0.1,0.4,0.1c0.1,0.1,0.2,0.1,0.4,0.1
				c0.2,0,0.4,0,0.5,0.1s0.1,0.2,0.2,0.3c0.4,0.5,1,0.4,1.5,0.4c0.1,0,0.3,0,0.4,0.1c0.3,0.2-0.1,0.4-0.2,0.5
				c-0.2,0.3,0.4,0.3,0.6,0.4c0.1,0,0.3,0.1,0.4,0.1s0.2-0.1,0.3-0.1c0.1-0.1,0.3-0.1,0.4-0.2c0.4-0.2,0.3-0.5,0.4-0.9
				c0-0.2,0-0.4,0-0.6s0-0.4-0.1-0.6c0-0.1-0.1-0.2-0.2-0.2c-0.2-0.3-0.2-0.5-0.2-0.8s0.1-0.5,0-0.7c0-0.2-0.1-0.5-0.3-0.6
				c-0.1-0.1-0.2-0.2-0.2-0.3c0-0.1,0-0.3,0-0.4c0-0.2-0.2-0.6-0.4-0.4c-0.2,0.1-0.3,0.4-0.4,0.6c-0.1,0.1-0.2,0.2-0.3,0
				c-0.1-0.2,0-0.5-0.1-0.7s-0.1-0.5-0.2-0.6c-0.1-0.2-0.3-0.4-0.4-0.6c-0.1-0.1-0.4-0.3-0.6-0.2c-0.2,0-0.1,0.4-0.4,0.3
				c-0.1,0-0.2-0.2-0.3-0.2c-0.1-0.1-0.2-0.1-0.4-0.2C458.4,24.3,458.3,24.3,458.2,24.3z"/>
			<path class="st11" d="M460,30.8c0,0-0.4,0.2-1.3,0.1c-0.8-0.1-1-0.5-0.7-1S459.8,30.1,460,30.8z"/>
			<path class="st12" d="M428.5,42.4c-0.1-0.4-0.4,0.5-0.6,0.5s-0.2,0.3-0.2,0.5c0,0.7,0.7,0.4,0.8,1.7
				C428.6,46.2,428.9,44,428.5,42.4z"/>
			<path class="st12" d="M429.2,38.3c0,0-0.2-0.7-0.6-1.1c-0.3-0.4-0.2,0.8-0.2,1c0,0.1,0.5,0.5,0.3,1.8
				C428.6,41.3,429.2,38.3,429.2,38.3z"/>
			<path class="st12" d="M430.6,35c0,0-0.3-0.4-0.5-0.3c-0.2,0.1-0.2,0.3-0.3,0.2c-0.1-0.1-0.2-0.2-0.2,0.2c0,0.3,0,0.4,0.2,0.6
				c0.2,0.2,0.3,0.4,0.3,0.6C430,36.4,430.6,35,430.6,35z"/>
			<path class="st12" d="M432.8,30.1c0,0,0.1,0.7,0.1,1c-0.1,0.3-0.4,0.6-0.4,0.6s0.1-0.6,0-1.1S432.8,30.1,432.8,30.1z"/>
			<path class="st12" d="M430.6,35.5c0,0,0.5,0.1,1-0.1c0.5-0.2,0.3,0.3-0.2,0.4c-0.4,0.1-1,0-1,0L430.6,35.5z"/>
			<path class="st12" d="M430.3,38.7c0,0-0.9,0.3-1.1,0.6c-0.3,0.4,0.2-1.3,0.4-1.5c0.2-0.2,0.4,0,0.4,0.3c0,0.2-0.3,0.3-0.3,0.4
				c0.1,0.1,0.4,0.1,0.7,0C430.8,38.4,430.3,38.7,430.3,38.7z"/>
			<path class="st12" d="M434.8,28.1c0,0-0.4,0.2-0.4,0.5s0.1,0.5,0.1,0.5l-0.4,0.5c0,0,0-0.8,0-1.2c0.1-0.4,0.7-0.7,1.1-1
				C435.5,27.1,434.8,28.1,434.8,28.1z"/>
			<path class="st13" d="M431.5,52c0,0-0.2,0.9-0.1,1.2s-0.3,0.1-0.4,0s-0.3,0-0.1,0.3c0.3,0.3,0.4,0.5,0.6,0.6
				c0.1,0.3,0.4,1.2,0.9,1.9c0,0.5,0,0.9,0.9,1.9c1,1,2.4,1.6,2.4,1.6s-0.1-1.2-1-1.7s-1.2-1-1.3-1.3c-0.1-0.3,0.1-0.4-0.3-0.5
				c-0.3-0.1,0-0.3-0.4-0.4c-0.3-0.5-0.5-1-0.6-1.4s0.2-0.8,0.4-0.8C432.7,53.2,432,52.5,431.5,52z"/>
			<g>
				<path class="st13" d="M448.8,65.5c0,0,0.9,0.7,1.4,1c0.4,0.3,0.8,0.6,1.3,0.9s0.9,0.7,0.9,0.9c0,0.2,0,0.5,0.2,0.7
					s0.3,0.3,0.5,0.3s0.4,0.1,0.5,0.3c0.1,0.2,0.2,0.4,0.3,0.6c0.2,0.2,0.8,0.1,1.1,0c0.3-0.1,0.6-0.5,0.8-0.6
					c0.1-0.1,0.5-0.1,0.7-0.3c0.2-0.1,0.5-0.3,0.3-0.6c-0.2-0.3-0.5-0.2-0.8-0.2c-0.4,0-1.1-0.5-2-1.1s-1.3-1.4-1.3-1.4l-3.7-0.8
					L448.8,65.5z"/>
				<path class="st14" d="M452.4,68.3c0,0.2,0,0.5,0.2,0.7s0.3,0.3,0.5,0.3s0.4,0.1,0.5,0.3c0.1,0.2,0.2,0.4,0.3,0.6
					c0-0.2,0-0.4,0.1-0.5c0.1-0.2,0.4-0.3,0.5-0.5c0.2-0.1,0-0.2-0.1-0.2c-0.1,0.1-0.3,0.3-0.5,0.4s-0.2-0.1-0.1-0.2
					s0.4-0.2,0.3-0.3c-0.1,0-0.3-0.2-0.5-0.3c-0.1-0.2-0.5-0.4-0.8-0.7c-0.3-0.3-0.8-0.5-0.9-0.6s0.1-0.2,0.3-0.2c0.1,0,1.1,0,1.5,0
					c-0.7-0.6-1-1.2-1-1.2l-3.6-0.8l-0.1,0.1l-0.1,0.2c0,0,0.9,0.7,1.4,1c0.4,0.3,0.8,0.6,1.3,0.9C451.9,67.7,452.3,68.2,452.4,68.3
					z M452.8,68.6c0.1-0.1,0.3-0.1,0.4,0s0.2,0.3,0.1,0.4s-0.3,0.1-0.4,0C452.7,68.9,452.7,68.7,452.8,68.6z"/>
				<path class="st13" d="M446.1,65.7c0,0-0.5,0.6-0.8,0.9c-0.3,0.2-0.7,0.4-0.9,0.6c-0.2,0.2-0.4,0.3-0.5,0.5s0,0.4-0.1,0.5
					s-0.3,0.1-0.5,0.1s-0.2,0.1-0.4,0.2c-0.2,0.1-0.3,0.3-0.4,0.3s-0.2,0.1-0.2,0.1c0.1,0.1,0.3,0.4,0.2,0.5
					c-0.2,0.1-0.3,0.1-0.4,0.2s-0.3,0.1-0.5,0.1s-0.3,0.3-0.4,0.4c-0.1,0.2,0,0.3-0.3,0.4s-0.9,0-1.3-0.2c-0.4-0.3-0.7-0.6-0.8-0.7
					c-0.1-0.1-0.3-0.1-0.5-0.1s-0.2-0.2,0-0.4c0.1-0.2,0.3-0.4,0.4-0.3c0.1,0,0.5-0.1,0.7-0.3c0.2-0.2,0.6-0.5,0.7-0.5
					s0-0.4,0.2-0.6c0.2-0.1,0.3-0.2,0.5-0.2s0.5,0,0.6-0.1s0.2-0.2,0.4-0.2c0.2-0.1,0.4-0.1,0.5-0.3c0.1-0.2,0.7-0.6,0.7-0.6
					L446.1,65.7z"/>
				<path class="st14" d="M443,66.1c0,0-0.5,0.4-0.7,0.6c0,0,0,0-0.1,0.1c0.2,0,0.4,0,0.5,0c0.2,0,0.6-0.2,0.8,0
					c0.2,0.1,0.2,0.2,0.1,0.5s-0.3,0.4-0.6,0.5c-0.3,0.1-0.5,0.3-0.6,0.4s-0.5,0.4-0.6,0.6s-0.3,0.4-0.2,0.4c0.1,0.1,0.1,0,0.2-0.1
					s0.3-0.2,0.4-0.2h0.1c0,0,0.1,0,0.2-0.1c0.1,0,0.3-0.2,0.4-0.3c0.2-0.1,0.2-0.2,0.4-0.2c0.2,0,0.4,0,0.5-0.1s0-0.3,0.1-0.5
					s0.3-0.3,0.5-0.5s0.6-0.3,0.9-0.6c0.3-0.2,0.8-0.9,0.8-0.9L443,66.1z M442.1,69.3c-0.2,0.1-0.3,0.1-0.4-0.1
					c-0.1-0.1-0.3-0.1-0.3,0s-0.1,0.3-0.3,0.1c-0.2-0.1-0.7-0.3-1.1-0.3s-1,0-0.7,0.1s0.4,0,1.2,0.2c0.5,0.1,0.7,0.5,0.8,0.7
					c0.1-0.2,0.2-0.4,0.4-0.4c0.2,0,0.3,0,0.5-0.1c0.1-0.1,0.3-0.1,0.4-0.2s0-0.3-0.1-0.4C442.4,69,442.2,69.2,442.1,69.3z
					 M440.5,68c0.2,0.1,0.4,0,0.7-0.1c0.2-0.1,0.5-0.5,0.5-0.7v-0.1c-0.1,0-0.1,0.1-0.2,0.1c0,0.1,0,0.2-0.2,0.3
					c-0.1,0.1-0.3,0.3-0.7,0.3c-0.2,0-0.3-0.2-0.3-0.4c-0.1,0.1-0.1,0.2-0.1,0.3C440.2,67.9,440.3,68,440.5,68z"/>
				<g>
					<path class="st15" d="M434.4,67.6c-0.3,0-0.4,0-0.5,0c-0.3-0.1-2.8-1.6-4.1-2.5c-0.7-0.5-1.2-0.7-1.7-1c-0.3-0.2-0.6-0.3-1-0.5
						c-0.3-0.2-1-1.5-1.2-1.9c1-1.5,1.6-3.5,1.6-3.5l3.1-0.1l0.1-1.2c0.8,0.3,1.2,0.7,1.1,1.1v0.1c-0.1,0.2-0.2,0.5-0.2,1.3
						c0,0.9,0.3,1.6,0.5,1.7c0.3,0.2,2.5,1.9,2.7,1.9c0.1,0,2-0.2,2.8-0.2l-0.2-0.2c0-0.1,0.4-0.6,0.9-1.6c0.4-0.9,0.4-1.4,0.5-1.7
						c0-0.1,0-0.2,0-0.2c0.1-0.2,0.4-0.4,0.7-0.4h0.1c0.2,0.1,3.5,1.3,3.6,1.4c0.1,0.1,1.3,1.5,1.4,1.6h0.7c0.2-0.1,1.2-0.7,1.3-0.7
						c0.2,0,0.7,0.1,0.7,0.1l0.7-0.4l0.9,0.9h1.6c0.1-0.2,0.8-1.4,1-1.5s3.1-1.4,3.4-1.5h0.1c0.4,0,0.9,0.3,1,0.5
						c0,0.1,0.3,1.7,0.5,2.5l0.6,0.8l-0.2,0.3c0.4,0,2,0.2,2.7,0.2c0.3,0,0.3,0,0.4,0c0.3-0.1,2.1-1.6,2.8-2.2l0.2-2.4
						c0,0-0.1-0.2-0.2-0.3c-0.2-0.1-0.2-0.3-0.1-0.5c0.1-0.1,0.7-0.7,0.8-0.8l0.4,0.2l0.2,1l2.4-0.1c0.2,0,0.4,0,0.5,0.2
						c0.2,0.2,0.1,0.5,0.1,0.6l1.6,3c0,0.1-1.1,1.3-1.4,1.6c-0.2,0.2-0.4,0.3-0.6,0.4c-0.1,0.1-0.2,0.1-0.3,0.2
						c-0.3,0.2-2.7,1.8-3.2,2.1s-2.1,1.4-2.4,1.4c0,0-0.1,0-0.4,0c-0.8,0-3-0.1-3.9-0.2c-1.1-0.2-3-0.5-3.5-0.7
						c-0.2-0.1-0.5-0.1-0.9-0.1c-0.3,0-0.6-0.1-1-0.1c-0.7-0.1-2.2-0.7-2.2-0.7c-0.1,0.1-1.3,0.9-1.6,0.9c-0.3,0-1.3-0.6-1.5-0.7
						c0,0-3.3,0.5-3.7,0.6c-0.1,0-0.4,0.1-0.8,0.2c-0.7,0.2-1.8,0.5-2.8,0.7C437.4,67.5,435.3,67.6,434.4,67.6z"/>
					<path class="st16" d="M463.6,56.7l0.3,0.2l0.2,1c0,0,1.6,0,2,0c0.2,0,0.3,0,0.5,0s0.3,0,0.5,0.2c0.2,0.3,0.1,0.5,0.1,0.5
						l1.6,3.1c0,0-1,1.3-1.4,1.5c-0.3,0.3-0.7,0.3-0.9,0.5c-0.3,0.2-2.7,1.8-3.2,2.1s-2.1,1.4-2.4,1.4c0,0-0.2,0-0.4,0
						c-0.9,0-3-0.1-3.9-0.2c-1.1-0.2-3-0.5-3.5-0.7c-0.5-0.1-1.1-0.1-1.8-0.2c-0.7-0.1-2.2-0.7-2.2-0.7s-1.4,0.9-1.6,0.9l0,0
						c-0.2,0-1.4-0.7-1.4-0.7s-3.3,0.5-3.7,0.6c-0.4,0.1-2,0.6-3.6,0.9c-1.3,0.2-3.4,0.3-4.3,0.3c-0.2,0-0.4,0-0.5,0
						c-0.3-0.1-2.8-1.6-4.1-2.5c-1.3-0.8-1.9-1-2.7-1.5c-0.3-0.2-1-1.5-1.2-1.9c1-1.5,1.6-3.5,1.6-3.5h3l0.2-1.2
						c0.9,0.4,1,0.8,0.9,1c-0.1,0.3-0.2,0.5-0.2,1.5c0,0.9,0.3,1.6,0.5,1.7c0.2,0.1,2.6,1.9,2.7,1.9s3-0.2,3-0.2l-0.3-0.3
						c0,0,0.4-0.5,0.9-1.5c0.5-1.2,0.5-1.8,0.5-1.9c0.1-0.2,0.4-0.3,0.6-0.3h0.1c0.3,0.1,3.5,1.3,3.6,1.4c0.1,0.1,1.4,1.6,1.4,1.6
						h0.7c0,0,1.2-0.7,1.3-0.7c0.2,0,0.7,0.1,0.7,0.1l0.7-0.5l0.9,0.9h1.6c0,0,0.9-1.4,1-1.5c0.2-0.1,3.1-1.4,3.4-1.5h0.1
						c0.4,0,0.9,0.3,0.9,0.4c0,0.2,0.5,2.5,0.5,2.5l0.6,0.8l-0.2,0.3c0,0,1.9,0.2,2.8,0.2c0.2,0,0.3,0,0.4,0
						c0.3-0.1,2.8-2.2,2.8-2.2l0.2-2.5c0,0-0.1-0.2-0.3-0.4c-0.2-0.1-0.2-0.3-0.1-0.4C463,57.3,463.6,56.7,463.6,56.7 M463.6,56.6
						L463.6,56.6c-0.1,0.1-0.8,0.7-0.9,0.8c-0.1,0.2-0.1,0.4,0.1,0.6c0.1,0.1,0.2,0.2,0.2,0.3l-0.2,2.4c-1,0.8-2.5,2.1-2.7,2.1
						c0,0-0.1,0-0.3,0c-0.7,0-2.1-0.1-2.6-0.2l0.1-0.1v-0.1l-0.6-0.8c-0.2-1-0.5-2.4-0.5-2.5c0-0.2-0.7-0.5-1-0.5
						c-0.1,0-0.1,0-0.2,0c-0.3,0.1-3.3,1.4-3.5,1.5s-0.8,1-1,1.5H449l-0.8-0.9h-0.1c0,0,0,0-0.1,0l-0.7,0.4c-0.1,0-0.5-0.1-0.7-0.1
						s-1,0.5-1.4,0.7h-0.6c-0.3-0.3-1.2-1.5-1.4-1.6c-0.2-0.1-3.5-1.3-3.7-1.4c0,0-0.1,0-0.2,0c-0.3,0-0.7,0.2-0.8,0.4
						c0,0.1,0,0.1,0,0.2c0,0.3-0.1,0.8-0.5,1.7c-0.4,1-0.8,1.5-0.8,1.5s0,0.1,0,0.2l0.1,0.1c-1.1,0.1-2.5,0.2-2.7,0.2
						c-0.3-0.1-2.4-1.7-2.7-1.9c-0.1-0.1-0.4-0.7-0.5-1.6c0-0.7,0.1-1,0.2-1.3c0-0.1,0-0.1,0-0.2c0.1-0.4-0.2-0.8-1-1.2
						c0,0,0,0-0.1,0c0,0,0,0-0.1,0c0,0-0.1,0-0.1,0.1l-0.2,1.1h-2.9c-0.1,0-0.1,0-0.1,0.1c0,0-0.6,2-1.6,3.5v0.1
						c0.2,0.4,0.9,1.7,1.2,1.9c0.4,0.2,0.7,0.4,1,0.5c0.4,0.2,1,0.5,1.7,1c1.3,0.8,3.8,2.4,4.1,2.5c0,0,0.1,0,0.5,0
						c0.9,0,3-0.2,4.3-0.3c1.1-0.2,2.1-0.5,2.8-0.7c0.4-0.1,0.6-0.2,0.8-0.2c0.4,0,3.3-0.5,3.7-0.6c0.3,0.2,1.2,0.7,1.4,0.7l0,0
						c0.3,0,1.3-0.7,1.7-0.9c0.3,0.1,1.5,0.5,2.2,0.6c0.3,0.1,0.7,0.1,1,0.1s0.6,0.1,0.9,0.1c0.5,0.1,2.4,0.5,3.5,0.7
						c0.9,0.1,3.1,0.2,4,0.2c0.3,0,0.3,0,0.4,0c0.2-0.1,1.9-1.1,2.4-1.5c0.5-0.3,3-2,3.2-2.1c0.1-0.1,0.2-0.1,0.3-0.2
						c0.2-0.1,0.4-0.2,0.6-0.4c0.3-0.3,1.3-1.5,1.4-1.6v-0.1l-1.6-3c0-0.1,0.1-0.4-0.1-0.6c-0.2-0.2-0.4-0.2-0.6-0.2
						c-0.1,0-0.1,0-0.2,0s-0.2,0-0.2,0H464l-0.2-0.9v-0.1L463.6,56.6C463.7,56.6,463.7,56.6,463.6,56.6L463.6,56.6z"/>
				</g>
				<path class="st17" d="M451.1,61.6c0.2-0.1,3.8-2.1,4.1-2.3c0.3-0.2,0.4-0.3-0.1-0.2s-1.1,0.4-1.7,0.7s-1.5,0.7-1.7,0.8
					C451.6,60.7,451.3,61.1,451.1,61.6C450.9,61.6,451,61.6,451.1,61.6z"/>
				<path class="st17" d="M431.5,57.8c-0.1-0.2-0.6-0.5-0.8-0.6l-0.1,1C431.2,58.2,431.6,58.1,431.5,57.8z"/>
				<path class="st17" d="M428.2,58.5c-0.2,0-0.4,0.2,0,0.3c1.8,0.8,2.7,1.4,3.7,2.1c-0.1-0.3-0.3-0.8-0.3-1.4c0-0.6,0-0.9,0.1-1.1
					C431,58.4,428.4,58.5,428.2,58.5z"/>
				<path class="st17" d="M466.5,58.4c0.4-0.2,0.1-0.2-0.3-0.2c-0.3,0-2.3,0-3.1,0l0,0l-0.2,2.5c0,0-0.1,0-0.1,0.1
					c1.1-0.9,1.2-1.1,2-1.5C465.7,58.9,466.2,58.6,466.5,58.4z"/>
				<path class="st17" d="M439.4,59.2c0.2,0.2,2.3,1.3,3.5,1.9c0.7,0.3,1.3,0.4,1.5,0.5c-0.4-0.4-1-1.3-1.1-1.4
					c-0.1-0.1-2.8-1.1-3.5-1.3C439.4,58.8,439.2,59,439.4,59.2z"/>
				<path class="st17" d="M447.4,62.8c0,0.3,0.2,0.5,0.3,0.8c0.1,0.3,0.6,0.7,0,1.5c-0.2,0.1-0.5,0.3-0.7,0.3s-0.4,0-0.6,0.1
					s-0.8,0.2-1,0.3c-0.1,0-0.7,0.2-1.4,0.4c1-0.2,2-0.3,2-0.3s1.2,0.7,1.4,0.7c0.2,0,1.6-0.9,1.6-0.9s0,0,0.1,0
					c0.1-0.1,0.2-0.2,0.2-0.2c0.3-0.2,1-0.6,1.1-0.7s0.2-0.2,0.2-0.6s0.1-0.6-0.1-0.9c-0.2-0.3-1.9-1.8-1.9-1.8s0.4,0.5,1.6,1.9
					c0.2,0.2,0.1,0.6,0.1,0.7c0,0.2-0.2,0.2-0.4,0.1c-0.2-0.1-0.3,0-0.3,0s-0.1,0.3-0.2,0.5s-0.2,0.5-0.4,0.5
					c-0.1,0-0.2-0.1-0.4,0.1c-0.2,0.2-0.7,0.6-0.9,0.7c-0.2,0.1-0.4,0-0.6-0.2c0.6-0.2,0.7-0.3,0.8-0.4c0.1-0.1,0.3-0.4,0.4-0.5
					c0.2-0.1,0.1-0.6-0.1-0.9c-0.2-0.3-0.2-0.5-0.4-0.8c-0.2-0.3-0.3-1-0.5-1.3s-0.9-0.2-1.6-0.2l-0.3,0.1c0.5,0,1.2-0.1,1.5,0.1
					C447.2,61.9,447.4,62.5,447.4,62.8z"/>
				<path class="st17" d="M464.1,57.9l-0.2-0.9l0,0c-0.1,0.1-0.4,0.3-0.5,0.4C463.1,57.6,463.2,58,464.1,57.9z"/>
				<g>
					<path class="st18" d="M428.4,63.2l-0.3-0.2c-0.2-0.1-0.3-0.3-0.3-0.5l-0.1-0.8V61c0.2,0,0.4,0.1,0.5,0.1c0.2,0,0.3-0.1,0.4-0.2
						c0.1-0.1,0.1-0.2,0.1-0.3s-0.1-0.2-0.2-0.3c-0.1,0-0.2-0.1-0.2-0.1l-1,1.5c-0.1,0.2-0.3,0.4-0.2,0.5c0,0,0,0.1-0.1,0.1
						l-0.7-0.4v-0.1l0,0c0.2,0,0.3-0.2,0.4-0.3l0.9-1.3c0.1-0.2,0.3-0.4,0.2-0.5c0,0,0,0,0-0.1l0,0l0.8,0.5c0.2,0.2,0.4,0.3,0.4,0.5
						c0.1,0.2,0,0.4-0.1,0.6c-0.1,0.2-0.4,0.3-0.7,0.3c-0.1,0-0.2,0-0.3-0.1l0.1,0.9C428.3,62.6,428.4,62.9,428.4,63.2
						C428.5,63.2,428.5,63.2,428.4,63.2C428.5,63.3,428.5,63.3,428.4,63.2C428.5,63.3,428.4,63.3,428.4,63.2z"/>
					<path class="st16" d="M427.9,59.6l0.8,0.5c0.5,0.3,0.6,0.7,0.3,1c-0.1,0.2-0.4,0.3-0.6,0.3c-0.1,0-0.2,0-0.3-0.1l0.1,1
						c0,0.3,0.1,0.6,0.2,0.9l-0.3-0.2c-0.2-0.1-0.3-0.2-0.3-0.4l-0.1-0.8v-0.7c0.1,0.1,0.3,0.1,0.5,0.1s0.3-0.1,0.4-0.2
						c0.2-0.2,0.1-0.5-0.2-0.7c-0.1,0-0.2-0.1-0.3-0.1l-1,1.5c-0.1,0.2-0.3,0.4-0.2,0.6l0,0l-0.7-0.4l0,0c0,0,0,0,0.1,0
						c0.2,0,0.3-0.2,0.4-0.4l0.9-1.3C427.9,60,428.1,59.8,427.9,59.6L427.9,59.6 M427.9,59.5L427.9,59.5L427.9,59.5L427.9,59.5
						c-0.1,0.1-0.1,0.1-0.1,0.2c0.1,0.1,0,0.2-0.1,0.4v0.1l-0.9,1.3v0.1c-0.1,0.1-0.2,0.3-0.3,0.3l0,0l0,0h-0.1V62l0.7,0.4
						c0,0,0,0,0.1,0h0.1v-0.1c-0.1-0.1,0-0.2,0.1-0.4l0,0l0.4-0.6v0.6l0.1,0.8c0,0.2,0.1,0.4,0.3,0.5l0.3,0.2c0,0,0,0,0.1,0
						c0,0,0,0,0.1,0v-0.1c-0.1-0.3-0.2-0.6-0.2-0.8l-0.1-0.8c0.1,0,0.2,0,0.2,0c0.3,0,0.6-0.1,0.7-0.3s0.2-0.4,0.1-0.6
						c-0.1-0.2-0.2-0.4-0.5-0.6L427.9,59.5C428,59.5,428,59.5,427.9,59.5L427.9,59.5z M427.8,61l0.5-0.7c0.1,0,0.1,0.1,0.2,0.1
						c0.1,0.1,0.2,0.2,0.2,0.3s0,0.2-0.1,0.3s-0.2,0.2-0.4,0.2C428.1,61.1,428,61,427.8,61L427.8,61z"/>
				</g>
				<g>
					<path class="st18" d="M429.9,64.2l-1.5-0.9v-0.1l0,0c0.2,0,0.3-0.2,0.4-0.3l0.9-1.4c0.1-0.2,0.3-0.4,0.2-0.5c0,0,0-0.1,0.1-0.1
						l1.1,0.7c0.2,0.1,0.3,0.2,0.3,0.2v0.5h-0.1l0,0c0-0.1-0.4-0.4-0.5-0.5c-0.2-0.1-0.3-0.2-0.4-0.3l-0.4,0.6l0.4,0.2
						c0.1,0,0.1,0.1,0.1,0.1l-0.2,0.4h-0.1c0-0.1-0.1-0.2-0.2-0.2l-0.3-0.2l-0.5,0.8l0.4,0.3c0.2,0.1,0.4,0.2,0.6,0.2h0.1l0,0l0,0
						L429.9,64.2L429.9,64.2L429.9,64.2z"/>
					<path class="st16" d="M429.9,60.9l1.1,0.7c0.1,0,0.3,0.2,0.3,0.2l0,0l-0.1,0.5l0,0c0-0.2-0.5-0.4-0.7-0.5
						c-0.1-0.1-0.2-0.2-0.4-0.2l-0.4,0.6l0.4,0.3c0.1,0,0.1,0.1,0.2,0.1l0,0l-0.2,0.4l0,0c0-0.1-0.1-0.2-0.2-0.3l-0.3-0.2l-0.5,0.8
						l0.4,0.3c0.2,0.1,0.4,0.2,0.6,0.2h0.1l0,0l-0.4,0.4l-1.5-0.9l0,0c0,0,0,0,0.1,0c0.2,0,0.3-0.2,0.4-0.4l0.8-1.3
						C429.9,61.4,430.1,61.1,429.9,60.9L429.9,60.9 M429.9,60.8C429.9,60.8,429.9,60.9,429.9,60.8L429.9,60.8
						c-0.1,0.1-0.1,0.1-0.1,0.2c0.1,0.1,0,0.3-0.1,0.4l0,0l-0.8,1.3l0,0c-0.1,0.1-0.2,0.3-0.3,0.3l0,0l0,0h-0.1v0.1v0.1l1.5,0.9
						c0,0,0,0,0.1,0c0,0,0,0,0.1,0l0.4-0.4c0,0,0,0,0-0.1s0-0.1,0-0.1s0,0-0.1,0l0,0h-0.1c-0.2,0-0.4-0.1-0.6-0.2l-0.3-0.3l0.4-0.7
						l0.2,0.1c0.1,0.1,0.2,0.1,0.2,0.2v0.1c0,0,0,0,0.1,0h0.1l0.2-0.4v-0.1c0,0,0,0-0.1,0c0,0-0.1,0-0.1-0.1l-0.3-0.2l0.3-0.5
						c0.1,0,0.2,0.1,0.3,0.2l0.1,0.1c0.1,0.1,0.5,0.3,0.5,0.4v0.1c0,0,0,0,0.1,0l0,0c0,0,0.1,0,0.1-0.1l0.1-0.5v-0.1c0,0,0,0-0.1,0
						c0,0-0.1,0-0.3-0.2L429.9,60.8C430,60.8,429.9,60.8,429.9,60.8L429.9,60.8z"/>
				</g>
				<g>
					<path class="st18" d="M430.2,64.4C430.2,64.4,430.2,64.3,430.2,64.4C430.2,64.3,430.2,64.3,430.2,64.4c0.2-0.1,0.3-0.3,0.4-0.4
						l0.8-1.4c0.1-0.2,0.2-0.4,0.1-0.5V62l0,0l0.9,0.5c0.2,0.1,0.4,0.3,0.5,0.5s0.1,0.4,0,0.6c-0.1,0.2-0.4,0.4-0.7,0.4
						c-0.2,0-0.4-0.1-0.6-0.2c-0.1,0-0.2-0.1-0.2-0.2c0.2,0,0.3,0,0.5,0s0.4,0,0.5-0.3c0.2-0.3,0-0.5-0.2-0.7
						c-0.1,0-0.2-0.1-0.3-0.1l-0.9,1.6c-0.1,0.2-0.2,0.3-0.1,0.5c0,0,0,0.1-0.1,0.1C430.9,64.8,430.2,64.4,430.2,64.4z"/>
					<path class="st16" d="M431.6,62l0.9,0.5c0.5,0.3,0.7,0.7,0.4,1.1c-0.1,0.2-0.4,0.4-0.6,0.4s-0.4-0.1-0.5-0.1
						c-0.1-0.1-0.2-0.1-0.2-0.2c0.1,0.1,0.3,0.1,0.4,0.1c0.2,0,0.4-0.1,0.5-0.3c0.2-0.3,0-0.6-0.2-0.7c-0.1-0.1-0.2-0.1-0.3-0.1
						l-1,1.6c-0.1,0.2-0.2,0.3-0.1,0.6l0,0l-0.7-0.4l0,0l0,0c0.2,0,0.3-0.2,0.4-0.4l0.8-1.3C431.5,62.5,431.7,62.2,431.6,62
						L431.6,62 M431.6,61.9L431.6,61.9C431.5,62,431.5,62,431.6,61.9L431.6,61.9c-0.1,0.1-0.1,0.1-0.1,0.2c0.1,0.1,0,0.3-0.1,0.4
						l0,0l-0.8,1.3l0,0c-0.1,0.1-0.2,0.3-0.3,0.3l0,0l0,0h-0.1v0.1v0.1l0.7,0.4l0,0h0.1v-0.1c-0.1-0.2,0-0.3,0.1-0.5l0.3-0.6l0,0
						c0.1,0.1,0.2,0.2,0.3,0.2c0.2,0.1,0.4,0.2,0.6,0.2c0.3,0,0.6-0.1,0.7-0.4c0.2-0.4,0.1-0.9-0.5-1.2L431.6,61.9
						C431.6,62,431.6,61.9,431.6,61.9L431.6,61.9z M431.5,63.6l0.5-0.8c0.1,0,0.1,0.1,0.2,0.1c0.2,0.1,0.4,0.3,0.2,0.6
						c-0.1,0.2-0.3,0.2-0.4,0.2C431.8,63.7,431.6,63.6,431.5,63.6L431.5,63.6L431.5,63.6z"/>
				</g>
				<g>
					<path class="st18" d="M433.3,66.3L433.3,66.3L433.3,66.3L433.3,66.3c-0.3-0.3-0.3-0.4-0.3-0.7v-1.8c0-0.3,0-0.5-0.1-0.6
						c0,0,0-0.1,0.1-0.1l0.6,0.2l0,0c0,0,0,0,0,0.1s0,0.2,0,0.3l-0.1,2l1-1.2c0.3-0.3,0.4-0.5,0.3-0.6c0,0,0-0.1,0.1-0.1l0.6,0.2
						L433.3,66.3C433.4,66.3,433.3,66.3,433.3,66.3L433.3,66.3z"/>
					<path class="st16" d="M433,63l0.6,0.2l0,0c0,0.1,0,0.3,0,0.4l-0.1,1.9l1.1-1.2c0.2-0.2,0.5-0.5,0.3-0.7l0,0l0.6,0.2l-2.1,2.2
						c-0.2-0.3-0.3-0.3-0.3-0.7v-1.8C433.1,63.5,433.2,63.2,433,63L433,63 M433,62.9C433,62.9,433,63,433,62.9L433,62.9
						c-0.1,0.1-0.1,0.1-0.1,0.2c0.1,0.1,0.1,0.3,0.1,0.5v0.1v1.8c0,0.3,0.1,0.4,0.2,0.7l0.1,0.1c0,0,0,0,0.1,0l0,0h0.1l2.1-2.2V64
						c0,0,0-0.1-0.1-0.1l-0.6-0.2l0,0c0,0-0.1,0-0.1,0.1v0.1c0.1,0.1,0,0.3-0.2,0.5l0,0l-0.9,1v-1.7v-0.1c0-0.1,0-0.2,0-0.3l0,0
						v-0.1c0,0,0,0-0.1-0.1L433,62.9C433.1,62.9,433.1,62.9,433,62.9L433,62.9z"/>
				</g>
				<g>
					<path class="st18" d="M435.5,66.7C435.5,66.7,435.5,66.6,435.5,66.7L435.5,66.7c0.1-0.2,0.1-0.4,0.1-0.6l-0.1-1.6
						c0-0.2,0-0.5-0.2-0.5v-0.1h1c0.6,0,0.9,0.2,0.9,0.6c0,0.3-0.1,0.5-0.4,0.6l0,0c0.4,0,0.7,0.3,0.7,0.7c0,0.3-0.2,0.6-0.5,0.8
						c-0.3,0.1-0.6,0.2-0.9,0.2L435.5,66.7z M436.4,65.3h-0.3l0.1,1h0.3c0.2,0,0.4-0.1,0.5-0.2s0.1-0.2,0.1-0.3
						C437.1,65.4,436.8,65.3,436.4,65.3L436.4,65.3L436.4,65.3z M436.4,64.2h-0.3l0.1,0.8h0.1c0.1,0,0.4,0,0.5-0.2
						c0.1-0.1,0.1-0.1,0.1-0.2C436.8,64.3,436.6,64.2,436.4,64.2L436.4,64.2L436.4,64.2z"/>
					<path class="st16" d="M436.5,63.9c0.5,0,0.8,0.2,0.8,0.6c0,0.3-0.2,0.4-0.4,0.6c0.4,0.1,0.7,0.3,0.7,0.7c0,0.3-0.2,0.6-0.5,0.7
						s-0.6,0.1-0.9,0.2h-0.7l0,0c0.2-0.1,0.2-0.4,0.2-0.6l-0.1-1.6c0-0.2,0-0.5-0.2-0.6l0,0L436.5,63.9L436.5,63.9 M436.1,65h0.1
						c0.3,0,0.6-0.1,0.6-0.4s-0.2-0.4-0.5-0.4c0,0,0,0-0.1,0h-0.3L436.1,65 M436.6,66.3c0.3,0,0.6-0.2,0.6-0.5
						c0-0.4-0.3-0.5-0.7-0.5h-0.1h-0.3v1H436.6C436.5,66.3,436.5,66.3,436.6,66.3 M436.5,63.8L436.5,63.8L436.5,63.8h-1
						c-0.1,0-0.1,0-0.1,0.1c0,0,0,0.1,0.1,0.1s0.1,0.2,0.1,0.4v0.1l0.1,1.6v0.1c0,0.2,0,0.4-0.1,0.4l-0.1,0.1c0,0.1,0,0.1,0.1,0.1
						l0,0h0.7h0.1c0.3,0,0.6,0,0.9-0.2s0.5-0.5,0.5-0.8s-0.2-0.6-0.6-0.7c0.2-0.1,0.3-0.3,0.3-0.5C437.4,64,437,63.8,436.5,63.8
						L436.5,63.8z M436.2,64.2h0.2c0,0,0,0,0.1,0c0.2,0,0.4,0.1,0.4,0.3c0,0.1,0,0.1-0.1,0.2s-0.3,0.2-0.5,0.2l0,0L436.2,64.2
						L436.2,64.2z M436.2,65.3h0.2h0.1c0.3,0,0.6,0.1,0.6,0.4c0,0.1,0,0.2-0.1,0.3c-0.1,0.1-0.2,0.1-0.4,0.1c0,0,0,0-0.1,0h-0.3
						L436.2,65.3L436.2,65.3z"/>
				</g>
				<g>
					<path class="st18" d="M437.7,66.5L437.7,66.5L437.7,66.5L437.7,66.5c0.1-0.2,0.1-0.4,0.1-0.6l-0.2-1.6c0-0.2,0-0.5-0.2-0.5
						v-0.1l1-0.1c0.1,0,0.1,0,0.2,0c0.5,0,0.8,0.2,0.8,0.6c0,0.3-0.1,0.5-0.4,0.6h0.1c0.4,0,0.6,0.3,0.7,0.6c0,0.3-0.1,0.6-0.4,0.8
						c-0.3,0.2-0.6,0.2-0.9,0.2C438.5,66.4,437.8,66.5,437.7,66.5z M438.7,65.1h-0.1h-0.3l0.1,1h0.3c0.2,0,0.4-0.1,0.5-0.2
						s0.1-0.2,0.1-0.3C439.2,65.2,438.9,65.1,438.7,65.1z M438.5,64C438.5,64,438.4,64,438.5,64l-0.4,0.1l0.1,0.8l0.1-0.1
						c0.1,0,0.4,0,0.5-0.2c0.1-0.1,0.1-0.1,0.1-0.2C438.9,64.1,438.7,64,438.5,64z"/>
					<path class="st16" d="M438.6,63.7c0.4,0,0.7,0.2,0.8,0.5c0,0.3-0.1,0.4-0.4,0.6c0.4,0,0.7,0.3,0.7,0.7c0,0.3-0.2,0.6-0.4,0.8
						c-0.3,0.2-0.6,0.2-0.9,0.2l-0.7,0.1l0,0c0.2-0.1,0.1-0.4,0.1-0.6l-0.2-1.6c0-0.2,0-0.5-0.2-0.5l0,0l1-0.1
						C438.5,63.7,438.6,63.7,438.6,63.7 M438.2,64.8h0.1c0.3,0,0.6-0.2,0.6-0.5c0-0.2-0.2-0.4-0.4-0.4h-0.1l-0.3,0.1L438.2,64.8
						 M438.3,66.1h0.4c0.3,0,0.7-0.2,0.6-0.6c0-0.3-0.3-0.5-0.6-0.5c-0.1,0-0.1,0-0.2,0h-0.3L438.3,66.1 M438.6,63.6
						c-0.1,0-0.1,0-0.2,0l-1,0.1c0,0-0.1,0-0.1,0.1c0,0,0,0.1,0.1,0.1s0.1,0.2,0.2,0.4v0.1l0.2,1.6v0.1c0,0.2,0,0.4-0.1,0.4
						l-0.1,0.1c0,0,0,0.1,0.1,0.1l0,0l0.7-0.1h0.1c0.3,0,0.6-0.1,0.9-0.2c0.3-0.2,0.5-0.5,0.5-0.9c0-0.3-0.3-0.6-0.6-0.7
						c0.2-0.1,0.2-0.3,0.2-0.5C439.4,63.8,439.1,63.6,438.6,63.6L438.6,63.6z M438.2,64.1h0.2h0.1c0.2,0,0.3,0.1,0.3,0.3
						c0,0.1,0,0.1-0.1,0.2s-0.3,0.2-0.5,0.2l0,0V64.1L438.2,64.1z M438.3,65.1h0.2h0.1c0.2,0,0.5,0.1,0.6,0.4c0,0.1,0,0.2-0.1,0.3
						c-0.1,0.1-0.3,0.2-0.4,0.2h-0.3L438.3,65.1L438.3,65.1z"/>
				</g>
				<g>
					<path class="st18" d="M440,66.1C439.9,66.1,439.9,66.1,440,66.1L440,66.1c0.1-0.2,0.1-0.4,0.1-0.6l-0.3-1.6
						c0-0.2-0.1-0.5-0.2-0.5c0,0,0,0,0-0.1l0,0l0.8-0.1c0,0,0.1,0.1,0,0.1c-0.1,0.1-0.1,0.3-0.1,0.5l0.3,1.8l0.5-0.1
						c0.3,0,0.5-0.1,0.7-0.3l0,0l0,0l0,0l-0.1,0.6C441.7,65.8,440,66.1,440,66.1z"/>
					<path class="st16" d="M440.3,63.2L440.3,63.2c-0.2,0.1-0.1,0.4-0.1,0.6l0.3,1.8l0.6-0.1c0.3,0,0.5-0.2,0.7-0.4l0,0l-0.1,0.6
						L440,66l0,0c0.2-0.1,0.1-0.4,0.1-0.6l-0.2-1.5c0-0.2-0.1-0.5-0.3-0.5l0,0L440.3,63.2 M440.3,63.2L440.3,63.2l-0.8,0.1l-0.1,0.1
						c0,0,0,0.1,0.1,0.1s0.2,0.2,0.2,0.4V64l0.2,1.5l0,0c0,0.2,0.1,0.4-0.1,0.4c0,0-0.1,0.1,0,0.1l0.1,0.1l0,0l1.7-0.3
						c0,0,0.1,0,0.1-0.1l0.1-0.6V65c0,0,0,0-0.1,0l0,0h-0.1c-0.2,0.2-0.4,0.3-0.6,0.3h-0.5l-0.3-1.7v-0.1
						C440.2,63.3,440.1,63.1,440.3,63.2C440.4,63.3,440.4,63.3,440.3,63.2C440.4,63.2,440.4,63.2,440.3,63.2L440.3,63.2z"/>
				</g>
				<g>
					<path class="st18" d="M442,65.7C442,65.7,441.9,65.7,442,65.7L442,65.7c0.1-0.2,0.1-0.4,0-0.6l-0.3-1.6c0-0.2-0.1-0.5-0.2-0.5
						v-0.1l0.8-0.1v0.1c-0.1,0.1-0.1,0.3-0.1,0.5l0.3,1.6c0,0.2,0.1,0.5,0.2,0.5v0.1C442.8,65.6,442,65.7,442,65.7z"/>
					<path class="st16" d="M442.3,62.9L442.3,62.9c-0.2,0.1-0.1,0.4-0.1,0.6l0.2,1.5c0,0.2,0.1,0.5,0.3,0.5l0,0l-0.8,0.1l0,0
						c0.2-0.1,0.1-0.4,0.1-0.6l-0.2-1.5c0-0.2,0-0.5-0.3-0.5l0,0L442.3,62.9 M442.3,62.8L442.3,62.8l-0.8,0.1l-0.1,0.1
						c0,0,0,0.1,0.1,0.1s0.2,0.2,0.2,0.4v0.1l0.2,1.5v0.1c0,0.2,0.1,0.4-0.1,0.4c0,0-0.1,0.1,0,0.1l0.1,0.1l0,0l0.8-0.1l0.1-0.1
						c0,0,0-0.1-0.1-0.1s-0.2-0.2-0.2-0.4V65l-0.2-1.5v-0.1c0-0.2-0.1-0.4,0.1-0.4C442.4,62.9,442.4,62.9,442.3,62.8
						C442.4,62.8,442.4,62.8,442.3,62.8L442.3,62.8z"/>
				</g>
				<g>
					<path class="st18" d="M444.1,65.3c-0.8,0-1.3-0.5-1.5-1.2c-0.1-0.4,0-0.8,0.2-1.1s0.6-0.5,1-0.6c0.1,0,0.3,0,0.4,0s0.2,0,0.3,0
						l0.1,0.5c-0.3,0-0.5-0.1-0.6-0.1s-0.1,0-0.2,0c-0.5,0.1-0.8,0.5-0.8,1.1c0.1,0.5,0.5,0.9,1,0.9c0.1,0,0.1,0,0.2,0
						c0.3-0.1,0.6-0.2,0.8-0.4V65c-0.2,0.1-0.4,0.2-0.6,0.3C444.3,65.3,444.2,65.3,444.1,65.3z"/>
					<path class="st16" d="M444.3,62.4c0.1,0,0.2,0,0.3,0l0.1,0.5c-0.2-0.1-0.4-0.1-0.6-0.1c-0.1,0-0.1,0-0.2,0
						c-0.6,0.1-0.9,0.6-0.8,1.2c0.1,0.5,0.5,1,1,1c0.1,0,0.1,0,0.2,0c0.3,0,0.6-0.2,0.8-0.4l0,0L445,65c-0.2,0.1-0.4,0.2-0.6,0.2
						c-0.1,0-0.2,0-0.4,0c-0.8,0-1.3-0.4-1.4-1.2s0.4-1.5,1.2-1.6C444,62.4,444.1,62.4,444.3,62.4 M444.3,62.3c-0.2,0-0.3,0-0.4,0
						c-0.4,0.1-0.8,0.3-1,0.6s-0.3,0.7-0.3,1.2c0.1,0.8,0.7,1.3,1.5,1.3c0.1,0,0.2,0,0.4,0c0.2,0,0.5-0.1,0.6-0.2c0,0,0,0,0-0.1
						l0.1-0.5v-0.1c0,0,0,0-0.1,0l0,0c0,0,0,0-0.1,0c-0.2,0.1-0.5,0.3-0.8,0.4c-0.1,0-0.1,0-0.2,0c-0.5,0-0.9-0.4-1-0.9s0.2-1,0.7-1
						c0.1,0,0.1,0,0.2,0c0.2,0,0.4,0,0.6,0.1l0,0c0,0,0,0,0.1,0V63l-0.1-0.5c0,0,0-0.1-0.1-0.1C444.5,62.3,444.4,62.3,444.3,62.3
						L444.3,62.3z"/>
				</g>
				<g>
					<path class="st18" d="M445.2,65.2L445.2,65.2L445.2,65.2c0.2-0.2,0.2-0.4,0.2-0.7l0.4-1.9c0-0.1,0-0.2,0-0.3c0,0,0,0-0.1,0
						v-0.1l0.6-0.1l1.2,2c0.1,0.2,0.3,0.4,0.5,0.5v0.1l-0.8,0.1c0,0-0.1-0.1,0-0.1c0.1-0.1,0.1-0.1,0-0.3l-0.3-0.6l-1,0.2l-0.1,0.6
						c0,0.3,0,0.3,0.1,0.4c0,0,0,0,0,0.1l0,0C446,65.1,445.2,65.2,445.2,65.2z M446.1,63.7l0.8-0.2l-0.5-0.8L446.1,63.7z"/>
					<path class="st16" d="M446.5,62.2l1.2,2c0.1,0.2,0.2,0.4,0.5,0.5l0,0l-0.8,0.1l0,0c0.2-0.1,0.1-0.2,0-0.4l-0.3-0.5l-1,0.2
						l-0.1,0.6c0,0.2-0.1,0.4,0.1,0.4l0,0l-0.8,0.1l0,0c0.2-0.2,0.3-0.4,0.3-0.6l0.4-1.8c0-0.2,0.1-0.3-0.1-0.4l0,0L446.5,62.2
						 M446,63.7l0.8-0.1l-0.6-1L446,63.7 M446.5,62.1L446.5,62.1l-0.7,0.1c-0.1,0-0.1,0.1-0.1,0.1s0,0.1,0.1,0.1c0,0,0,0,0.1,0
						c0,0,0,0.1,0,0.2l-0.4,1.8v0.1c0,0.2-0.1,0.4-0.3,0.5v0.1l0.1,0.1l0,0l0.8-0.1c0,0,0,0,0.1,0c0,0,0,0,0-0.1c0,0,0-0.1-0.1-0.1
						s-0.1,0-0.1-0.1c0,0,0-0.1,0-0.2l0.1-0.5L447,64l0.3,0.5l0,0c0.1,0.2,0.1,0.2,0,0.3v0.1l0.1,0.1l0,0l0.8-0.1l0.1-0.1
						c0,0,0-0.1-0.1-0.1c-0.2-0.1-0.3-0.2-0.4-0.4v-0.1L446.5,62.1L446.5,62.1L446.5,62.1z M446.1,63.6l0.2-0.7l0.4,0.6L446.1,63.6
						L446.1,63.6z"/>
				</g>
				<g>
					<path class="st18" d="M450.9,65.3L450.9,65.3c0.2-0.1,0.2-0.4,0.2-0.5l0.3-1.6c0-0.2,0.1-0.5-0.1-0.5v-0.1l0,0l0.8,0.1v0.1
						c-0.2,0-0.2,0.3-0.2,0.4l-0.3,1.6c0,0.2-0.1,0.5,0.1,0.5v0.1l0,0C451.6,65.4,450.9,65.3,450.9,65.3z"/>
					<path class="st16" d="M451.3,62.5l0.8,0.1l0,0c-0.2,0-0.2,0.4-0.3,0.5l-0.2,1.5c0,0.2-0.1,0.5,0.1,0.6l0,0l-0.8-0.1l0,0
						c0.2,0,0.2-0.3,0.3-0.5l0.2-1.5C451.4,63,451.5,62.7,451.3,62.5L451.3,62.5 M451.3,62.4L451.3,62.4
						C451.2,62.5,451.2,62.5,451.3,62.4L451.3,62.4c-0.1,0.1-0.1,0.2,0,0.2c0.1,0.1,0.1,0.2,0.1,0.4v0.1l-0.2,1.5v0.1
						c0,0.2-0.1,0.4-0.2,0.4c0,0-0.1,0-0.1,0.1c0,0,0,0.1,0.1,0.1l0.8,0.1l0,0c0,0,0,0,0.1,0c0,0,0,0,0-0.1v-0.1
						c-0.1-0.1-0.1-0.2-0.1-0.4v-0.1l0.2-1.5v-0.1c0-0.2,0.1-0.4,0.2-0.4c0,0,0.1,0,0.1-0.1c0,0,0-0.1-0.1-0.1L451.3,62.4
						L451.3,62.4L451.3,62.4z"/>
				</g>
				<g>
					<path class="st18" d="M452.7,65.6L452.7,65.6c0.2-0.1,0.2-0.4,0.2-0.5l0.2-1.9h-0.3h-0.1c-0.1,0-0.2,0-0.4,0.1h-0.1l0,0
						l0.2-0.5c0,0,0,0,0.1,0s0.1,0,0.1,0l1.7,0.2h0.2l-0.1,0.5c0,0,0,0-0.1,0l0,0c0-0.1-0.1-0.1-0.3-0.2h-0.4l-0.2,1.8
						c0,0.2,0,0.4,0.1,0.5v0.1l0,0L452.7,65.6z"/>
					<path class="st16" d="M452.5,62.8L452.5,62.8c0.1,0,0.1,0,0.2,0l1.6,0.2h0.1h0.1l0,0l-0.2,0.5l0,0c0-0.2-0.2-0.2-0.3-0.2h-0.4
						l-0.2,1.9c0,0.2-0.1,0.4,0.1,0.5l0,0l-0.8-0.1l0,0c0.2-0.1,0.2-0.4,0.3-0.5l0.2-1.8h-0.4h-0.1c-0.1,0-0.3,0-0.4,0.1l0,0
						L452.5,62.8 M452.6,62.7C452.5,62.7,452.5,62.7,452.6,62.7l-0.3,0.5v0.1c0,0,0,0,0.1,0l0,0c0,0,0,0,0.1,0
						c0.1-0.1,0.2-0.1,0.3-0.1h0.1h0.3l-0.2,1.7V65c0,0.2-0.1,0.4-0.2,0.4c0,0-0.1,0-0.1,0.1c0,0,0,0.1,0.1,0.1l0.8,0.1l0,0
						c0,0,0,0,0.1,0c0,0,0,0,0-0.1v-0.1c-0.1-0.1-0.1-0.2-0.1-0.5l0.2-1.8h0.3c0.2,0,0.2,0.1,0.3,0.1c0,0,0,0.1,0.1,0.1l0,0
						c0,0,0.1,0,0.1-0.1l0.2-0.5v-0.1c0,0,0,0-0.1,0l0,0l0,0c0,0,0,0-0.1,0h-0.1l-1.6-0.2l0,0C452.7,62.7,452.6,62.7,452.6,62.7
						L452.6,62.7L452.6,62.7L452.6,62.7z"/>
				</g>
				<g>
					<path class="st18" d="M456.2,66.2L456.2,66.2c0.2-0.1,0.2-0.2,0.1-0.4l-0.2-0.7l-1-0.1l-0.2,0.5c-0.1,0.1-0.1,0.2-0.1,0.3
						c0,0,0,0.1,0.1,0.1V66l-0.8-0.1v-0.1c0.2-0.1,0.3-0.3,0.4-0.5l0.9-1.7c0.1-0.1,0.1-0.2,0.1-0.3c0,0,0-0.1-0.1-0.1v-0.1l0.6,0.1
						l0.6,2.2c0.1,0.3,0.1,0.5,0.3,0.6v0.1l0,0L456.2,66.2z M455.3,64.8h0.8l-0.3-0.9L455.3,64.8z"/>
					<path class="st16" d="M455.4,63.4l0.6,0.1l0.6,2.2c0.1,0.2,0.1,0.5,0.3,0.6l0,0l-0.8-0.1l0,0c0.2-0.1,0.2-0.1,0.1-0.4l-0.1-0.6
						l-1-0.1l-0.3,0.6c-0.1,0.2-0.2,0.3,0,0.4l0,0L454,66l0,0c0.3-0.1,0.4-0.3,0.5-0.5l0.9-1.6C455.5,63.6,455.6,63.5,455.4,63.4
						L455.4,63.4 M456,64.8l-0.3-1.1l-0.5,1L456,64.8 M455.4,63.3L455.4,63.3L455.4,63.3c-0.1,0.1-0.1,0.2,0,0.2c0,0,0,0,0.1,0
						c0,0,0,0.1-0.1,0.2l0,0l-0.9,1.6v0.1c-0.1,0.2-0.2,0.4-0.4,0.4c0,0-0.1,0-0.1,0.1s0,0.1,0.1,0.1l0.8,0.1l0,0c0,0,0,0,0.1,0
						c0,0,0,0,0-0.1v-0.1c-0.1,0-0.1-0.1,0-0.3l0.3-0.5l0.9,0.1l0.1,0.5v0.1c0,0.1,0,0.2,0,0.2s0,0-0.1,0c0,0-0.1,0-0.1,0.1v0.1
						c0,0,0,0,0.1,0l0.8,0.1l0,0c0,0,0,0,0.1,0c0,0,0,0,0-0.1v-0.1c-0.2-0.1-0.2-0.3-0.3-0.5v-0.1l-0.6-2.2c0,0,0-0.1-0.1-0.1
						L455.4,63.3C455.5,63.3,455.4,63.3,455.4,63.3L455.4,63.3z M455.4,64.7l0.4-0.6l0.2,0.7L455.4,64.7L455.4,64.7z"/>
				</g>
				<g>
					<path class="st18" d="M457.2,66.4L457.2,66.4c0.2-0.1,0.2-0.4,0.2-0.6l0.1-1.6c0-0.2,0-0.5-0.1-0.5v-0.1l0,0h0.8v0.1
						c-0.2,0-0.2,0.3-0.2,0.5l-0.1,1.9h0.6c0.2,0,0.4-0.1,0.6-0.2h0.1l0,0l-0.2,0.5l0,0C458.9,66.5,457.2,66.4,457.2,66.4z"/>
					<path class="st16" d="M457.4,63.6h0.8l0,0c-0.2,0.1-0.2,0.4-0.2,0.6l-0.1,1.8l0.6,0.1h0.1c0.2,0,0.4-0.1,0.6-0.2l0,0l-0.2,0.5
						l-1.7-0.1l0,0c0.2-0.1,0.2-0.4,0.2-0.6l0.1-1.6C457.5,64,457.6,63.7,457.4,63.6L457.4,63.6 M457.4,63.5
						C457.4,63.5,457.3,63.5,457.4,63.5C457.3,63.6,457.3,63.6,457.4,63.5l-0.1,0.1c0,0,0,0.1,0.1,0.1c0.1,0.1,0.1,0.2,0.1,0.4v0.1
						l-0.1,1.6v0.1c0,0.2,0,0.4-0.1,0.4c0,0-0.1,0-0.1,0.1c0,0,0,0.1,0.1,0.1l1.7,0.1l0,0c0,0,0.1,0,0.1-0.1l0.2-0.5v-0.1
						c0,0,0,0-0.1,0l0,0h-0.1c-0.2,0.1-0.4,0.2-0.6,0.2h-0.1l-0.5-0.1l0.1-1.7v-0.1c0-0.2,0-0.4,0.1-0.4c0,0,0.1,0,0.1-0.1
						s0-0.1-0.1-0.1L457.4,63.5L457.4,63.5L457.4,63.5z"/>
				</g>
				<g>
					<path class="st18" d="M459.5,66.5L459.5,66.5c0.2-0.2,0.2-0.4,0.2-0.6v-1.6c0-0.2,0-0.5-0.1-0.5v-0.1l0,0h0.8v0.1
						c-0.2,0.1-0.2,0.3-0.2,0.5v1.6c0,0.2,0,0.5,0.2,0.5v0.1l0,0H459.5z"/>
					<path class="st16" d="M459.6,63.7h0.8l0,0c-0.2,0.1-0.2,0.4-0.2,0.6v1.6c0,0.2,0,0.5,0.2,0.6l0,0h-0.8l0,0
						c0.2-0.1,0.2-0.4,0.2-0.6v-1.6C459.7,64.1,459.8,63.8,459.6,63.7L459.6,63.7 M459.6,63.6C459.5,63.6,459.5,63.6,459.6,63.6
						C459.5,63.7,459.5,63.7,459.6,63.6l-0.1,0.1c0,0,0,0.1,0.1,0.1s0.1,0.2,0.1,0.4v0.1v1.6V66c0,0.2,0,0.4-0.1,0.4
						c0,0-0.1,0-0.1,0.1s0,0.1,0.1,0.1h0.8l0,0c0,0,0,0,0.1,0c0,0,0,0,0-0.1c0,0,0-0.1-0.1-0.1s-0.1-0.2-0.1-0.4v-0.1v-1.6v-0.1
						c0-0.2,0-0.4,0.1-0.4c0,0,0.1,0,0.1-0.1s0-0.1-0.1-0.1H459.6L459.6,63.6L459.6,63.6z"/>
				</g>
				<g>
					<path class="st18" d="M461.2,66.5L461.2,66.5L461.2,66.5c0.1-0.3,0-0.5,0-0.7l-0.4-1.9c0-0.2-0.1-0.3-0.2-0.3c0,0,0,0-0.1,0
						c0,0,0,0-0.1,0l0.5-0.4l2,1.3c0.2,0.1,0.4,0.3,0.6,0.3l0,0h0.1l-0.7,0.6l-0.1-0.1c0.1-0.1,0.1-0.1-0.1-0.3l-0.6-0.4l-0.8,0.6
						l0.2,0.6c0.1,0.2,0.1,0.3,0.2,0.3l0,0h0.1L461.2,66.5L461.2,66.5L461.2,66.5z M461.3,64.8l0.6-0.5l-0.8-0.5L461.3,64.8z"/>
					<path class="st16" d="M461.1,63.3l1.9,1.3c0.2,0.1,0.4,0.3,0.6,0.3c0,0,0,0,0.1,0l0,0l-0.7,0.5l0,0c0.1-0.2,0.1-0.2-0.2-0.4
						l-0.5-0.4l-0.9,0.6l0.2,0.6c0.1,0.2,0.1,0.3,0.2,0.3h0.1l0,0l-0.6,0.4l0,0c0.1-0.2,0.1-0.5,0-0.7l-0.4-1.8
						c0-0.1-0.1-0.3-0.2-0.3c0,0,0,0-0.1,0l0,0L461.1,63.3 M461.3,64.8l0.7-0.5l-0.9-0.6L461.3,64.8 M461.1,63.2
						C461,63.2,461,63.2,461.1,63.2l-0.6,0.4c0,0,0,0,0,0.1v0.1h0.1l0,0l0,0c0,0,0.1,0.1,0.1,0.2l0,0l0.4,1.8v0.1
						c0.1,0.2,0.1,0.4,0,0.6v0.1c0,0,0,0,0.1,0l0,0l0,0l0.6-0.4c0,0,0.1-0.1,0-0.1l-0.1-0.1l0,0c0,0,0,0-0.1,0s-0.1,0-0.1-0.2
						l-0.1-0.5l0.8-0.5l0.5,0.3l0,0c0.2,0.1,0.2,0.1,0.1,0.2v0.1h0.1l0,0l0.7-0.5c0,0,0.1-0.1,0-0.1l-0.1-0.1l0,0c0,0,0,0-0.1,0
						c-0.2,0-0.3-0.1-0.5-0.2h-0.1L461.1,63.2L461.1,63.2L461.1,63.2z M461.3,64.7l-0.2-0.7l0.6,0.4L461.3,64.7L461.3,64.7z"/>
				</g>
				<g>
					<path class="st18" d="M463.7,64.8L463.7,64.8L463.7,64.8c0-0.3,0-0.4-0.2-0.6l-1-1.3c-0.1-0.2-0.2-0.3-0.4-0.3l0,0H462l0.5-0.4
						c0.1,0,0.1,0,0.2,0h0.1l2.3,0.6l-1-1.2c-0.1-0.2-0.2-0.3-0.4-0.3l0,0h-0.1l0.6-0.5l0.1,0.1c-0.1,0.2,0,0.3,0.1,0.5l1.4,1.9
						c-0.2,0.1-0.3,0.1-0.4,0.1s-0.3,0-0.4-0.1l-2.2-0.6l1,1.2c0.1,0.2,0.2,0.3,0.4,0.3l0,0h0.1L463.7,64.8L463.7,64.8L463.7,64.8z"
						/>
					<path class="st16" d="M464.3,61L464.3,61c-0.1,0.2,0,0.4,0.1,0.6l1.4,1.9c-0.1,0-0.2,0.1-0.3,0.1c-0.1,0-0.3,0-0.4-0.1
						l-2.2-0.6l1,1.3c0.1,0.2,0.2,0.3,0.4,0.3c0,0,0,0,0.1,0l0,0l-0.6,0.4l0,0c0.1-0.2,0-0.4-0.1-0.6l-1-1.3
						c-0.1-0.2-0.2-0.3-0.4-0.3c0,0,0,0-0.1,0l0,0l0.5-0.4l0,0h0.1h0.1l2.4,0.6l-0.9-1.3c-0.1-0.2-0.2-0.3-0.4-0.3c0,0,0,0-0.1,0
						l0,0L464.3,61 M464.3,60.9L464.3,60.9l-0.6,0.4c0,0-0.1,0.1,0,0.1l0.1,0.1l0,0c0,0,0,0,0.1,0s0.2,0.1,0.3,0.2l0.8,1.1l-2.1-0.6
						h-0.1h-0.1c0,0,0,0-0.1,0c0,0,0,0-0.1,0l-0.5,0.4c0,0,0,0,0,0.1v0.1h0.1l0,0c0,0,0,0,0.1,0s0.2,0.1,0.3,0.3l1,1.3
						c0.1,0.2,0.2,0.3,0.1,0.5V65c0,0,0,0,0.1,0l0,0c0,0,0,0,0.1,0l0.6-0.4c0,0,0,0,0-0.1s0-0.1,0-0.1h-0.1l0,0c0,0,0,0-0.1,0
						s-0.2-0.1-0.3-0.2l-0.8-1.1l1.9,0.5c0.2,0.1,0.3,0.1,0.5,0.1c0.1,0,0.2,0,0.4-0.1c0,0,0.1,0,0.1-0.1s0-0.1,0-0.1l-1.4-1.9
						c-0.1-0.2-0.2-0.3-0.1-0.5C464.4,61,464.4,60.9,464.3,60.9C464.4,60.9,464.3,60.9,464.3,60.9L464.3,60.9L464.3,60.9z"/>
				</g>
				<g>
					<path class="st18" d="M465.9,63.3C465.9,63.3,465.8,63.3,465.9,63.3L465.9,63.3c0.1-0.3,0-0.5,0-0.7l-0.4-1.9
						c0-0.2-0.1-0.3-0.2-0.3l0,0h-0.1l0.5-0.4l2,1.3c0.2,0.1,0.4,0.3,0.6,0.3l0,0h0.1l-0.7,0.6l-0.1-0.1c0.1-0.1,0.1-0.1-0.1-0.3
						l-0.6-0.4l-0.8,0.6l0.2,0.6c0.1,0.2,0.1,0.3,0.2,0.3l0,0h0.1L465.9,63.3L465.9,63.3z M466,61.6l0.6-0.5l-0.8-0.5L466,61.6z"/>
					<path class="st16" d="M465.7,60.1l1.9,1.3c0.2,0.1,0.4,0.3,0.6,0.3c0,0,0,0,0.1,0l0,0l-0.7,0.5l0,0c0.1-0.2,0.1-0.2-0.2-0.4
						l-0.5-0.4L466,62l0.1,0.6c0,0.2,0.1,0.3,0.2,0.3h0.1l0,0l-0.6,0.4l0,0c0.1-0.2,0.1-0.5,0-0.7l-0.4-1.8c0-0.1-0.1-0.3-0.2-0.3
						c0,0,0,0-0.1,0l0,0L465.7,60.1 M466,61.6l0.7-0.5l-0.9-0.6L466,61.6 M465.7,60L465.7,60l-0.6,0.4c0,0-0.1,0.1,0,0.1l0.1,0.1
						l0,0l0,0c0,0,0.1,0.1,0.1,0.2l0.4,1.8v0.1c0.1,0.2,0.1,0.4,0,0.6v0.1h0.1l0,0l0.6-0.4c0,0,0.1-0.1,0-0.1l-0.1-0.1l0,0
						c0,0,0,0-0.1,0s-0.1,0-0.1-0.2l-0.1-0.5l0.8-0.5l0.5,0.3l0,0c0.2,0.1,0.2,0.1,0.1,0.2v0.1h0.1l0,0l0.7-0.5c0,0,0,0,0-0.1v-0.1
						h-0.1l0,0c0,0,0,0-0.1,0c-0.2,0-0.3-0.1-0.5-0.2h-0.1L465.7,60C465.8,60,465.8,60,465.7,60L465.7,60z M466,61.5l-0.2-0.7
						l0.6,0.4L466,61.5L466,61.5z"/>
				</g>
				<path class="st19" d="M457.2,62.5h-0.5c-2.5-0.3-3.2-0.5-4.6-0.8c0.7-0.3,0.2-0.2,1.4-0.2c0.6,0,2.9-0.5,2.9-0.5l0.1,0.7
					L457.2,62.5z"/>
				<path class="st19" d="M437.7,62.9c0,0,0.7,0.1,2.8-0.6c2-0.6,2.7-0.6,2.9-0.6c0.2,0-0.9-0.3-1.5-0.6c-1-0.5-3.6-0.3-3.6-0.3
					s-0.4,1-1,1.8C437.5,62.7,437.7,62.9,437.7,62.9z"/>
			</g>
			<path class="st13" d="M436.2,27.2c0,0-1.4,1-2.9,3c-1.5,2.1-2.4,3.4-3.7,6.4c-1.3,2.9-1.3,4.7-1.3,6.1c-0.1,1.5,0.3,3.5,0.3,4
				s0.3,0.7,0.4,1s0.6,1.6,0.8,1.9c0.1,0.3,1,1.9,1.9,2.9s2,2.5,2.3,3.4s0.2,1.7,0.6,2.2s1,1.2,1,1.2s0,0.5,0.8,0.4
				c0.5,0.4,3.2,2.2,4.2,2.6c1.2-0.4,1.7-0.4,2.6-0.6c-0.9-0.4-1.9-1.1-2.4-1.6c-0.5-0.4-0.5-0.7-1-0.8c-0.6,0-0.4,0.5-0.4,0.5
				s-1.2-0.8-1.7-1.2s-1.2-0.8-1.9-2.2c-0.7-1.4-0.6-2.1-0.6-2.4c0-0.3-0.2-0.4-0.3-0.4c-0.1,0-0.3,0.1-0.3,0.3
				c-0.3-0.4-0.8-1.2-1.5-2.1c-0.7-0.9-1.7-2-2.4-3.3c-0.7-1.2-1.2-2.6-1.5-4.9c-0.2-2.4-0.1-4.5,0.9-6.7c0.9-2.2,1.6-3.6,2.8-5.2
				C434,30.4,436.2,27.2,436.2,27.2z"/>
			<g>
				<path class="st20" d="M432.3,52.9c0,0,0.1-0.4,0-0.6c-0.1-0.2-0.5-0.5-0.5-0.7s0-0.2,0-0.3c0.1-0.1,0.1-0.2,0.3-0.2
					c0,0,0.1,0,0-0.1c-0.1-0.2-0.2-0.3-0.4-0.5c-0.2-0.1-1-0.2-1-0.1c-0.1,0.1-0.2,0.2-0.2,0.2s-0.1-0.7-0.5-1.3s-0.5-0.6-0.7-0.8
					c0.2,0.4,0.4,0.9,0.4,1.1c0.1,0.3,1,1.9,1.9,2.9s2,2.5,2.3,3.4c0.3,0.8,0.3,1.2,0.4,1.6c0.3,0.2,0.6,0.4,0.8,0.6
					c0,0-0.6-2-1.4-3.3C433,53.5,432.3,52.9,432.3,52.9z"/>
				<path class="st20" d="M428.6,46.8c0,0.5,0.3,0.7,0.4,1c0,0.1,0.1,0.3,0.2,0.5c0-0.3-0.1-0.7-0.3-1c-0.3-0.5-0.3-0.7-0.3-1.2
					c0.1-0.6-0.1-1.5-0.3-1.9c0-0.1,0-0.1-0.1,0C428.5,45.3,428.6,46.4,428.6,46.8z"/>
			</g>
			<path class="st11" d="M464.1,47c0-0.2,0-0.3,0-0.5c0-0.3-0.2-0.6-0.1-0.9c0-0.1,0.4-0.4,0.5-0.4s0.1,0,0.2,0.1s0.2,0.2,0.4,0.3
				c0.2,0.1,0.1,0.1,0.5-0.1c0.5-0.2,0.8-0.6,0.9-1.1c0-0.3,0-0.5,0.1-0.7c0-0.2,0-0.6,0.2-0.7c0.2-0.1,0.3,0.2,0.5,0.2
				c0.4,0.2,0.3-0.4,0.6-0.5c0.2,0,0.3,0.1,0.4,0c0.2-0.1,0.5-0.8,0.7-0.3c0.1,0.2,0,0.3,0,0.5s0,0.3,0.1,0.4
				c0.1,0.2,0.2,0.3,0.1,0.5c0,0.2-0.1,0.2-0.2,0.4c0,0.1-0.1,0.1,0,0.2c0.1,0.1,0.1,0,0.2,0.1s0.2,0.3,0.2,0.4
				c0,0.3-0.3,0.6-0.5,0.8c-0.1,0.1-0.3,0.2-0.2,0.4c0.1,0.1,0.3,0,0.4,0.2c0.1,0.4-0.2,0.7-0.5,1s-0.8,0.4-1.2,0.5
				c-0.4,0.1-0.9,0.1-1.3,0.1c-0.3,0-0.7,0-1-0.1C464.4,47.8,464.2,47.5,464.1,47z"/>
			<path class="st21" d="M464.2,47.2c0-0.2-0.1-0.5,0-0.7c0-0.2,0.1-0.4,0.2-0.6c0.1-0.3,0.3-0.2,0.6-0.2c0.4,0,0.8-0.5,1-0.8
				c0.3-0.5,0.3-1.1,0.6-1.6c0.1-0.2,0.1-0.4,0.3-0.3c0.4,0.2,0.3,0.7,0.3,1.1c0,0.5-0.1,1-0.1,1.4c0,0.3-0.1,0.4,0.3,0.3
				c0.3-0.1,0.6-0.1,0.8,0.2c0.1,0.2,0.2,0.4,0.5,0.3c0.2,0,0.4-0.1,0.3,0.2c-0.1,0.2-0.2,0.4-0.4,0.5c-0.4,0.3-1,0.6-1.6,0.6
				c-0.7,0-1.3-0.2-2-0.4C464.7,47.4,464.4,47.4,464.2,47.2L464.2,47.2z"/>
			<path class="st9" d="M459.8,43.6c-0.1,0.2-0.1,0.3-0.3,0.3c-0.2,0.1-0.3,0-0.5,0.2s-0.3,0.6-0.2,1c0.1,0.4,0.6,0.5,0.7,0.8
				c0.2,0.3,0.2,0.7,0.1,1.1c0,0.3,0.1,0.8-0.1,1.2c-0.2,0.3-0.6-0.1-0.8,0.2c-0.1,0.2-0.1,0.3,0,0.5s0.1,0.3,0.1,0.5
				c-0.1,0.3-0.1,0.5,0.1,0.7c0.2,0.1,0.4,0.2,0.6,0.3c0.3,0.1,0.2,0.3,0.4,0.5c0.1,0.2,0.9,0.3,0.7,0.7c-0.1,0.2-0.3,0.1-0.5,0.1
				s-0.3,0.1-0.3,0.3s0.1,0.2,0.2,0.4c0.1,0.1,0.2,0.3,0.3,0.4c0.1,0.1,0.2,0.1,0.3,0.1c0.1,0.1,0.1,0.1,0.3,0.2
				c0.4,0.2,0.6-0.5,0.8-0.7c0.2-0.2,0.4-0.4,0.5-0.8c0.1-0.2,0.2-0.5,0.3-0.7c0.2-0.3,0.5-0.5,0.6-0.8c0.1-0.2,0-0.5,0-0.7
				s0-0.4,0.1-0.6c0.1-0.2,0.2-0.3,0.2-0.5c0-0.1,0-0.3-0.2-0.4c-0.1-0.1-0.3,0-0.5-0.1c-0.3-0.1-0.3-0.7-0.7-0.5
				c-0.1,0.1-0.3,0.3-0.5,0.2s0-0.4,0.1-0.5c0-0.3-0.2-0.4-0.3-0.7c0-0.1,0-0.3,0-0.4c0-0.2,0-0.3,0.1-0.5c0.1-0.3,0.2-0.6,0.3-1
				c0-0.2-0.1-0.3-0.2-0.5s-0.1-0.4-0.1-0.6c0-0.1,0-0.4-0.1-0.4c-0.2,0-0.2,0.2-0.2,0.3c-0.1,0.1-0.1,0.3-0.3,0.2
				c-0.1-0.1-0.2-0.3-0.3-0.4c-0.2-0.2-0.4-0.3-0.6-0.1C459.9,43.1,459.9,43.3,459.8,43.6z"/>
			<path class="st22" d="M461.8,51.5c0,0,0-0.9-0.1-1.5c-0.4,0-1.1-0.1-1.2-0.1s0-0.1,0.5-0.1s0.6,0,0.6,0s-0.3-1.5-0.4-1.8
				c-0.1-0.4-0.1-0.6-0.1-0.6s0.1-0.4,0.1-0.1c0.1,0.4,0.2,0.8,0.3,1c0.1,0.2,0.1,0.4,0.2,0.1c0.1-0.2,0.3-0.4,0.2-0.2
				c-0.1,0.2-0.2,0.5-0.2,0.7s0.2,0.9,0.2,1.1c0.2-0.1,0.3,0,0.4-0.2s0.2,0,0,0.1c-0.1,0.2-0.4,0.2-0.4,0.3c-0.1,0.1,0.1,0.7,0,1
				C462,51.5,461.8,51.5,461.8,51.5z"/>
			<path class="st23" d="M452.1,61.7l1.1-0.6c0,0-0.2-0.9,0.4-1.2s1-0.3,1.3,0.3c1-0.6,1.8-1.2,2.3-1.6c0.5-0.4,0.8-1.1,1.1-1.8
				c0.3-0.7,0.7-1.5,0.7-1.5s-0.2-1.1-0.1-1.3c0-0.2,0.2-0.4,0.4-0.3c0.2,0,0.4,0.1,0.4,0.4c0.4-0.5,1.1-1.5,1.5-2.1s2-2.4,2.4-3
				c0.3-0.6,0.8-2.1,1.1-2.9c0.3-0.8,0.5-1.7,0.4-2.5s-0.2-2.1-0.3-3.1c-0.2-1.1-0.5-1.3-0.6-1.6s-0.4-0.1-0.4-0.3
				c0-0.3,0.3-0.3,0.2-0.7c-0.1-0.4-0.6-1.6-0.8-2.3c-0.3-0.7-1.2-2.8-1.3-3.1c-0.1-0.3,0.5-1.1,0.8-0.3c0.3,0.8,1.2,3.3,1.4,3.7
				c0.2,0.4,0.7,1.5,0.9,2.4c0.2,0.8,0.3,1,0.5,1.2c0.1,0.2,0.3,0.3,0.3,0.6s-0.1,0.6,0.1,1.1c0.1,0.4,0.5,0.2,0.6,0.7s0,0.5,0,0.9
				s0.4,0.6,0.2,2.2c-0.2,1.6-1.6,4-2.6,5.4s-1.6,2.1-1.7,2.2c-0.1,0.1-0.1,0.6-0.5,0.9c-0.4,0.3-0.5,0.2-0.7,0.6
				c-0.3,0.4-0.6,0.9-1.2,2.6c0.8-0.8,1.3-1.5,1.5-1.9s0.8-1.2,0.9-1.4c0.1-0.3,0.2-0.7,0.4-1.1c0.2-0.3,0.5-0.1,0.7-0.5
				c0.3-0.4,0.1-1.3,0.1-1.3l0.5-0.8l0.5,1.4c0,0-1,2-1.2,2.2s-0.4,0.3-0.5,0.5c-0.1,0.1,0,0.5-0.2,0.8s-0.5,0.8-0.7,1
				c-0.2,0.3-0.5,0.6-0.7,0.9c-0.2,0.3-0.5,0.6-0.8,1c-0.4,0.4-0.6,0.5-0.7,0.9s-0.1,0.6-0.7,1.1s-0.7,0.5-1.3,0.8
				c-0.5,0.3-0.9,0.6-1.1,0.7c-0.2,0.1-0.7,0.4-1.1,0.8c-0.4,0.4-0.5,0.4-0.5,0.4S453.3,62,452.1,61.7z"/>
			<path class="st21" d="M460.6,45c0,0,0.3,0.3,0.5,0.5s0.2,0.4,0.1,0.7s-0.2,0.6-0.1,0.9c0,0.3,0,0.7-0.2,0.9
				c-0.3,0.2-0.1,0.4-0.4,0.4s-0.5-0.1-0.5-0.1l0.1-2.1L460.6,45z"/>
			<path class="st24" d="M459.5,48.2c0.4,0.1,0.4,0.2,0.8,0c0.2-0.1,0-0.5,0.2-0.8s-0.1-0.3-0.2-0.5s0.2-0.8,0.3-1.1
				c0.1-0.3,0-1-0.4-1.1c-0.5-0.2-0.3,0.5-0.9,0.2c-0.3-0.2-0.4-0.5-0.3-0.8c-0.2,0.2-0.2,0.6-0.1,0.9c0.1,0.4,0.6,0.5,0.7,0.8
				c0.2,0.3,0.2,0.7,0.1,1.1c0,0.3,0.1,0.8-0.1,1.2C459.6,48.2,459.6,48.2,459.5,48.2z"/>
			<g>
				<path class="st25" d="M459.4,58.6c-0.2,0-0.1,0.2-0.2,0.4s-0.2,0.2-0.5,0.2s-0.2,0.2-0.4,0.3c-0.1,0.2-0.4,0.3-0.5,0.3
					c-0.2,0-0.2-0.1-0.2,0.1c0,0.2,0,0.3-0.2,0.3s-0.3,0.1-0.4,0.2c-0.1,0.1-0.2,0.3-0.4,0.3c-0.2,0-0.3,0.1-0.5,0.2
					c-0.1,0.1-0.4,0-0.5,0.2s-0.1,0.3-0.3,0.3c-0.2,0-0.3-0.4-0.6-0.7c-0.3,0.8-1.2,0.5-1.3,0.4c-0.2-0.1-0.2-0.1-0.2,0
					c0.1,0.1,0.8,0.9,0.8,0.9l-0.2,0.1c0.7,0.1,1.4,0.2,1.4,0.2s0.1,0,0.5-0.4s0.9-0.7,1.1-0.8s0.6-0.4,1.1-0.7s0.7-0.3,1.3-0.8
					c0.4-0.4,0.5-0.6,0.6-0.8C459.7,58.6,459.5,58.6,459.4,58.6z"/>
				<path class="st25" d="M461.8,56c-0.1,0-0.2,0.2-0.3,0.3c-0.1,0.1-0.2,0.1-0.4,0.3c-0.2,0.2-0.4,0.5-0.5,0.6
					c-0.2,0.2-0.3,0.2-0.5,0.1c-0.2-0.1-0.1-0.4,0.1-0.7c0-0.1,0.1-0.2,0.1-0.3c-0.1,0.1-0.1,0.1-0.2,0.2c0.5-1.6,0.9-2.1,1.2-2.6
					c0.2-0.3,0.3-0.3,0.5-0.5c-0.1,0-0.2-0.1-0.3,0c-0.1,0.1-0.1,0.2-0.2,0.4c-0.2,0.1-0.7,0.8-0.9,1.2c-0.2,0.4-0.5,1.3-0.7,1.6
					c-0.1,0.4-0.2,0.9-0.3,1.1c-0.1,0.2,0.1,0.4,0.4,0.4c0.1,0,0.1,0,0.1,0.1l0,0c0.1-0.4,0.4-0.5,0.7-0.9c0.4-0.4,0.7-0.8,0.8-1
					C461.5,56.3,461.7,56,461.8,56z"/>
				<path class="st26" d="M466.5,42.6c0-0.4,0-0.4,0-0.9c-0.1-0.5-0.4-0.3-0.6-0.7c-0.1-0.4-0.1-0.7-0.1-1.1c0-0.3-0.2-0.4-0.3-0.6
					c-0.1-0.2-0.3-0.4-0.5-1.2s-0.7-1.9-0.9-2.4c-0.2-0.4-0.9-2.2-1.3-3.2c-0.1,0-0.3-0.1-0.3-0.1c-0.1,0-0.4,0.2-0.5,0.3
					c0.3,0.8,0.9,2.1,1.1,2.6c0.3,0.7,0.7,1.9,0.8,2.3c0.1,0.4-0.2,0.4-0.2,0.7s0.3,0,0.4,0.3s0.3,0.5,0.5,1.3c0.2,0,0.5,0,0.7,0
					s0.3,0.2,0.3,0.5s0.1,0.5,0.2,0.7s0.1,0.6,0.1,0.9c0,0.2,0.3,0.6,0.4,0.9c0,0.2,0,0.7-0.1,0.9s-0.1,0.6-0.2,0.9
					c-0.1,0.3,0,0.7,0,1s-0.1,0.5-0.2,0.7s-0.2,0.7-0.3,0.9c-0.1,0.2-0.6,0.9-1,0.6c-0.1-0.1-0.2,0-0.3,0c-0.2,0.4-0.3,0.8-0.4,1
					c-0.2,0.3-0.7,0.9-1.3,1.6l0,0c0.6,0,0.5,0.7,0.5,1s-0.4,0.6-0.5,0.8c-0.1,0.1-0.1,0.4-0.2,0.6c0,0.1-0.1,0.3-0.2,0.4
					c0.3-0.3,0.3-0.7,0.4-0.8s0.6-0.7,1.4-1.7c0,0.1,0,0.2,0,0.3c0.2-0.3,0.4-0.6,0.6-0.8l-0.1-0.2c1-1.4,2.2-3.6,2.4-5.1
					C466.9,43.3,466.6,43,466.5,42.6z"/>
				<path class="st25" d="M462.9,52.1c-0.1,0.2-0.2,0.5-0.3,0.7c0.1-0.1,0.1-0.2,0.2-0.3s0.2-0.4,0.4-0.6
					C463.1,52,463,52,462.9,52.1z"/>
				<path class="st25" d="M462.2,54.5c-0.1-0.1-0.2-0.3-0.2-0.5c-0.1,0.2-0.3,0.4-0.4,0.6c0,0.2,0.2,0.1,0.4,0.2
					C462.3,54.8,462.3,54.6,462.2,54.5z"/>
			</g>
			<path class="st24" d="M462.3,30.9l-0.3-0.6l-0.7-1.2l-0.7-1.1l-0.9-1.1l-0.8-1l-0.8-0.9l-0.4-0.4c-0.1,0.1,0,0.3-0.1,0.4
				c0,0.2-0.2,0.4-0.2,0.7c0,0.3,0.1,0.4,0.2,0.6s0.1,0.5-0.1,0.6c-0.2,0.2-0.4,0.3-0.4,0.6c0,0.2,0,0.4,0.2,0.6
				c0.4,0.3,0.9,0.2,1.2,0.6c0.2,0.2,0,0.4-0.2,0.5c-0.1,0.1-0.3,0.2-0.4,0.2c-0.1,0.1-0.2,0.1-0.3,0.2c-0.2,0.2,0,0.5,0.2,0.5
				c0.1,0,0.2,0.1,0.4,0.1c0.1,0.1,0.2,0.1,0.4,0.1c0.2,0,0.4,0,0.5,0.1s0.1,0.2,0.2,0.3c0.4,0.5,1,0.4,1.5,0.4c0.1,0,0.3,0,0.4,0.1
				c0.3,0.2-0.1,0.4-0.2,0.5c-0.2,0.3,0.4,0.3,0.6,0.4c0.1,0,0.3,0.1,0.4,0.1s0.2-0.1,0.3-0.1c0.1-0.1,0.3-0.1,0.4-0.2l0,0
				L462.3,30.9z"/>
			<path class="st27" d="M457.8,24.6l1.1,1.4c0,0-0.6,0-0.8,0.1c0.3,0,0.7,0,1.1,0.3c0.4,0.4,0.7,0.8,0.9,1c0.2,0.2,0.4,0.5,0.4,0.5
				s-1-0.1-1.5,0c0.5,0,1.3,0.1,1.6,0.3c0.3,0.2,0.3,0.5,0.6,0.8c0.2,0.3,0.4,0.8,0.4,0.8s-0.9,0-1.1,0s0.2,0.1,0.4,0.1
				c0.2,0,0.5,0.1,0.7,0.1c0.1,0,0.3,0,0.3,0.2c0.1,0.2,0.3,0.7,0.3,0.7s0.5,0.3,0-0.6s-1-1.5-1-1.7c-0.1-0.2,0.2-0.2,0.3-0.4
				c0.1-0.2,0.1-0.5,0.1-0.7s0-0.4,0-0.4s-0.1,0.4-0.2,0.7c0,0.3-0.1,0.5-0.3,0.5s-0.2-0.1-0.5-0.4c-0.2-0.3-0.4-0.4-0.4-0.6
				s0-1,0-1s-0.1,0.9-0.2,0.9c-0.1-0.1-0.3-0.4-0.5-0.7c-0.3-0.2-0.2-0.4-0.2-0.8s0-0.2-0.1,0.1c-0.1,0.3-0.2,0.1-0.4-0.3
				C458.4,25.1,457.8,24.6,457.8,24.6z"/>
			<path class="st28" d="M462.4,33.2c0.1,0.4,0.6,0.6,0.8,0.9c0.2,0.3,0.6,0.6,0.8,0.9c0.2,0.2,0.6,0.6,0.5,0.9
				c-0.1,0.2-0.3,0.2-0.4,0.3c-0.1,0.2-0.1,0.4-0.1,0.6c0,0.5,0.5,0.6,0.8,0.9c0.1,0.1,0.1,0.2,0.4,0.3c0.1,0,0.4,0.1,0.5,0.2
				c0.3,0.3-0.4,0.5-0.1,0.9c0.2,0.2,0.7,0.3,0.9,0.6c0.1,0.2-0.1,0.3-0.2,0.4c-0.1,0.2,0,0.3,0.2,0.4c0.2,0.2,0.3,0.6,0.2,0.9
				c-0.1,0.2-0.5,0.6-0.3,0.8c0.1,0.1,0.3,0.1,0.4,0c0.2-0.1,0.1-0.3,0.2-0.4c0.1-0.3,0.1-0.5,0.3-0.8c0.1-0.2,0.2-0.4,0.3-0.6
				c0.1-0.2,0.1-0.3,0.1-0.5c0.1-0.4,0.3-0.6,0.5-0.9c0.1-0.2,0.3-0.7,0.2-1c-0.1-0.5-0.7,0-0.7-0.3c0-0.2,0.2-0.5,0.3-0.6
				c0.1-0.2,0.2-0.4,0.2-0.7s0-0.7-0.1-1c-0.1-0.2-0.1-0.3-0.3-0.3c-0.2,0-0.2,0.2-0.3,0.3c-0.1,0.2-0.3,0.7-0.6,0.6
				c-0.3-0.1-0.1-0.4,0-0.6c0.1-0.3,0.3-0.5,0.3-0.9c0-0.2,0-0.3,0-0.5c0-0.5-0.3-0.8-0.3-1.3c0-0.2-0.1-1.1-0.4-0.7
				c-0.1,0.1,0,0.3-0.2,0.4c-0.2,0.1-0.2-0.2-0.2-0.3c0-0.3,0.1-0.6,0.1-1c0-0.1-0.1-0.3-0.2-0.4c-0.1-0.2-0.3-0.3-0.4-0.6
				c-0.1-0.2-0.1-0.3-0.4-0.2c-0.1,0.1-0.2,0.2-0.5,0.1c-0.2-0.1-0.1-0.3-0.1-0.5c0-0.5-0.2-0.5-0.5-0.7c-0.2-0.1-0.6-0.5-0.8-0.4
				c-0.2,0.1,0.1,0.7,0,0.9c-0.1,0.1-0.2,0.2-0.3,0.2c-0.1,0.1-0.2,0.2-0.3,0.4c-0.3,0.4-0.7,0.9-0.6,1.4
				C462,32.1,462.2,32.7,462.4,33.2z"/>
			<path class="st11" d="M465.6,31.6c0,0,0.1,0.7-0.3,0.9c-0.5,0.3,0,0.8,0.2,1.3c0.2,0.4,0.4,0.9,0.4,0.9s0.6-0.4,0.5-1.1
				C466.4,32.8,465.9,32.8,465.6,31.6z"/>
			<path class="st11" d="M466.9,38.6c0,0,0.7-0.8,0.8-0.8c0.2,0,0.3,0,0,0.4c-0.2,0.4-0.4,0.9-0.5,1.2s-0.3,0.6-0.3,0.6
				S467,39.4,466.9,38.6z"/>
			<path class="st11" d="M466.6,37.4c0,0,0.4-0.5,0.9-1.4c0,0.6-0.1,0.7-0.7,1.7C466.8,37.5,466.6,37.4,466.6,37.4z"/>
			<path class="st11" d="M463.3,28.7c0.1,0.4,0.2,1,0.5,1.5c0.5,0.8,0.6,1.2,0.6,1.8c-0.7-0.5-1-1-1.3-1.1s0.2-0.2,0-0.7
				c-0.2-0.3,0-0.3,0.1-0.4C463.5,29.7,463.2,29.2,463.3,28.7z"/>
			<path class="st11" d="M465.9,35.5c-0.9-0.3-1.2-0.6-1.2-0.6l-0.1-0.5c0,0,0.5,0.4,1.1,0.5c-0.4-0.6-0.7-1.5-1-2.1
				s-0.9-0.6-1.2-0.9c-0.4-0.3-0.8-1-0.8-1c0.2,1.2-0.7,0.1-0.7,0.1l-0.1,0.5c0.1,0.5,0.3,1,0.4,1.5c0.1,0.4,0.6,0.6,0.8,0.9
				c0.2,0.3,0.6,0.6,0.8,0.9c0.2,0.2,0.6,0.6,0.5,0.9c-0.1,0.2-0.3,0.2-0.4,0.3c0.2,0.1,0.6,0.4,0.8,0.5c0.4,0.2,0.9,0.6,1,0.9
				c0.1,0.3,0.2,0.3-0.3,0.1c-0.9-0.4-0.1-0.1-0.3,0.3c0.1,0,0.2,0.1,0.2,0.1c0.3,0.3-0.4,0.5-0.1,0.9c0.2,0.2,0.7,0.3,0.9,0.6
				c0.1,0.2-0.1,0.3-0.2,0.4c-0.1,0.2,0,0.3,0.2,0.4c0.2,0.2,0.3,0.4,0.3,0.6l0,0C466.9,39.3,466.5,36.7,465.9,35.5z"/>
			<path class="st9" d="M425.7,43.5c-0.3,0.1-0.1,0.9-0.1,1.3c0,0.4-0.3,1.5,0.3,3.3c0.5,1.8,1.2,2.8,1.5,3.3s2.2,3,2.6,3.3
				c0.3,0.3,0.7,0.7,1,1s0.7,0.6,0.9,0.7c0.2,0.1,0.5,0.2,0.7,0.2s0.2-0.4-0.1-0.5c-0.4-0.1-0.6-0.2-0.9-0.7s-0.6-1.3-0.9-1.9
				c-0.3-0.5-0.4-1.1-0.5-2c-0.1-0.8-0.7-2.1-1.4-3.6c-0.6-1.5-1.1-2-1.3-2.4c-0.3-0.4-0.8-1.3-1-1.7
				C426.2,43.6,426,43.4,425.7,43.5z"/>
			<path class="st29" d="M430.3,28.7c-0.3-0.1-1,0.8-1.5,1.5c-0.5,0.8-1.5,2.7-2.1,4.8c-0.5,2.1-0.3,4.3-0.2,5.5
				c0.1,1.2,0.4,2.3,1,2.9c0.6,0.7,0.9-0.3,0.5-0.3s-0.5,0-0.5-0.5s0.3-1.8,0.7-3.2c0.5-1.4,1-3.4,1.5-5.8
				C430.3,31.3,430.8,29,430.3,28.7z"/>
			<path class="st30" d="M435.7,23.8c-0.3-0.2-1,0.4-2.1,1.8c-1.2,1.3-2.3,3.8-2.8,4.9s-1.1,2.8-1.4,3.5s-0.8,2.6-0.6,2.3
				c0.3-0.4,0.8-1.4,1.2-2.1c0.4-0.7,1.7-2.3,2.3-3.2c0.7-0.9,1.8-2.7,2.3-3.9C435.3,25.9,436.1,24,435.7,23.8z"/>
			<path class="st7" d="M444.2,20.8c-0.1-0.2-0.8,0.1-1,0.2c-0.3,0.1-0.7,0.4-1.2,0.6s-1.2,0.4-2.5,1.4c-1.4,1-1.8,1.7-2.7,2.5
				c-0.9,0.9-2.2,2.4-2.3,2.6c-0.1,0.2-0.1,0.5,0.5,0.1s4.3-2.9,5.4-3.6s2.5-1.3,3.2-2.2C444.2,21.4,444.4,21.1,444.2,20.8z"/>
			<path class="st31" d="M434.9,25c0,0-1.2,1.6-2.9,4.3c-1.6,2.7-2.5,4.8-2.5,4.8l-0.1,0.4c0,0,1.5-3,2.5-4.7
				C432.9,28.2,434.9,25,434.9,25z"/>
			<path class="st32" d="M432.4,56.2c-0.4-0.1-0.6-0.2-0.9-0.7s-0.6-1.3-0.9-1.9c-0.3-0.5-0.4-1.1-0.5-2c-0.1-0.8-0.7-2.1-1.4-3.6
				c-0.6-1.5-1.1-2-1.3-2.4c-0.3-0.4-0.8-1.3-1-1.7c-0.2-0.3-0.3-0.5-0.6-0.4c-0.3,0.1-0.1,0.9-0.1,1.3c0,0.4-0.3,1.5,0.3,3.3
				c0.5,1.8,1.2,2.8,1.5,3.3c0.1,0.2,0.4,0.6,0.8,1.2l0,0c0.5,0.6,1.2,1.1,1.2,1.1s-0.1-0.2-0.2-0.3s-0.4-0.7-0.4-0.7l-0.3-0.3h0.2
				c0,0-1.2-2.6-1.7-4.1c-0.8-2.5-1.3-4.8-1.3-4.8s1.3,4.7,2.4,7s2.1,3.9,2.8,4.7c0.7,0.8,1.1,1,1.3,1.2c0.1,0,0.3,0.1,0.3,0.1
				C432.7,56.7,432.8,56.3,432.4,56.2z"/>
			<path class="st9" d="M443,22.9c0,0-2.4,0.6-4.6,2.2s-2.6,1.8-2.6,1.8s1.1-1,1.5-1.4s1.2-1.1,1.6-1.4c0.5-0.3,1.9-1.2,1.9-1.2
				s-1.6,0.9-2,1.1c-0.3,0.2-0.7,0.5-1.3,1c-0.1,0.1-0.2,0.1-0.2,0.2c1.3-1.7,3.7-3.2,4.3-3.4c0.5-0.2,1-0.5,1.3-0.7
				c-0.3,0.1-0.6,0.3-0.9,0.5c-0.5,0.2-1.2,0.4-2.5,1.4c-1.4,1-1.8,1.7-2.7,2.5c-0.9,0.9-2.2,2.4-2.3,2.6c-0.1,0.2-0.1,0.5,0.5,0.1
				s4.3-2.9,5.4-3.6C441.2,24.1,442.3,23.5,443,22.9z"/>
			<path class="st30" d="M444.8,22.8c0-0.3-1.8-0.2-5,1.6c-3.2,1.8-4.3,3.9-4.6,4.2c-0.3,0.2,1.7-0.8,3.4-1.4c1.6-0.6,3-1.6,4.1-2.2
				C443.8,24.3,444.8,23.3,444.8,22.8z"/>
			<path class="st31" d="M442.9,23.5c0,0-2.1,1.7-6.3,4C438.6,26.8,442.4,24.5,442.9,23.5z"/>
			<path class="st32" d="M437.4,26.3c-0.4-0.1-1.5,1-2.3,2.1s-1.8,2.5-2.1,3c-0.3,0.5-0.9,1.3-0.9,1.9s-0.8,1-0.5,2.7
				s3.2-3.6,4.4-4.9c1.2-1.4,1.6-2.8,1.7-3.5C437.7,26.9,437.7,26.4,437.4,26.3z"/>
			<path class="st7" d="M428,43.2c-0.4,0-0.5,0-0.5-0.5s0.3-1.8,0.7-3.2c0.5-1.4,1-3.4,1.5-5.8c0.5-2.3,1-4.5,0.6-4.9
				c-0.8,1.2-3.3,5.6-3.4,13.3c0,0.2,0,0.4,0,0.6c0.2,0.3,0.3,0.6,0.5,0.8C428.1,44.1,428.4,43.2,428,43.2z"/>
			<path class="st9" d="M427.8,32c-0.4,0.9-0.8,2-1.1,3.1c-0.5,2.1-0.3,4.3-0.2,5.5c0.1,1.2,0.4,2.3,1,2.9c0.1,0.1,0.1,0.1,0.2,0.2
				l0,0c0-0.3-0.3-0.5-0.3-0.6c-0.1-0.1-0.3-0.2-0.2-0.6c0.1-0.3-0.1-0.5-0.1-0.9c0.1-3.3,0.5-4.5,0.7-6c-0.6,2.3-0.8,4.9-0.8,5.3
				c0,0.5-0.1,0.8-0.1,0.7s-0.1-0.7-0.1-1.2s-0.1-1.2-0.1-1.4c0-0.3-0.2-2,0.3-3.9C427.4,33,427.8,32,427.8,32z"/>
			<path class="st9" d="M433.2,31.1c-0.1,0.1-0.2,0.2-0.2,0.3c-0.3,0.5-0.9,1.3-0.9,1.9s-0.8,1-0.5,2.7l0,0c0.1,0,0.2-0.1,0.4-0.3
				c0.4-0.6,2.9-4.3,2.9-4.4c0.1-0.1,0.4-0.6,0-0.4s-0.2,0,0-0.3s1.2-1.8,1.6-3c0,0-0.5,0.8-1.7,2.6s-1.5,2-1.8,2.5
				c-0.4,0.5-0.3-0.4,0-0.8C433,31.7,433.1,31.3,433.2,31.1z"/>
			<path class="st29" d="M429.3,42.2c-0.2,0.4-0.2,0.6-0.3,0.8c-0.1,0.2-0.1,0.3,0,0.4c0.2,0.1,0.2-0.1,0.4-0.5
				c0.1-0.4,0.6-1.1,0.9-1.5c0.4-0.4,1.5-2.1,2.3-3.1c0.8-1.1,1.5-2.5,2-3.8c0.4-1.3,0.9-3,0.5-3.3c-0.4-0.4-2.3,2.4-3,3.6
				c-0.8,1.2-1.4,2.4-1.8,3.6C429.8,39.6,429.7,41.3,429.3,42.2z"/>
			<path class="st7" d="M434.2,34.2c-0.2-0.2,0.5-1.8,0.5-1.8s-1,1.8-1.4,1.7c-0.3-0.1,0.7-1.5,0.7-1.5s-1.2,1.7-1.4,1.6
				c-0.1,0,0.2-0.5,0.4-1c-0.4,0.6-0.8,1.1-1,1.5c-0.8,1.2-1.4,2.4-1.8,3.6c-0.4,1.2-0.5,2.9-0.9,3.8c-0.2,0.4-0.2,0.6-0.3,0.8
				c-0.1,0.2-0.1,0.3,0,0.4c0.2,0.1,0.2-0.1,0.4-0.5c0.1-0.4,0.6-1.1,0.9-1.5c0.4-0.4,1.5-2.1,2.3-3.1c0.8-1.1,1.5-2.5,2-3.8
				c0.1-0.4,0.3-0.8,0.4-1.2C434.7,33.8,434.3,34.3,434.2,34.2z"/>
			<path class="st9" d="M435,33c0,0-0.6,1.1-1,2.6s-1.7,2.8-1.7,2.8s0.4-0.8,0.4-1.2c-0.2,0.7-0.5,1-0.7,1.4
				c-0.3,0.4-0.6,0.9-0.9,1.9c0.5-0.7,1.1-1.5,1.5-2.1c0.8-1.1,1.5-2.5,2-3.8C434.7,34,434.9,33.5,435,33L435,33z"/>
			<path class="st9" d="M435.2,43.2c-0.3,0-1.6,0.9-3.2,3.7s-1.6,5.2-1.6,5.6c0.1,0.4,0.3,0.8,0.5,0.9c0.2,0.1,0.3,0,0.2-0.3
				c-0.1-0.3-0.2-0.7,0-1s0.7-1.4,1-1.8c0.3-0.4,1.5-2.4,2-3.3c0.5-0.9,0.8-1.3,1.1-2.1C435.5,44.2,435.5,43.2,435.2,43.2z"/>
			<path class="st32" d="M432.1,50.5c0-0.1,0.1-0.1,0.2-0.3c-0.2-0.3-0.2-0.7-0.3-1c-0.5,0.4-0.9,1.9-1.2,3.1
				c0.4-2.4,0.9-3.2,1.2-3.5c0-0.2,0-0.4,0-0.6c-0.3,0.1-0.6,0.6-0.9,1c-0.6,1.8-0.6,3.1-0.6,3.4c0.1,0.4,0.3,0.8,0.5,0.9
				c0.2,0.1,0.3,0,0.2-0.3c-0.1-0.3-0.2-0.7,0-1C431.3,51.9,431.9,50.8,432.1,50.5z"/>
			<path class="st9" d="M436.2,45c-0.2-0.2-0.8,0.5-1.7,2.1c-0.9,1.6-1.1,5.5-1,5.9c0.1,0.5,1.1-1.9,1.6-2.8c0.5-0.9,0.8-2,1-3.1
				C436.2,46.1,436.3,45.2,436.2,45z"/>
			<path class="st7" d="M435.1,47.3c0.3-1,0.9-1.8,1.1-2.1c0-0.1,0-0.2-0.1-0.2c-0.2-0.2-0.8,0.5-1.7,2.1c-0.9,1.6-1.1,5.5-1,5.9
				s0.9-1.4,1.4-2.4C435.1,49.2,434.8,48.5,435.1,47.3z"/>
			<path class="st9" d="M433.8,42.3c-0.3,0-0.7,1.4-0.9,2.4c-0.2,1.1-0.4,4.6-0.3,5.3s0.3,3.2,0.4,3.6c0.1,0.5,0.4,1.3,0.4,1.6
				s0,0.6-0.1,0.7c-0.2,0.1,0,0.3,0.2,0.2c0.2,0,0.3-0.2,0.3-0.5s0.1-0.7,0.2-1.2s0.2-1.3,0.4-2.2c0.2-0.8,0.4-1.6,0.4-2.1
				c0.1-0.5,0.4-2.1,0.2-4.6C434.7,43.2,434.1,42.3,433.8,42.3z"/>
			<path class="st32" d="M434.9,45.7c-0.2-2.5-0.7-3.5-1.1-3.4c-0.3,0-0.7,1.4-0.9,2.4c-0.2,1.1-0.4,4.6-0.3,5.3
				c0,0.5,0.2,2.1,0.3,3l0,0c0.2,0.3,0.5,0.8,0.5,0.4c0-0.4,0-2.1,0.1-3.1s0.3-4.2,0.3-4.2c0,1.2,0,3.1-0.1,5.5
				c0,1.7,0.2,2.5,0.3,2.8l0,0c0.1-0.5,0.2-1.3,0.4-2.2c0.2-0.8,0.4-1.6,0.4-2.1C434.7,49.8,435,48.3,434.9,45.7z"/>
			<path class="st33" d="M442.5,67.4c0.3-0.3,0.8-0.5,1-0.4s0.1,0.3-0.3,0.4c-0.3,0.1-0.7,0.3-0.9,0.5c-0.2,0.2-0.3,0.3-0.4,0.4
				s-0.3,0-0.1-0.2C441.9,68,442.2,67.6,442.5,67.4z"/>
			<path class="st20" d="M441.2,68.7c-0.1,0.1-0.3,0.2-0.2,0.3c0.1,0.1,0.2,0,0.3-0.1c0.1-0.1,0.2-0.2,0.1-0.2
				C441.3,68.6,441.2,68.7,441.2,68.7z"/>
			<path class="st33" d="M453.5,67.3c-0.1-0.1-0.3,0.1-0.1,0.2c0.1,0.1,1,0.8,1.4,1.1c0.4,0.2,0.5,0.3,0.6,0.3
				c0.2,0,0.5-0.1,0.3-0.2c-0.1-0.1-0.4-0.2-0.8-0.4C454.5,68,453.7,67.4,453.5,67.3z"/>
			<path class="st9" d="M461.9,54.7c0.2,0.1,0.4-0.1,0.2-0.3c-0.2-0.2-0.2-0.3-0.2-0.7s0-0.4-0.2-0.4s-0.2,0.2-0.1,0.4
				c0,0.3,0.1,0.2,0,0.5C461.6,54.4,461.5,54.6,461.9,54.7z"/>
			<path class="st33" d="M459,57.3c-0.2,0.3-0.4,0.3-0.6,0.6s-0.2,0.6,0,0.8s0.4,0.1,0.4-0.3c0-0.4,0.2-0.5,0.3-0.7
				c0.1-0.2,0.2-0.3,0.1-0.5C459.2,57.1,459.1,57.1,459,57.3z"/>
			<path class="st34" d="M441.6,61.8c0,0-1.1-0.5-1.1-0.6s0.5-0.3,0.5-0.3l-0.6-0.3c0,0,0,0.3-0.3,0.3s-0.7-0.1-0.8-0.4
				c-0.3-0.2-1.4-1.1-1.7-1.3c-0.3-0.2-1-0.7-1-0.7s-0.2,0.3-0.3,0.3c-0.1,0-0.2,0,0,0.2s1.2,0.8,1.4,0.9c0.2,0.1,0,0.3-0.2,0.2
				s-1-0.6-1-0.6s0.8,0.7,1.1,0.9c0.3,0.2,2.2,1.3,2.5,1.5c0.3,0.1,0.7,0.3,0.7,0.3S441.3,61.9,441.6,61.8z"/>
			<path class="st33" d="M461.1,53.3c-0.2,0.3-1.3,1.8-1.4,2.5c-0.1,0.6,0.2,0.3,0.2,0c0.1-0.3,0.4-1,0.6-1.3s0.5-0.8,0.6-1
				C461.3,53.2,461.2,53.1,461.1,53.3z"/>
			<path class="st33" d="M462.3,51.7c-0.1,0.2,0,0.4,0.1,0.2s0.2-0.5,0.3-0.6c0.1-0.2,0-0.3-0.1-0.1
				C462.5,51.3,462.3,51.6,462.3,51.7z"/>
			<path class="st33" d="M441.2,70.3c0,0.2-0.2,0.3-0.7,0.2c-0.5,0-1.1-0.4-1.3-0.7c-0.2-0.3-0.2-0.3-0.6-0.4
				c-0.4,0-0.3-0.2-0.2-0.2c0.1-0.1,0.3-0.2,0.6-0.1c0.3,0.1,0.4,0.1,0.7,0.2C440.1,69.3,441.4,69.6,441.2,70.3z"/>
			<path class="st33" d="M456.7,68.7c0.1,0.1,0.1,0.4-0.2,0.5c-0.3,0.2-0.6,0.1-0.8,0.3c-0.2,0.2-0.4,0.5-0.8,0.6s-0.9,0.1-0.9,0
				c-0.1-0.1,0-0.4,0.2-0.5s0.4-0.3,0.7-0.4c0.2-0.1,0.5-0.1,0.8-0.2s0.4-0.3,0.5-0.4C456.3,68.6,456.5,68.6,456.7,68.7z"/>
			<path class="st33" d="M465.5,44.9c0,0.3-0.3,1.4-0.5,1.7s0.1,0.4,0.2,0.1c0.1-0.3,0.4-1.4,0.4-1.7
				C465.8,44.7,465.6,44.5,465.5,44.9z"/>
			<path class="st25" d="M465.2,42.6C465.1,42.6,465.1,42.6,465.2,42.6c-0.1,0.2,0,0.6,0,0.8s-0.1,0.4,0.2,0.4
				c0.2,0,0.3-0.1,0.4-0.2c0-0.1-0.1-0.2-0.2-0.5C465.4,42.9,465.3,42.7,465.2,42.6C465.2,42.5,465.2,42.6,465.2,42.6z"/>
			<path class="st25" d="M440.3,60c0,0-0.4,0.4-0.9,0.1c0,0.1,0,0.5,0.4,0.6C440.2,60.7,440.4,60.5,440.3,60z"/>
			<g>
				<path class="st35" d="M455.4,61.1c-0.1,0-0.1,0-0.2-0.1s-0.4-0.4-0.4-0.5s0-0.1,0.1-0.1s0.1,0,0.1,0.1s0.2,0.3,0.3,0.4
					c0.1,0,0.1,0,0.2-0.1c0-0.1,0.1-0.1,0.2-0.2c0.1,0,0.2-0.1,0.2-0.1h0.1l0,0l0,0l0.1-0.1c0.1,0,0.2,0,0.3,0c0.1,0,0.1,0,0.2,0
					s0.1-0.1,0.2-0.2c0.1-0.1,0.3-0.3,0.4-0.3l0,0c0-0.1,0.1-0.1,0.1-0.1c0.1,0,0.1,0.1,0.1,0.1V60c0,0,0,0,0,0.1v0.1h-0.1
					c-0.1,0-0.2,0.1-0.3,0.3c-0.1,0.1-0.2,0.2-0.3,0.3c-0.1,0-0.2,0-0.3,0c-0.1,0-0.1,0-0.1,0l0,0l-0.1,0.1c-0.1,0-0.1,0-0.2,0h-0.1
					l-0.1,0.1C455.6,61,455.5,61.1,455.4,61.1L455.4,61.1z"/>
			</g>
			<g>
				<path class="st35" d="M457.8,59.6c-0.1,0-0.2,0-0.3-0.1c-0.1-0.1-0.1-0.2,0-0.3c0-0.1,0.1-0.1,0.2-0.1s0.1,0.1,0.1,0.2l0,0h0.1
					c0,0,0.1,0,0.1-0.1s0-0.1-0.2-0.2c-0.1-0.1-0.2-0.1-0.2-0.2v-0.1h0.1c0.1,0,0.2,0.1,0.3,0.2c0.1,0.1,0.1,0.1,0.2,0.1
					s0.1,0,0.2,0s0.1-0.1,0.2-0.1c0.2,0,0.2,0,0.3-0.2v-0.1c0-0.2,0.1-0.3,0.4-0.3c0.1,0,0.1,0.1,0.1,0.1c0,0.1,0,0.1-0.1,0.1
					c-0.2,0-0.2,0-0.2,0.1v0.1c-0.1,0.3-0.2,0.4-0.5,0.4c-0.1,0-0.1,0-0.2,0.1c-0.1,0-0.2,0.1-0.3,0.1c0,0,0,0.1,0,0.2
					C458.1,59.5,458,59.6,457.8,59.6C457.9,59.6,457.9,59.6,457.8,59.6L457.8,59.6z"/>
			</g>
			<path class="st25" d="M459,54.1c0,0,0.1,0.4,0.6,0.1c-0.2,0.3-0.4,0.7-0.4,0.9C459.1,55.3,459,54.6,459,54.1z"/>
			<path class="st25" d="M459.8,54l0.7-1C460.5,53.1,460.2,54.2,459.8,54z"/>
			<path class="st14" d="M432.6,56.8c0.1,0.2,0.5,0.8,1.3,1.5c0.7,0.5,1.5,1,1.9,1.1c0.3,0.1,0.5-0.1,0.6-0.3s0-0.4-0.1-0.5
				s-0.6-0.3-0.6-0.3s0.4,0.2,0.5,0.3s0.1,0.3,0.1,0.4c-0.1,0.1-0.2,0.2-0.4,0.1c-0.3,0-1.2-0.5-1.8-0.9c-0.8-0.6-1.1-1.1-1.2-1.2
				C432.7,56.8,432.7,56.8,432.6,56.8C432.7,56.7,432.5,56.7,432.6,56.8z"/>
			<path class="st14" d="M435.6,59.3c0,0,0,0.5,0.8,0.4c0.4,0.3,2.6,1.8,4.2,2.6c0.1,0,0.3-0.1,0.3-0.1s-1.5-0.7-2.7-1.5
				c-1.1-0.8-1.7-1.2-1.7-1.2S435.8,59.8,435.6,59.3z"/>
			<path class="st36" d="M430.9,34.5c-0.2,0-0.4,0.7-0.4,0.9c-0.1,0.3-0.3,0.6-0.5,0.9c-0.2,0.3-0.3,0.7-0.4,1.1
				c-0.1,0.3-0.3,0.6-0.3,0.9c-0.2,0-0.3-0.3-0.4-0.4c-0.1,0.2,0.2,0.4,0.2,0.6c0,0.2,0,0.5-0.1,0.7c-0.1,0.4-0.2,0.8-0.2,1.2
				c-0.1,0.3,0,0.5-0.1,0.8c-0.1,0.5,0,1-0.2,1.5c0,0.2-0.2,0.5-0.2,0.7c0,0.1,0.1,0.4,0.2,0.5c0.1,0.2,0.2,0.3,0.4,0.3
				c0.2-0.2,0.2-0.4,0-0.6c-0.2-0.2-0.2-0.3-0.2-0.6c0-0.6,0.1-1.2,0.2-1.8s0.1-1.1,0.2-1.7c0-0.2,0.1-0.5,0.2-0.7
				c0.1-0.1,0.2-0.2,0.2-0.4c0-0.1,0-0.3,0-0.4c0.1-0.4,0.2-0.9,0.4-1.3c0.1-0.1,0.1-0.2,0.2-0.3c0-0.1,0-0.3,0.1-0.4
				c0.1-0.1,0.2-0.2,0.3-0.2c0.2-0.2,0.2-0.2,0.2-0.5C430.7,35.1,430.7,34.7,430.9,34.5"/>
			<path class="st14" d="M431.5,52.2c0,0-0.5,1.9,0.9,3.8c-0.1-0.5-0.5-0.9-0.7-1.7C431.4,53.2,431.6,52.2,431.5,52.2L431.5,52.2z"
				/>
			<path class="st14" d="M432.4,31.5c0,0-0.7,0.9-2.1,3.7c0.5-0.5,0.9-1.4,1-1.5s0.6-1,0.7-1.1s0.3-0.6,0.4-0.6
				C432.4,31.8,432.4,31.5,432.4,31.5z"/>
			<path class="st14" d="M430,35.9c0,0-0.5,1.2-0.9,2.1c0.1-0.1,0.3-0.2,0.3-0.4s0.2-0.5,0.3-0.7c0-0.2,0.3-0.7,0.3-0.7
				C430,36.2,430,35.9,430,35.9z"/>
			<path class="st14" d="M428.8,39.1c0,0-0.3,0.9-0.4,3.2c0.2-0.4,0.3-0.6,0.2-1.1c0-0.5,0-0.6,0.1-1s0.1-0.4,0.2-0.6
				C428.9,39.4,428.8,39.1,428.8,39.1z"/>
			<path class="st21" d="M462,31.1c0,0,0.2,0.6,0.8,0.6c0.4,0.4,0.6,1,0.7,1.2s-0.6,0.3-0.5,0.5s0.3,0.3,0.5,0.4
				c0.1,0.1,0.7,0.3,0.9,0.5c0.2,0.2,0.3,0.4,0.3,0.8c0,0.3,0,0.6,0,0.7c0,0.2-0.1,0.1-0.3,0c-0.2-0.1-0.1,0.1-0.5-0.4
				c-0.3-0.4-1.1-0.8-1.3-1.2c-0.2-0.4,0-0.7,0-1.1c0-0.3-0.2-0.5-0.4-0.6c-0.2-0.2-0.1-0.4-0.2-0.6C461.9,31.4,462,31.1,462,31.1z"
				/>
			<path class="st28" d="M459.4,31.2c0,0.1,0,0.2,0,0.3c-0.1,0.1-0.1,0.2-0.1,0.4s-0.2,0.4-0.2,0.6s0.2,0.4,0.1,0.6
				c0,0.1-0.2,0.1-0.2,0.2c-0.1,0-0.2,0.2-0.3,0.3c0,0.1,0,0.3,0,0.4c0,0.1,0.1,0.2,0.1,0.3s0.1,0.2,0.2,0.3s0.2,0.1,0.3,0.2
				c0.1,0.1,0,0.3-0.1,0.3c-0.1,0.1-0.2,0-0.3,0.1c-0.3,0.2-0.1,0.5-0.1,0.7c0.1,0.2,0.3,0.4,0.4,0.6c0.1,0.1,0.3,0.2,0.5,0.2
				c0.2,0.1,0.3,0.2,0.5,0.2c0.2,0.1,0.4,0.1,0.6,0.2c0.2,0,0.2,0.1,0.3,0.2c0.2,0.2,0.4,0.5,0.7,0.7c0.2,0.2,0.4,0.3,0.6,0.5
				c0.1,0.1,0.1,0.2,0.2,0.3c0.1,0.3,0.1,0.6,0.3,0.9l0.1,0.1c0.1,0.1,0.2,0.2,0.2,0.3c0.1,0.1,0.2,0.2,0.2,0.3
				c0.1,0.4,0.3,0.7,0.6,1c0.1,0.2,0.3,0.3,0.5,0.4c0.2,0.1,0.4,0.3,0.5,0.5c0.1,0.1,0.1,0.2,0.2,0.2c0.3-0.1,0.3-0.6,0.4-0.8
				c0.1-0.4,0.1-1.3-0.6-1c-0.2,0.1-0.4,0.3-0.7,0.1c-0.2-0.2,0-0.7,0.1-0.9s0.1-0.3,0.2-0.5c0.1-0.1,0.2-0.2,0.2-0.3
				c0-0.2-0.1-0.5-0.3-0.4c-0.2,0-0.4,0.4-0.6,0.3c-0.2-0.1-0.2-0.4-0.2-0.6c0-0.3,0.1-0.6,0.2-0.9c0-0.2,0.2-0.5,0-0.7
				c-0.1-0.1-0.1-0.1-0.2-0.2c-0.1,0-0.2,0-0.3-0.1c-0.2-0.1,0-0.4,0.2-0.5c0.3-0.1,0.4-0.3,0.6-0.5c0.1-0.1,0.1-0.2,0.1-0.3
				c0-0.2-0.1-0.5,0-0.7s0.3-0.4,0.2-0.6c-0.1-0.3-0.4-0.2-0.6-0.2c-0.5,0-0.8,0.5-1.1,0.9c-0.2,0.1-0.5,0.2-0.6,0
				c-0.2-0.2,0-0.4,0.2-0.6c0.1-0.1,0.2-0.2,0.3-0.3c0.4-0.2,0.3-0.9,0.1-1.2c0-0.1-0.1-0.1-0.1-0.1v-0.1c0-0.1,0-0.2-0.1-0.3
				c-0.1-0.2-0.4-0.4-0.5-0.1c-0.1,0.2-0.1,0.5-0.2,0.7c-0.1,0.1-0.4,0.5-0.5,0.1c-0.1-0.2,0.1-0.5,0.1-0.7c0-0.3-0.2-0.3-0.4-0.4
				c-0.1,0-0.2-0.1-0.3-0.1c-0.2-0.2-0.4-0.4-0.7-0.5C459.5,30.8,459.3,30.9,459.4,31.2z"/>
			<path class="st11" d="M463,35.9c0.1-0.4-0.3-0.4-0.4-0.2s-0.1,0.2-0.3,0.1c-0.2-0.1-0.2-0.4-0.3-0.9c-0.1-0.5-0.2-0.9-0.6-1
				s-0.9-0.8-1-1.1c0-0.3,0.1-1.1-0.2-1.3c-0.2-0.1-0.4-0.5-0.6-0.7c-0.1,0-0.2,0.2-0.2,0.4c0,0.1,0,0.2,0,0.3
				c-0.1,0.1-0.1,0.2-0.1,0.4c0,0.2-0.2,0.4-0.2,0.6c0,0.2,0.2,0.4,0.1,0.6c0,0.1-0.2,0.1-0.2,0.2c-0.1,0-0.2,0.2-0.3,0.3
				c0,0.1,0,0.3,0,0.4c0,0.1,0.1,0.2,0.1,0.3s0.1,0.2,0.2,0.3s0.2,0.1,0.3,0.2c0.1,0.1,0,0.3-0.1,0.3c-0.1,0.1-0.2,0-0.3,0.1
				c-0.3,0.2-0.1,0.5-0.1,0.7c0.1,0.2,0.3,0.4,0.4,0.6c0.1,0.1,0.3,0.2,0.5,0.2c0.2,0.1,0.3,0.2,0.5,0.2c0.2,0.1,0.4,0.1,0.6,0.2
				c0.2,0,0.2,0.1,0.3,0.2c0.2,0.2,0.4,0.5,0.7,0.7c0.2,0.2,0.4,0.3,0.6,0.5c0.1,0.1,0.1,0.2,0.2,0.3c0,0.1,0,0.1,0.1,0.2
				c0,0,0,0,0-0.1c0.1-0.5-0.1-0.5-0.1-0.7s-0.7-1.3-0.7-1.3s-0.1-0.1-0.3-0.2c-0.2-0.1-0.4-0.2-0.4-0.2s0.2-0.1,0.4,0
				c-0.2-0.4-0.6-1.3-0.7-1.4c-0.1-0.1-0.3-0.1-0.5-0.2c-0.2-0.1-0.4-0.4-0.2-0.3c0.1,0.1,0.7,0.2,0.7,0.2s-0.1-0.2-0.1-0.4
				s-0.2-0.9-0.2-0.9s0.2,0.3,0.3,0.6c0.1,0.3,0.2,0.6,0.2,0.6s0.1-0.4,0.3-0.5c0.2-0.1,0.3,0.1,0.1,0.2c-0.2,0.1-0.2,0.4-0.3,0.7
				c0.1,0.6,1,2.1,1,2.1s0.1-0.4,0.2-0.9s0.2-0.1,0.2,0.1c0,0.2-0.3,1-0.3,1s0.4,0.8,0.3,0.5c0-0.3,0.1-0.7,0.2-1
				C462.9,36.7,462.9,36.4,463,35.9z"/>
			<path class="st26" d="M463.1,53.6c0,0,0.2-0.5-0.3-1.1c0.3-0.4,0.4-0.5,0.5-0.6c0.2-0.1,0.4-0.2,0.4-0.9c0-0.6,0.4-0.8,0.6-0.2
				s0,1-0.2,1.4C464.1,52.7,463.5,53.3,463.1,53.6z"/>
			<path class="st37" d="M465.1,47c-0.3,0-0.7-0.1-1,0.1c-0.4,0.3-0.1,0.6,0.1,0.8c0.1,0.2,0.1,0.2,0.1,0.5c0,0.2-0.1,0.3-0.1,0.5
				c-0.1,0.2-0.1,0.3-0.2,0.4c-0.1,0.1-0.1,0.3-0.2,0.4c0,0.1-0.1,0.4,0,0.5c0.1,0.2,0.3,0.3,0.4,0.5c0.2,0.2,0.5,0.6,0.2,0.8
				c-0.2,0.1-0.3,0-0.4,0.2c-0.1,0.1-0.1,0.3-0.1,0.5s0.1,0.4,0,0.5s-0.3,0.1-0.4,0.3s0,0.3,0.1,0.5s0,0.4-0.1,0.6
				c-0.1,0.2-0.1,0.4-0.2,0.6c-0.1,0.3-0.2,0.5-0.4,0.8c-0.1,0.1-0.1,0.3-0.3,0.2c-0.1,0-0.2-0.2-0.3-0.2c-0.3-0.1-0.5,0.2-0.5,0.5
				c0.3,0.1,0.6,0.2,1,0c0.1-0.1,0.2-0.2,0.4-0.3c0.2,0,0.3,0,0.5,0s0.3-0.2,0.5-0.3c0.2-0.2,0.5-0.2,0.7-0.2
				c0.2-0.1,0.5-0.1,0.6-0.3c0.1-0.1,0.1-0.3,0-0.5c-0.1-0.1-0.3-0.2-0.2-0.4c0-0.2,0.2-0.3,0.4-0.4c0.2-0.1,0.3-0.3,0.5-0.4
				c0.3-0.2,0.5-0.2,0.6-0.5c0.1-0.2,0.2-0.3,0.3-0.5c0.2-0.2,0.3-0.4,0.2-0.7c-0.2-0.1-0.3,0-0.5,0c0-0.2,0.1-0.3,0.2-0.4
				c0.3-0.3,0.4-0.6,0.7-0.9c0.1-0.2,0.2-0.4,0.3-0.6c0.1-0.3,0.3-0.5,0.4-0.8c0.2-0.4,0.3-1.3-0.3-1.3c-0.2,0,0-1.7-0.7-1.8
				c-0.3,0-0.5,0.2-0.7,0.4s-0.3,0.5-0.5,0.7C465.8,47,465.3,47,465.1,47z"/>
			<path class="st38" d="M465.8,51.4c0,0,0.4-1.8-0.6-3c-1.1-1.2-0.8-1.1-0.5-1.2c0.3-0.1,0.3-0.4,1.1,0.1c0.8,0.5,0.6,0.7,0.6,0.8
				s0.1-0.3,0.3-0.3c0.2,0,0.3-0.3,0.1-0.6c-0.2-0.3-0.2-0.4,0-0.2s0.2,0.4,0.2,0.2c0.1-0.3,0.2-0.6,0.2-0.7c0-0.2,0.1,0.2,0,0.5
				s0,0.5,0.2,0.2c0.1-0.3,0.1-0.8,0.1-0.3s0,0.7,0.3,0.6c0.3,0,0.4,0,0.6,0.4c0.1,0.4-0.3,1.3-0.5,1.7s-0.5,0.8-0.7,1.1
				s-0.3,0.5-0.6,0.7C466.4,51.6,465.7,52.2,465.8,51.4z"/>
			<path class="st38" d="M464.5,49.9c0,0,1.1,0.5,0.7,2.7c-0.5,2.2,0.1,0.8,0.2,0.1C465.6,51.9,465.7,50.4,464.5,49.9z"/>
			<path class="st9" d="M466.6,51.5c0-0.2,0.1-0.3,0.2-0.4c0.1-0.1,0.1-0.1,0.2-0.2c-0.1-0.1,0-0.3,0.3-1c0,0-0.6,0.7-0.8,0.5
				c0-0.3,0.3-1.3,0.3-1.5c0.1-0.2-0.2,0.3-0.4,0.7c-0.2,0.3,0,0.4-0.2,0.9s-0.3,0.4-0.4,0.7c0,0.2,0,0.8-0.3,1
				c-0.2,0.2-0.4,0.5-0.6,0.6s-0.2,0.6-0.3,0.9c-0.1,0.3-0.3,0.7-0.4,0.9s-0.2,0.6-0.4,0.7c-0.2,0-0.4,0.1-0.6,0.3s-0.2,0.1-0.5,0.4
				c0.1-0.1,0.2-0.2,0.3-0.2c0.2,0,0.3,0,0.5,0s0.3-0.2,0.5-0.3c0.2-0.2,0.5-0.2,0.7-0.2c0.2-0.1,0.5-0.1,0.6-0.3
				c0.1-0.1,0.1-0.3,0-0.5c-0.1-0.1-0.3-0.2-0.2-0.4c0-0.2,0.2-0.3,0.4-0.4c0.2-0.1,0.3-0.3,0.5-0.4c0.3-0.2,0.5-0.2,0.6-0.5
				c0.1-0.2,0.2-0.3,0.3-0.5c0.2-0.2,0.3-0.4,0.2-0.7C467,51.4,466.8,51.5,466.6,51.5z"/>
			<path class="st39" d="M462.2,54.8c0.1,0,0.1-0.1,0.1-0.2c0.1-0.1,0-0.2,0-0.4c0-0.1-0.1-0.2-0.1-0.2c0-0.1,0-0.2,0.1-0.1
				c0,0,0,0.1,0.1,0.2l0.1,0.1c0.1,0.1,0.2,0.1,0.3,0.2c0.1,0.1-0.1,0.4-0.2,0.4c-0.1,0.1-0.2,0.4-0.4,0.6c0,0,0,0-0.1,0
				s-0.3,0.3-0.4,0.2s0-0.2,0-0.3s0-0.3,0.1-0.4c0.1-0.1,0.1-0.1,0.2-0.1H462.2z"/>
			<path class="st39" d="M461.8,55.5c0,0.1-0.1,0.2-0.1,0.3s0,0.2,0,0.2l-0.1,0.2c0,0-0.1,0.2-0.4,0.4s-0.2,0.3-0.4,0.5
				c-0.1,0.1-0.3,0.3-0.4,0.3s-0.2,0-0.2-0.1c0,0-0.1-0.1,0.1-0.3s0.4-0.3,0.6-0.5s0.4-0.4,0.5-0.5s0.2-0.2,0.2-0.3s0-0.3,0.1-0.4
				C461.7,55.3,461.8,55.4,461.8,55.5z"/>
			<path class="st14" d="M436.2,58.3c0,0,0.4,0.1,0.8,0.4C437.3,59,436.4,58.5,436.2,58.3z"/>
			<path class="st34" d="M434,54.9c0,0.1,0.1,0.3,0.2,0.4c0.1,0.2,0.3,0.5,0.4,0.7c0.1,0.1,0.1,0.3,0.2,0.4c0.1,0.2,0.1,0.3,0.2,0.5
				s0.2,0.4,0.3,0.6c0.1,0.2,0,0.4,0.3,0.5c0.1,0,0.3,0.2,0.4,0.1c0.2-0.1,0-0.3-0.1-0.4c-0.1-0.1-0.2-0.2-0.2-0.4
				c-0.1-0.2-0.2-0.4-0.3-0.6c-0.1-0.2-0.2-0.4-0.3-0.6c-0.1-0.2-0.2-0.4-0.3-0.6c-0.1-0.2-0.2-0.4-0.3-0.7
				c-0.1-0.1-0.2-0.3-0.2-0.4c0-0.1-0.1-0.3-0.2-0.3s-0.1,0.2-0.1,0.2C434,54.6,433.9,54.8,434,54.9z"/>
			<path class="st26" d="M433.2,30.4c0,0,0.8-1.2,1.9-2.3c0.4-0.3,0.3-0.3,0.2-0.1c-0.1,0.1-0.7,1-0.9,1.2c-0.1,0.2,0-0.3-0.3,0.1
				s-0.3,0.2-0.4,0.4C433.7,30,433.6,30.3,433.2,30.4z"/>
		</g>
		<g>
			<g>
				<rect x="6.6" y="18.6" class="st18" width="78.8" height="53.5"/>
				<path class="st18" d="M46,45.8"/>
			</g>
			<g>
				<rect x="8.1" y="20" class="st40" width="75.8" height="50.5"/>
				<path class="st40" d="M46,45.3"/>
			</g>
			<g>
				<polygon class="st41" points="44.3,31 45.9,29.9 47.5,31 46.9,29.2 48.6,28 46.6,28 45.9,26.1 45.3,28 43.3,28 45,29.2 				"/>
				<polygon class="st41" points="36.1,33.3 37.7,32.1 39.3,33.3 38.7,31.4 40.3,30.2 38.3,30.2 37.7,28.3 37.1,30.2 35.1,30.2 
					36.7,31.4 				"/>
				<polygon class="st41" points="31.6,34.4 31,36.3 29,36.3 30.6,37.4 30,39.3 31.6,38.2 33.2,39.3 32.6,37.4 34.2,36.3 32.2,36.3 
									"/>
				<polygon class="st41" points="29.4,46.4 31,47.6 30.4,45.7 32,44.5 30,44.5 29.4,42.6 28.8,44.5 26.8,44.5 28.4,45.7 27.8,47.6 
									"/>
				<polygon class="st41" points="32.2,52.8 31.6,50.9 31,52.8 29,52.8 30.6,54 30,55.9 31.6,54.7 33.2,55.9 32.6,54 34.2,52.8 				
					"/>
				<polygon class="st41" points="38.3,58.9 37.7,57 37.1,58.9 35.1,58.9 36.7,60.1 36.1,62 37.7,60.8 39.3,62 38.7,60.1 40.3,58.9 
									"/>
				<polygon class="st41" points="46.6,61.1 45.9,59.2 45.3,61.1 43.3,61.1 45,62.3 44.3,64.1 45.9,63 47.5,64.1 46.9,62.3 
					48.6,61.1 				"/>
				<polygon class="st41" points="54.8,58.9 54.2,57 53.6,58.9 51.6,58.9 53.2,60.1 52.6,62 54.2,60.8 55.8,62 55.2,60.1 56.8,58.9 
									"/>
				<polygon class="st41" points="60.9,52.8 60.3,50.9 59.7,52.8 57.7,52.8 59.3,54 58.7,55.9 60.3,54.7 61.9,55.9 61.3,54 
					62.9,52.8 				"/>
				<polygon class="st41" points="65.1,44.5 63.1,44.5 62.5,42.6 61.9,44.5 59.9,44.5 61.5,45.7 60.9,47.6 62.5,46.4 64.1,47.6 
					63.5,45.7 				"/>
				<polygon class="st41" points="58.7,39.3 60.3,38.1 61.9,39.3 61.3,37.4 62.9,36.3 60.9,36.3 60.3,34.3 59.7,36.3 57.7,36.3 
					59.3,37.4 				"/>
				<polygon class="st41" points="54.2,28.3 53.6,30.2 51.6,30.2 53.2,31.4 52.6,33.3 54.2,32.1 55.8,33.3 55.2,31.4 56.8,30.2 
					54.8,30.2 				"/>
			</g>
		</g>
		<g>
			<path d="M14.3,77.4v3.9c0,1.5,0.7,2.1,1.5,2.1c1,0,1.6-0.6,1.6-2.1v-3.9h0.9v3.8c0,2-1.1,2.8-2.5,2.8c-1.3,0-2.4-0.8-2.4-2.8
				v-3.9L14.3,77.4L14.3,77.4z"/>
			<path d="M19.7,80.6c0-0.5,0-0.9,0-1.3h0.8v0.8l0,0c0.2-0.4,0.8-0.9,1.6-0.9c0.7,0,1.7,0.4,1.7,2V84h-0.9v-2.7
				c0-0.8-0.3-1.4-1.1-1.4c-0.6,0-1,0.4-1.2,0.9c0,0.1-0.1,0.3-0.1,0.4V84h-0.9v-3.4H19.7z"/>
			<path d="M26.1,78c0,0.3-0.2,0.5-0.5,0.5s-0.5-0.2-0.5-0.5s0.2-0.5,0.5-0.5C25.9,77.4,26.1,77.7,26.1,78z M25.1,84v-4.7H26V84
				H25.1z"/>
			<path d="M31.7,81.6c0,1.7-1.2,2.5-2.4,2.5c-1.3,0-2.3-0.9-2.3-2.4c0-1.6,1-2.5,2.3-2.5C30.8,79.2,31.7,80.2,31.7,81.6z
				 M27.9,81.7c0,1,0.6,1.8,1.4,1.8c0.8,0,1.4-0.8,1.4-1.8c0-0.8-0.4-1.8-1.4-1.8C28.4,79.8,27.9,80.8,27.9,81.7z"/>
			<path d="M32.8,80.6c0-0.5,0-0.9,0-1.3h0.8v0.8l0,0c0.2-0.4,0.8-0.9,1.6-0.9c0.7,0,1.7,0.4,1.7,2V84H36v-2.7
				c0-0.8-0.3-1.4-1.1-1.4c-0.6,0-1,0.4-1.2,0.9c0,0.1-0.1,0.3-0.1,0.4V84h-0.9v-3.4H32.8z"/>
			<path d="M38.7,81.8c0,1.2,0.8,1.6,1.6,1.6c0.6,0,1-0.1,1.3-0.2l0.2,0.6c-0.3,0.1-0.8,0.3-1.6,0.3c-1.5,0-2.3-1-2.3-2.4
				s0.8-2.5,2.2-2.5c1.6,0,2,1.3,2,2.2c0,0.2,0,0.3,0,0.4H38.7z M41.2,81.2c0-0.5-0.2-1.4-1.2-1.4c-0.9,0-1.2,0.8-1.3,1.4H41.2z"/>
			<path d="M48.5,80.9H46v2.4h2.8V84h-3.7v-6.6h3.6v0.7H46v2.1h2.5V80.9z"/>
			<path d="M53.8,82.7c0,0.5,0,0.9,0,1.3H53v-0.8l0,0c-0.2,0.4-0.7,0.9-1.6,0.9c-0.7,0-1.6-0.4-1.6-2.1v-2.8h0.9v2.6
				c0,0.9,0.3,1.5,1.1,1.5c0.6,0,1-0.4,1.1-0.8c0-0.1,0.1-0.3,0.1-0.4v-2.9h0.9L53.8,82.7L53.8,82.7z"/>
			<path d="M55.2,80.8c0-0.6,0-1,0-1.5H56v0.9l0,0c0.2-0.6,0.7-1,1.3-1c0.1,0,0.2,0,0.2,0V80c-0.1,0-0.2,0-0.3,0
				c-0.6,0-1,0.4-1.2,1.1c0,0.1,0,0.3,0,0.4V84h-0.9L55.2,80.8L55.2,80.8z"/>
			<path d="M62.6,81.6c0,1.7-1.2,2.5-2.4,2.5c-1.3,0-2.3-0.9-2.3-2.4c0-1.6,1-2.5,2.3-2.5C61.7,79.2,62.6,80.2,62.6,81.6z
				 M58.8,81.7c0,1,0.6,1.8,1.4,1.8s1.4-0.8,1.4-1.8c0-0.8-0.4-1.8-1.4-1.8C59.3,79.8,58.8,80.8,58.8,81.7z"/>
			<path d="M63.7,80.8c0-0.6,0-1.1,0-1.5h0.8v0.8l0,0c0.3-0.6,0.9-0.9,1.7-0.9c1.2,0,2,1,2,2.4c0,1.7-1,2.5-2.2,2.5
				c-0.6,0-1.2-0.3-1.5-0.7l0,0V86h-0.8V80.8z M64.5,82.1c0,0.1,0,0.2,0,0.4c0.2,0.6,0.7,1,1.3,1c0.9,0,1.4-0.7,1.4-1.8
				c0-0.9-0.5-1.7-1.4-1.7c-0.6,0-1.1,0.4-1.3,1.1c0,0.1-0.1,0.2-0.1,0.3L64.5,82.1L64.5,82.1z"/>
			<path d="M69.7,81.8c0,1.2,0.8,1.6,1.6,1.6c0.6,0,1-0.1,1.3-0.2l0.2,0.6c-0.3,0.1-0.8,0.3-1.6,0.3c-1.5,0-2.3-1-2.3-2.4
				s0.8-2.5,2.2-2.5c1.6,0,2,1.3,2,2.2c0,0.2,0,0.3,0,0.4H69.7z M72.2,81.2c0-0.5-0.2-1.4-1.2-1.4c-0.9,0-1.2,0.8-1.3,1.4H72.2z"/>
			<path d="M77.4,82.9c0,0.4,0,0.8,0.1,1.1h-0.8l-0.1-0.6l0,0c-0.3,0.4-0.8,0.7-1.4,0.7c-1,0-1.4-0.7-1.4-1.4c0-1.1,1-1.8,2.8-1.8
				v-0.1c0-0.4-0.1-1.1-1.1-1.1c-0.4,0-0.9,0.1-1.2,0.4l-0.2-0.6c0.4-0.2,1-0.4,1.6-0.4c1.4,0,1.8,1,1.8,1.9v1.9H77.4z M76.6,81.6
				c-0.9,0-2,0.1-2,1.1c0,0.6,0.4,0.8,0.8,0.8c0.6,0,1-0.4,1.2-0.8c0-0.1,0-0.2,0-0.3V81.6z"/>
		</g>
		<g>
			<path d="M443.9,81.1c0-0.9-0.1-2-0.1-2.8l0,0c-0.2,0.8-0.5,1.6-0.8,2.5l-1.2,3.2h-0.6l-1.1-3.1c-0.3-0.9-0.6-1.8-0.8-2.6l0,0
				c0,0.8-0.1,1.9-0.1,2.9L439,84h-0.8l0.5-6.6h1.1l1.1,3.2c0.3,0.8,0.5,1.5,0.7,2.2l0,0c0.2-0.7,0.4-1.4,0.7-2.2l1.2-3.2h1.1
				L445,84h-1L443.9,81.1z"/>
			<path d="M447,77.4V84h-0.9v-6.6H447z"/>
			<path d="M449.4,77.4v3.9c0,1.5,0.7,2.1,1.5,2.1c1,0,1.6-0.6,1.6-2.1v-3.9h0.9v3.8c0,2-1.1,2.8-2.5,2.8c-1.3,0-2.4-0.8-2.4-2.8
				v-3.9L449.4,77.4L449.4,77.4z"/>
			<path d="M454.8,77.5c0.4-0.1,1.1-0.1,1.6-0.1c0.9,0,1.5,0.2,1.9,0.5c0.3,0.3,0.5,0.7,0.5,1.3c0,0.9-0.5,1.4-1.2,1.7l0,0
				c0.5,0.2,0.8,0.6,1,1.3c0.2,0.9,0.4,1.6,0.5,1.8h-0.9c-0.1-0.2-0.3-0.8-0.4-1.6c-0.2-0.9-0.6-1.2-1.3-1.3h-0.8V84h-0.8v-6.5
				H454.8z M455.7,80.5h0.9c0.9,0,1.5-0.5,1.5-1.2c0-0.8-0.6-1.2-1.5-1.2c-0.4,0-0.7,0-0.8,0.1v2.3H455.7z"/>
		</g>
		<g>
			<path class="st42" d="M46.6,100.5c0.5-0.1,1.1-0.2,1.8-0.2c1,0,1.8,0.2,2.4,0.8c0.5,0.5,0.8,1.3,0.8,2.3s-0.2,1.7-0.7,2.2
				c-0.6,0.8-1.6,1.2-2.6,1.2c-0.2,0-0.4,0-0.6,0v4.5h-1.2L46.6,100.5L46.6,100.5z M47.8,105.7c0.1,0,0.3,0,0.5,0
				c1.2,0,2.1-0.8,2.1-2.3c0-1.1-0.5-2.1-1.8-2.1c-0.3,0-0.5,0-0.7,0.1L47.8,105.7L47.8,105.7z"/>
			<path class="st42" d="M57.3,106h-2.7v4.1h3.1v1.1h-4.4v-10.9h4.2v1.1h-2.9v3.6h2.7C57.3,105,57.3,106,57.3,106z"/>
			<path class="st42" d="M59.4,100.5c0.5-0.1,1.2-0.2,1.8-0.2c1.1,0,1.9,0.2,2.5,0.8c0.5,0.6,0.8,1.3,0.8,2.1c0,1.4-0.6,2.3-1.7,2.8
				l0,0c0.8,0.2,1.2,1,1.5,2.4c0.2,1.5,0.5,2.4,0.6,2.8h-1.3c-0.2-0.3-0.4-1.4-0.6-2.7c-0.2-1.5-0.7-2.1-1.8-2.1h-0.5v4.8h-1.2
				v-10.7H59.4z M60.6,105.5h0.5c1.2,0,2-0.9,2-2.2c0-1.3-0.5-2-1.9-2.1c-0.2,0-0.5,0-0.6,0.1V105.5z"/>
			<path class="st42" d="M69.2,100.3h1.2v9.9h3.1v1.1h-4.3C69.2,111.3,69.2,100.3,69.2,100.3z"/>
			<path class="st42" d="M76.5,107.9l-0.7,3.3h-1.2l2.5-10.9h1.4l2.4,10.9h-1.2l-0.7-3.3H76.5z M78.7,106.9l-0.6-2.8
				c-0.2-0.8-0.3-1.7-0.4-2.5h-0.1c-0.1,0.8-0.3,1.8-0.4,2.5l-0.6,2.8H78.7z"/>
			<path class="st42" d="M85.1,109.8c0.4,0.2,1,0.4,1.6,0.4c1.1,0,1.8-0.7,1.8-1.8c0-1-0.6-1.6-1.4-2.3c-0.9-0.6-2.1-1.6-2.1-3
				c0-1.7,1.1-2.9,2.9-2.9c0.7,0,1.3,0.2,1.5,0.4l-0.3,1.1c-0.3-0.2-0.7-0.4-1.3-0.4c-1.1,0-1.6,0.8-1.6,1.6c0,1.1,0.6,1.5,1.6,2.3
				c1.3,0.9,1.9,1.9,1.9,3.1c0,1.9-1.3,3.1-3.1,3.1c-0.7,0-1.5-0.2-1.8-0.5L85.1,109.8z"/>
			<path class="st42" d="M96.3,111c-0.3,0.2-0.9,0.3-1.6,0.3c-2.1,0-3.7-1.7-3.7-5.4c0-4.3,2.1-5.7,3.9-5.7c0.7,0,1.1,0.1,1.4,0.3
				l-0.3,1.1c-0.3-0.1-0.5-0.2-1.1-0.2c-1.2,0-2.5,1.1-2.5,4.5s1.2,4.4,2.6,4.4c0.5,0,0.9-0.1,1.1-0.2L96.3,111z"/>
			<path class="st42" d="M99.1,100.3v7.3c0,2,0.6,2.6,1.5,2.6s1.5-0.7,1.5-2.6v-7.3h1.2v7.1c0,2.8-1.2,3.9-2.8,3.9
				c-1.6,0-2.7-1.1-2.7-3.8v-7.3h1.3V100.3z"/>
			<path class="st42" d="M111.3,105.7c0,4.1-1.4,5.7-3.2,5.7c-1.8,0-3-1.9-3-5.6c0-3.6,1.3-5.6,3.2-5.6S111.3,102.2,111.3,105.7z
				 M106.5,105.8c0,2.3,0.4,4.5,1.8,4.5s1.8-2.4,1.8-4.5c0-2-0.4-4.5-1.8-4.5S106.5,103.5,106.5,105.8z"/>
			<path class="st42" d="M113.2,100.3h1.2v9.9h3.1v1.1h-4.3V100.3z"/>
			<path class="st42" d="M120.4,107.9l-0.7,3.3h-1.2l2.5-10.9h1.4l2.4,10.9h-1.2l-0.7-3.3H120.4z M122.7,106.9l-0.6-2.8
				c-0.2-0.8-0.3-1.7-0.4-2.5h-0.1c-0.1,0.8-0.3,1.8-0.4,2.5l-0.6,2.8H122.7z"/>
			<path class="st42" d="M132.4,105.3v1h-3.5v-1H132.4z"/>
			<path class="st42" d="M141.8,111c-0.3,0.2-0.9,0.3-1.6,0.3c-2.1,0-3.7-1.7-3.7-5.4c0-4.3,2.1-5.7,3.9-5.7c0.7,0,1.1,0.1,1.4,0.3
				l-0.3,1.1c-0.3-0.1-0.5-0.2-1.1-0.2c-1.2,0-2.5,1.1-2.5,4.5s1.2,4.4,2.6,4.4c0.5,0,0.9-0.1,1.1-0.2L141.8,111z"/>
			<path class="st42" d="M148.8,105.7c0,4.1-1.4,5.7-3.2,5.7s-3-1.9-3-5.6c0-3.6,1.3-5.6,3.2-5.6S148.8,102.2,148.8,105.7z
				 M144,105.8c0,2.3,0.4,4.5,1.8,4.5c1.4,0,1.8-2.4,1.8-4.5c0-2-0.4-4.5-1.8-4.5S144,103.5,144,105.8z"/>
			<path class="st42" d="M157.3,106.5c-0.1-1.4-0.2-3-0.1-4.3h-0.1c-0.2,1.2-0.5,2.5-0.9,3.8l-1.3,5.1h-0.8l-1.3-4.9
				c-0.4-1.4-0.7-2.7-0.9-4l0,0c0,1.3-0.1,2.8-0.1,4.4l-0.2,4.6h-1.1l0.6-10.9h1.3l1.3,5c0.4,1.4,0.6,2.5,0.9,3.8l0,0
				c0.2-1.2,0.5-2.3,0.8-3.8l1.2-5h1.4l0.6,10.9h-1.2L157.3,106.5z"/>
			<path class="st42" d="M160.7,100.5c0.5-0.1,1.1-0.2,1.8-0.2c1,0,1.8,0.2,2.4,0.8c0.5,0.5,0.8,1.3,0.8,2.3s-0.2,1.7-0.7,2.2
				c-0.6,0.8-1.6,1.2-2.6,1.2c-0.2,0-0.4,0-0.6,0v4.5h-1.2v-10.8H160.7z M161.9,105.7c0.1,0,0.3,0,0.5,0c1.2,0,2.1-0.8,2.1-2.3
				c0-1.1-0.5-2.1-1.8-2.1c-0.3,0-0.5,0-0.7,0.1v4.3H161.9z"/>
			<path class="st42" d="M171.4,106h-2.7v4.1h3.1v1.1h-4.4v-10.9h4.2v1.1h-2.9v3.6h2.7L171.4,106L171.4,106z"/>
			<path class="st42" d="M174.8,101.4h-2v-1.1h5.2v1.1h-2v9.8h-1.2V101.4z"/>
			<path class="st42" d="M183.5,106h-2.7v4.1h3.1v1.1h-4.4v-10.9h4.2v1.1h-2.9v3.6h2.7L183.5,106L183.5,106z"/>
			<path class="st42" d="M185.6,111.2v-10.9h1.2l2,5.1c0.5,1.2,1,2.6,1.4,3.8l0,0c-0.1-1.7-0.1-3.1-0.1-5v-3.9h1.1v10.9H190
				l-2.1-5.2c-0.4-1.1-0.9-2.3-1.3-3.7l0,0c0.1,1.5,0.1,2.8,0.1,5.2v3.8h-1.1V111.2z"/>
			<path class="st42" d="M192.8,110.5l3.7-9l0,0h-3.4v-1.1h4.8v0.8l-3.7,9l0,0h3.7v1.1h-5.1V110.5z"/>
			<path class="st42" d="M203.6,106h-2.7v4.1h3.1v1.1h-4.4v-10.9h4.2v1.1h-2.9v3.6h2.7L203.6,106L203.6,106z"/>
			<path class="st42" d="M212.5,106h-2.7v4.1h3.1v1.1h-4.4v-10.9h4.2v1.1h-2.9v3.6h2.7L212.5,106L212.5,106z"/>
			<path class="st42" d="M218.7,107.9l-0.7,3.3h-1.2l2.5-10.9h1.4l2.4,10.9h-1.2l-0.7-3.3H218.7z M221,106.9l-0.6-2.8
				c-0.2-0.8-0.3-1.7-0.4-2.5h-0.1c-0.1,0.8-0.3,1.8-0.4,2.5l-0.6,2.8H221z"/>
			<path class="st42" d="M231.3,106.5c-0.1-1.4-0.2-3-0.1-4.3h-0.1c-0.2,1.2-0.5,2.5-0.9,3.8l-1.3,5.1h-0.8l-1.3-4.9
				c-0.4-1.4-0.7-2.7-0.9-4l0,0c0,1.3-0.1,2.8-0.1,4.4l-0.2,4.6h-1.1l0.6-10.9h1.3l1.3,5c0.4,1.4,0.6,2.5,0.9,3.8l0,0
				c0.2-1.2,0.5-2.3,0.8-3.8l1.2-5h1.4l0.6,10.9h-1.2L231.3,106.5z"/>
			<path class="st42" d="M234.7,100.5c0.5-0.1,1.1-0.2,1.8-0.2c1,0,1.8,0.2,2.4,0.8c0.5,0.4,0.7,1.1,0.7,1.9c0,1.1-0.6,2-1.7,2.4
				l0,0c1.3,0.3,2,1.4,2,2.8c0,0.9-0.3,1.6-0.8,2.2c-0.6,0.7-1.6,1-2.9,1c-0.8,0-1.3,0-1.6-0.1v-10.8H234.7z M235.9,104.9h0.6
				c1,0,1.9-0.8,1.9-1.9c0-1-0.5-1.8-1.8-1.8c-0.3,0-0.5,0-0.7,0.1V104.9z M235.9,110.2c0.1,0,0.4,0.1,0.6,0.1
				c1.3,0,2.1-0.8,2.1-2.2c0-1.5-1.1-2.2-2.2-2.2h-0.6L235.9,110.2L235.9,110.2z"/>
			<path class="st42" d="M243,100.3v10.9h-1.2v-10.9H243z"/>
			<path class="st42" d="M249.3,106h-2.7v4.1h3.1v1.1h-4.4v-10.9h4.2v1.1h-2.9v3.6h2.7L249.3,106L249.3,106z"/>
			<path class="st42" d="M251.3,111.2v-10.9h1.2l2,5.1c0.5,1.2,1,2.6,1.4,3.8l0,0c-0.1-1.7-0.1-3.1-0.1-5v-3.9h1.1v10.9h-1.2
				l-2.1-5.2c-0.4-1.1-0.9-2.3-1.3-3.7l0,0c0.1,1.5,0.1,2.8,0.1,5.2v3.8h-1.1V111.2z"/>
			<path class="st42" d="M260.5,101.4h-2v-1.1h5.2v1.1h-2v9.8h-1.2V101.4z"/>
			<path class="st42" d="M266.5,100.3v10.9h-1.2v-10.9H266.5z"/>
			<path class="st42" d="M271.6,100.5c0.5-0.1,1.1-0.2,1.8-0.2c1,0,1.8,0.2,2.4,0.8c0.5,0.5,0.8,1.3,0.8,2.3s-0.2,1.7-0.7,2.2
				c-0.6,0.8-1.6,1.2-2.6,1.2c-0.2,0-0.4,0-0.6,0v4.5h-1.2v-10.8H271.6z M272.9,105.7c0.1,0,0.3,0,0.5,0c1.2,0,2.1-0.8,2.1-2.3
				c0-1.1-0.5-2.1-1.8-2.1c-0.3,0-0.5,0-0.7,0.1v4.3H272.9z"/>
			<path class="st42" d="M282.4,106h-2.7v4.1h3.1v1.1h-4.4v-10.9h4.2v1.1h-2.9v3.6h2.7L282.4,106L282.4,106z"/>
			<path class="st42" d="M284.5,100.5c0.5-0.1,1.2-0.2,1.8-0.2c1.1,0,1.9,0.2,2.5,0.8c0.5,0.6,0.8,1.3,0.8,2.1
				c0,1.4-0.6,2.3-1.7,2.8l0,0c0.8,0.2,1.2,1,1.5,2.4c0.2,1.5,0.5,2.4,0.6,2.8h-1.3c-0.2-0.3-0.4-1.4-0.6-2.7
				c-0.2-1.5-0.7-2.1-1.8-2.1h-0.5v4.8h-1.2L284.5,100.5L284.5,100.5z M285.7,105.5h0.5c1.2,0,2-0.9,2-2.2c0-1.3-0.5-2-1.9-2.1
				c-0.2,0-0.5,0-0.6,0.1V105.5z"/>
			<path class="st42" d="M294.3,100.3h1.2v9.9h3.1v1.1h-4.3L294.3,100.3L294.3,100.3z"/>
			<path class="st42" d="M300.4,100.2c-0.3,1.3-1,3-1.5,3.7l-0.7,0.1c0.3-0.9,0.8-2.6,0.9-3.7L300.4,100.2z"/>
			<path class="st42" d="M302.4,107.9l-0.7,3.3h-1.2l2.5-10.9h1.4l2.4,10.9h-1.2l-0.7-3.3H302.4z M304.6,106.9l-0.6-2.8
				c-0.2-0.8-0.3-1.7-0.4-2.5h-0.1c-0.1,0.8-0.3,1.8-0.4,2.5l-0.6,2.8H304.6z"/>
			<path class="st42" d="M308.4,100.5c0.5-0.1,1.1-0.2,1.8-0.2c1,0,1.8,0.2,2.4,0.8c0.5,0.5,0.8,1.3,0.8,2.3s-0.2,1.7-0.7,2.2
				c-0.6,0.8-1.6,1.2-2.6,1.2c-0.2,0-0.4,0-0.6,0v4.5h-1.2v-10.8H308.4z M309.7,105.7c0.1,0,0.3,0,0.5,0c1.2,0,2.1-0.8,2.1-2.3
				c0-1.1-0.5-2.1-1.8-2.1c-0.3,0-0.5,0-0.7,0.1v4.3H309.7z"/>
			<path class="st42" d="M315.2,100.5c0.5-0.1,1.1-0.2,1.8-0.2c1,0,1.8,0.2,2.4,0.8c0.5,0.5,0.8,1.3,0.8,2.3s-0.2,1.7-0.7,2.2
				c-0.6,0.8-1.6,1.2-2.6,1.2c-0.2,0-0.4,0-0.6,0v4.5h-1.2v-10.8H315.2z M316.5,105.7c0.1,0,0.3,0,0.5,0c1.2,0,2.1-0.8,2.1-2.3
				c0-1.1-0.5-2.1-1.8-2.1c-0.3,0-0.5,0-0.7,0.1v4.3H316.5z"/>
			<path class="st42" d="M322,100.5c0.5-0.1,1.2-0.2,1.8-0.2c1.1,0,1.9,0.2,2.5,0.8c0.5,0.6,0.8,1.3,0.8,2.1c0,1.4-0.6,2.3-1.7,2.8
				l0,0c0.8,0.2,1.2,1,1.5,2.4c0.2,1.5,0.5,2.4,0.6,2.8h-1.3c-0.2-0.3-0.4-1.4-0.6-2.7c-0.2-1.5-0.7-2.1-1.8-2.1h-0.5v4.8H322V100.5
				z M323.2,105.5h0.5c1.2,0,2-0.9,2-2.2c0-1.3-0.5-2-1.9-2.1c-0.2,0-0.5,0-0.6,0.1V105.5z"/>
			<path class="st42" d="M332.9,106h-2.7v4.1h3.1v1.1h-4.4v-10.9h4.2v1.1h-2.9v3.6h2.7L332.9,106L332.9,106z"/>
			<path class="st42" d="M335,111.2v-10.9h1.2l2,5.1c0.5,1.2,1,2.6,1.4,3.8l0,0c-0.1-1.7-0.1-3.1-0.1-5v-3.9h1.1v10.9h-1.2l-2.1-5.2
				c-0.4-1.1-0.9-2.3-1.3-3.7l0,0c0.1,1.5,0.1,2.8,0.1,5.2v3.8H335V111.2z"/>
			<path class="st42" d="M342.8,100.5c0.5-0.1,1.1-0.2,1.7-0.2c1.1,0,2,0.3,2.6,0.8c0.8,0.7,1.5,2.1,1.5,4.4c0,2.5-0.6,3.9-1.3,4.6
				c-0.7,0.8-1.7,1.2-3,1.2c-0.5,0-1,0-1.4-0.1v-10.7H342.8z M344.1,110.2c0.2,0,0.4,0,0.5,0c1.4,0,2.7-1,2.7-4.7
				c0-2.8-0.8-4.3-2.6-4.3c-0.2,0-0.4,0-0.6,0.1V110.2z"/>
			<path class="st42" d="M351.6,100.3v10.9h-1.2v-10.9H351.6z"/>
			<path class="st42" d="M360.5,106.5c-0.1-1.4-0.2-3-0.1-4.3h-0.1c-0.2,1.2-0.5,2.5-0.9,3.8l-1.3,5.1h-0.8l-1.3-4.9
				c-0.4-1.4-0.7-2.7-0.9-4l0,0c0,1.3-0.1,2.8-0.1,4.4l-0.2,4.6h-1.1l0.6-10.9h1.3l1.3,5c0.4,1.4,0.6,2.5,0.9,3.8l0,0
				c0.2-1.2,0.5-2.3,0.8-3.8l1.2-5h1.4l0.6,10.9h-1.2L360.5,106.5z"/>
			<path class="st42" d="M367.9,106h-2.7v4.1h3.1v1.1h-4.4v-10.9h4.2v1.1h-2.9v3.6h2.7L367.9,106L367.9,106z"/>
			<path class="st42" d="M370,111.2v-10.9h1.2l2,5.1c0.5,1.2,1,2.6,1.4,3.8l0,0c-0.1-1.7-0.1-3.1-0.1-5v-3.9h1.1v10.9h-1.2l-2.1-5.2
				c-0.4-1.1-0.9-2.3-1.3-3.7l0,0c0.1,1.5,0.1,2.8,0.1,5.2v3.8H370V111.2z"/>
			<path class="st42" d="M379.1,101.4h-2v-1.1h5.2v1.1h-2v9.8h-1.2V101.4z"/>
			<path class="st42" d="M389.1,105.7c0,4.1-1.4,5.7-3.2,5.7c-1.8,0-3-1.9-3-5.6c0-3.6,1.3-5.6,3.2-5.6
				C388,100.2,389.1,102.2,389.1,105.7z M384.2,105.8c0,2.3,0.4,4.5,1.8,4.5s1.8-2.4,1.8-4.5c0-2-0.4-4.5-1.8-4.5
				S384.2,103.5,384.2,105.8z"/>
			<path class="st42" d="M396.5,99.3c-0.9,1.4-1.7,3.6-1.7,6.6c0,2.9,0.8,5.1,1.7,6.6h-1c-0.8-1.2-1.8-3.4-1.8-6.6s0.9-5.4,1.8-6.6
				H396.5z"/>
			<path class="st42" d="M398.2,100.3h4.2v1.1h-2.9v3.8h2.7v1.1h-2.7v5h-1.2v-11H398.2z"/>
			<path class="st42" d="M403.8,109.8c0.4,0.2,1,0.4,1.6,0.4c1.1,0,1.8-0.7,1.8-1.8c0-1-0.6-1.6-1.4-2.3c-0.9-0.6-2.1-1.6-2.1-3
				c0-1.7,1.1-2.9,2.9-2.9c0.7,0,1.3,0.2,1.5,0.4l-0.3,1.1c-0.3-0.2-0.7-0.4-1.3-0.4c-1.1,0-1.6,0.8-1.6,1.6c0,1.1,0.6,1.5,1.6,2.3
				c1.3,0.9,1.9,1.9,1.9,3.1c0,1.9-1.3,3.1-3.1,3.1c-0.7,0-1.5-0.2-1.8-0.5L403.8,109.8z"/>
			<path class="st42" d="M414.2,106h-2.7v4.1h3.1v1.1h-4.4v-10.9h4.2v1.1h-2.9v3.6h2.7L414.2,106L414.2,106z"/>
			<path class="st42" d="M419.4,105.3v1h-3.5v-1H419.4z"/>
			<path class="st42" d="M421.1,100.3h4.2v1.1h-2.9v3.8h2.7v1.1h-2.7v5h-1.2v-11H421.1z"/>
			<path class="st42" d="M431,106h-2.7v4.1h3.1v1.1H427v-10.9h4.2v1.1h-2.9v3.6h2.7L431,106L431,106z"/>
			<path class="st42" d="M432.9,109.8c0.4,0.2,1,0.4,1.6,0.4c1.1,0,1.8-0.7,1.8-1.8c0-1-0.6-1.6-1.4-2.3c-0.9-0.6-2.1-1.6-2.1-3
				c0-1.7,1.1-2.9,2.9-2.9c0.7,0,1.3,0.2,1.5,0.4l-0.3,1.1c-0.3-0.2-0.7-0.4-1.3-0.4c-1.1,0-1.6,0.8-1.6,1.6c0,1.1,0.6,1.5,1.6,2.3
				c1.3,0.9,1.9,1.9,1.9,3.1c0,1.9-1.3,3.1-3.1,3.1c-0.7,0-1.5-0.2-1.8-0.5L432.9,109.8z"/>
			<path class="st42" d="M439.3,100.5c0.5-0.1,1.2-0.2,1.8-0.2c1.1,0,1.9,0.2,2.5,0.8c0.5,0.6,0.8,1.3,0.8,2.1
				c0,1.4-0.6,2.3-1.7,2.8l0,0c0.8,0.2,1.2,1,1.5,2.4c0.2,1.5,0.5,2.4,0.6,2.8h-1.3c-0.2-0.3-0.4-1.4-0.6-2.7
				c-0.2-1.5-0.7-2.1-1.8-2.1h-0.5v4.8h-1.2L439.3,100.5L439.3,100.5z M440.5,105.5h0.5c1.2,0,2-0.9,2-2.2c0-1.3-0.5-2-1.9-2.1
				c-0.2,0-0.5,0-0.6,0.1V105.5z"/>
			<path class="st42" d="M445.6,112.5c0.9-1.5,1.7-3.7,1.7-6.6s-0.8-5.1-1.7-6.6h1c0.8,1.2,1.8,3.4,1.8,6.6s-0.9,5.3-1.8,6.6H445.6z
				"/>
		</g>
	</g>
</g>
</svg>
