<?xml version="1.0" encoding="utf-8"?>
<!-- Generator: Adobe Illustrator 18.0.0, SVG Export Plug-In . SVG Version: 6.00 Build 0)  -->
<!DOCTYPE svg PUBLIC "-//W3C//DTD SVG 1.1//EN" "http://www.w3.org/Graphics/SVG/1.1/DTD/svg11.dtd">
<svg version="1.1" id="Livello_1" xmlns="http://www.w3.org/2000/svg" xmlns:xlink="http://www.w3.org/1999/xlink" x="0px" y="0px"
	 width="192px" height="61.6px" viewBox="0 65.1 192 61.6" enable-background="new 0 65.1 192 61.6" xml:space="preserve">
<g>
	<g>
		<path fill="#FFFFFF" d="M71.4,76.1v-9.8h1.2v9.8H71.4L71.4,76.1z"/>
		<path fill="#FFFFFF" d="M77.5,76.3c-1.2,0-2.5-0.2-2.8-0.3v-1c0.8,0.1,1.7,0.2,2.8,0.2c1.3,0,2-0.5,2-1.6c0-0.8-0.3-1.2-1.3-1.7
			l-1.7-0.8c-1.3-0.6-2-1.3-2-2.7c0-1.6,1.1-2.4,3.2-2.4c1.2,0,2.4,0.2,2.7,0.3v1c-0.6-0.1-1.7-0.2-2.7-0.2c-1.3,0-2,0.3-2,1.3
			c0,0.8,0.3,1.2,1.3,1.6l1.7,0.7c1.4,0.6,2,1.4,2,2.7C80.8,75.4,79.7,76.3,77.5,76.3z"/>
		<path fill="#FFFFFF" d="M86.1,67.4v8.7h-1.2v-8.7h-3v-1.1h7.3v1.1H86.1z"/>
		<path fill="#FFFFFF" d="M90.7,76.1v-9.8h1.2v9.8H90.7L90.7,76.1z"/>
		<path fill="#FFFFFF" d="M97.6,67.4v8.7h-1.2v-8.7h-3v-1.1h7.3v1.1H97.6z"/>
		<path fill="#FFFFFF" d="M105.6,76.3c-2.4,0-3.6-1.4-3.6-4.2v-5.7h1.2V72c0,2.4,0.6,3.3,2.4,3.3s2.4-0.9,2.4-3.3v-5.6h1.2v5.7
			C109.2,74.9,107.9,76.3,105.6,76.3z"/>
		<path fill="#FFFFFF" d="M114.8,67.4v8.7h-1.2v-8.7h-3v-1.1h7.3v1.1H114.8z"/>
		<path fill="#FFFFFF" d="M122.2,76.3c-2.5,0-3.8-1.6-3.8-4.4v-1.4c0-2.8,1.3-4.3,3.8-4.3s3.8,1.6,3.8,4.3v1.4
			C126,74.7,124.6,76.3,122.2,76.3z M124.7,70.6c0-2.4-1.1-3.3-2.6-3.3s-2.6,0.9-2.6,3.3V72c0,2.4,1.1,3.3,2.6,3.3s2.6-0.9,2.6-3.3
			V70.6z"/>
		<path fill="#FFFFFF" d="M76.8,88.8l-3.4-7c-0.3-0.5-0.6-1.1-0.8-1.6h-0.1c0.1,0.7,0.1,1.4,0.1,2v6.6h-1.1V79h1.7l3.4,6.8
			c0.3,0.5,0.6,1.1,0.8,1.7h0.1c-0.1-0.8-0.1-1.5-0.1-2.1V79h1.2v9.8H76.8z"/>
		<path fill="#FFFFFF" d="M86.7,88.8l-1-3.2h-3.5l-1,3.2H80l3.2-9.8h1.7l3.2,9.8H86.7z M84.4,81.6c-0.2-0.5-0.3-1-0.4-1.6h-0.2
			c-0.1,0.6-0.2,1.1-0.4,1.6l-0.9,2.9h2.8L84.4,81.6z"/>
		<path fill="#FFFFFF" d="M89.1,88.8v-1.3l5.3-7.4h-5.1V79h6.4v1.3l-5.3,7.4h5.5v1.1H89.1z"/>
		<path fill="#FFFFFF" d="M97.7,88.8V79h1.2v9.8C98.9,88.8,97.7,88.8,97.7,88.8z"/>
		<path fill="#FFFFFF" d="M104.6,89c-2.5,0-3.8-1.6-3.8-4.4v-1.4c0-2.8,1.3-4.3,3.8-4.3s3.8,1.6,3.8,4.3v1.4
			C108.3,87.4,107,89,104.6,89z M107.1,83.2c0-2.4-1.1-3.3-2.6-3.3s-2.6,0.9-2.6,3.3v1.4c0,2.4,1.1,3.3,2.6,3.3s2.6-0.9,2.6-3.3
			V83.2z"/>
		<path fill="#FFFFFF" d="M115.5,88.8l-3.4-7c-0.3-0.5-0.6-1.1-0.8-1.6h-0.1c0.1,0.7,0.1,1.4,0.1,2v6.6h-1.1V79h1.7l3.4,6.8
			c0.3,0.5,0.6,1.1,0.8,1.7h0.1c-0.1-0.8-0.1-1.5-0.1-2.1V79h1.2v9.8C117.3,88.8,115.5,88.8,115.5,88.8z"/>
		<path fill="#FFFFFF" d="M125.5,88.8l-1-3.2H121l-1,3.2h-1.2L122,79h1.7l3.2,9.8H125.5z M123.2,81.6c-0.2-0.5-0.3-1-0.4-1.6h-0.2
			c-0.1,0.6-0.2,1.1-0.4,1.6l-0.9,2.9h2.8L123.2,81.6z"/>
		<path fill="#FFFFFF" d="M128.2,88.8V79h1.2v8.7h4.5v1.1L128.2,88.8L128.2,88.8z"/>
		<path fill="#FFFFFF" d="M135.3,88.8V79h5.8v1.1h-4.6v3.1h4.3v1.1h-4.3v3.5h4.6v1.1L135.3,88.8L135.3,88.8z"/>
		<path fill="#FFFFFF" d="M74.2,101.4h-2.8v-9.8h2.8c3,0,4.3,1.6,4.3,4.1v1.6C78.5,99.8,77.4,101.4,74.2,101.4z M77.3,95.7
			c0-2.2-1.1-3-3.2-3h-1.4v7.7h1.4c2.1,0,3.2-0.8,3.2-3V95.7z"/>
		<path fill="#FFFFFF" d="M83.7,101.6c-2.5,0-3.8-1.6-3.8-4.4v-1.4c0-2.8,1.3-4.3,3.8-4.3s3.8,1.6,3.8,4.3v1.4
			C87.5,100,86.2,101.6,83.7,101.6z M86.3,95.8c0-2.4-1.1-3.3-2.6-3.3s-2.6,0.9-2.6,3.3v1.4c0,2.4,1.1,3.3,2.6,3.3s2.6-0.9,2.6-3.3
			V95.8z"/>
		<path fill="#FFFFFF" d="M92.9,101.6c-2.2,0-3.9-0.8-3.9-4.2v-1.6c0-3.4,1.7-4.2,3.9-4.2c0.9,0,1.9,0.2,2.2,0.2v1
			c-0.6-0.1-1.5-0.2-2.2-0.2c-1.8,0-2.8,0.8-2.8,3.2v1.6c0,2.4,0.9,3.2,2.8,3.2c0.7,0,1.6-0.1,2.2-0.1v1
			C94.7,101.4,93.8,101.6,92.9,101.6z"/>
		<path fill="#FFFFFF" d="M100.2,101.6c-2.4,0-3.6-1.4-3.6-4.2v-5.7h1.2v5.6c0,2.4,0.6,3.3,2.4,3.3s2.4-0.9,2.4-3.3v-5.6h1.2v5.7
			C103.7,100.2,102.5,101.6,100.2,101.6z"/>
		<path fill="#FFFFFF" d="M113.1,101.4V95c0-0.7,0.1-1.1,0.1-1.8h-0.1c-0.2,0.6-0.5,1-0.7,1.5l-1.6,3.5h-1.4l-1.6-3.5
			c-0.2-0.5-0.5-1-0.7-1.5H107c0.1,0.7,0.1,1.1,0.1,1.8v6.3h-1.2v-9.8h1.6l2,4.4c0.2,0.4,0.4,0.9,0.6,1.3h0.1
			c0.2-0.4,0.4-0.9,0.6-1.3l2-4.4h1.6v9.8L113.1,101.4L113.1,101.4z"/>
		<path fill="#FFFFFF" d="M116.6,101.4v-9.8h5.8v1.1h-4.6v3.1h4.3v1.1h-4.3v3.5h4.6v1.1L116.6,101.4L116.6,101.4z"/>
		<path fill="#FFFFFF" d="M129.6,101.4l-3.4-7c-0.3-0.5-0.6-1.1-0.8-1.6h-0.1c0.1,0.7,0.1,1.4,0.1,2v6.6h-1.1v-9.9h1.7l3.4,6.8
			c0.3,0.5,0.6,1.1,0.8,1.7h0.1c-0.1-0.8-0.1-1.5-0.1-2.1v-6.4h1.2v9.8L129.6,101.4L129.6,101.4z"/>
		<path fill="#FFFFFF" d="M137,92.7v8.7h-1.2v-8.7h-3v-1.1h7.3v1.1H137z"/>
		<path fill="#FFFFFF" d="M146.4,101.4l-1-3.2h-3.5l-1,3.2h-1.2l3.2-9.8h1.7l3.2,9.8H146.4z M144.1,94.2c-0.2-0.5-0.3-1-0.4-1.6
			h-0.2c-0.1,0.6-0.2,1.1-0.4,1.6l-0.9,2.9h2.8L144.1,94.2z"/>
		<path fill="#FFFFFF" d="M148.7,101.4v-1.3l5.3-7.4h-5.1v-1.1h6.4V93l-5.3,7.4h5.5v1.1L148.7,101.4L148.7,101.4z"/>
		<path fill="#FFFFFF" d="M157.3,101.4v-9.8h1.2v9.8H157.3L157.3,101.4z"/>
		<path fill="#FFFFFF" d="M164.1,101.6c-2.5,0-3.8-1.6-3.8-4.4v-1.4c0-2.8,1.3-4.3,3.8-4.3s3.8,1.6,3.8,4.3v1.4
			C167.9,100,166.5,101.6,164.1,101.6z M166.7,95.8c0-2.4-1.1-3.3-2.6-3.3s-2.6,0.9-2.6,3.3v1.4c0,2.4,1.1,3.3,2.6,3.3
			s2.6-0.9,2.6-3.3V95.8z"/>
		<path fill="#FFFFFF" d="M175.1,101.4l-3.4-7c-0.3-0.5-0.6-1.1-0.8-1.6h-0.1c0.1,0.7,0.1,1.4,0.1,2v6.6h-1.1v-9.9h1.7l3.4,6.8
			c0.3,0.5,0.6,1.1,0.8,1.7h0.1c-0.1-0.8-0.1-1.5-0.1-2.1v-6.4h1.2v9.8L175.1,101.4L175.1,101.4z"/>
		<path fill="#FFFFFF" d="M179.1,101.4v-9.8h5.8v1.1h-4.6v3.1h4.3v1.1h-4.3v3.5h4.6v1.1L179.1,101.4L179.1,101.4z"/>
		<path fill="#FFFFFF" d="M71.4,114.1v-9.8h1.2v9.8C72.7,114.1,71.4,114.1,71.4,114.1z"/>
		<path fill="#FFFFFF" d="M80.2,114.1l-3.4-7c-0.3-0.5-0.6-1.1-0.8-1.6h0c0.1,0.7,0.1,1.4,0.1,2v6.6H75v-9.8h1.7l3.4,6.8
			c0.3,0.5,0.6,1.1,0.8,1.7H81c-0.1-0.8-0.1-1.5-0.1-2.1v-6.4H82v9.8H80.2z"/>
		<path fill="#FFFFFF" d="M89.5,114.1l-3.4-7c-0.3-0.5-0.6-1.1-0.8-1.6h-0.1c0.1,0.7,0.1,1.4,0.1,2v6.6h-1.1v-9.8H86l3.4,6.8
			c0.3,0.5,0.6,1.1,0.8,1.7h0.1c-0.1-0.8-0.1-1.5-0.1-2.1v-6.4h1.2v9.8C91.3,114.1,89.5,114.1,89.5,114.1z"/>
		<path fill="#FFFFFF" d="M96.9,114.3c-2.5,0-3.8-1.6-3.8-4.4v-1.4c0-2.8,1.3-4.3,3.8-4.3s3.8,1.6,3.8,4.3v1.4
			C100.7,112.7,99.3,114.3,96.9,114.3z M99.4,108.5c0-2.4-1.1-3.3-2.6-3.3s-2.6,0.9-2.6,3.3v1.4c0,2.4,1.1,3.3,2.6,3.3
			s2.6-0.9,2.6-3.3V108.5z"/>
		<path fill="#FFFFFF" d="M106.1,114.1h-1.6l-3.2-9.8h1.3l2.3,7.2c0.2,0.6,0.3,1.2,0.5,1.7h0.1c0.1-0.5,0.3-1.1,0.4-1.7l2.3-7.2h1.2
			L106.1,114.1z"/>
		<path fill="#FFFFFF" d="M115.6,114.1l-1-3.2h-3.5l-1,3.2h-1.2l3.2-9.8h1.7l3.2,9.8H115.6z M113.3,106.9c-0.2-0.5-0.3-1-0.4-1.6
			h-0.2c-0.1,0.6-0.2,1.1-0.4,1.6l-0.9,2.9h2.8L113.3,106.9z"/>
		<path fill="#FFFFFF" d="M117.9,114.1v-1.3l5.3-7.4h-5.1v-1.1h6.4v1.3l-5.3,7.4h5.4v1.1H117.9z"/>
		<path fill="#FFFFFF" d="M126.5,114.1v-9.8h1.2v9.8C127.8,114.1,126.5,114.1,126.5,114.1z"/>
		<path fill="#FFFFFF" d="M133.4,114.3c-2.5,0-3.8-1.6-3.8-4.4v-1.4c0-2.8,1.3-4.3,3.8-4.3s3.8,1.6,3.8,4.3v1.4
			C137.2,112.7,135.8,114.3,133.4,114.3z M135.9,108.5c0-2.4-1.1-3.3-2.6-3.3s-2.6,0.9-2.6,3.3v1.4c0,2.4,1.1,3.3,2.6,3.3
			s2.6-0.9,2.6-3.3V108.5z"/>
		<path fill="#FFFFFF" d="M144.3,114.1l-3.4-7c-0.3-0.5-0.6-1.1-0.8-1.6H140c0.1,0.7,0.1,1.4,0.1,2v6.6H139v-9.8h1.7l3.4,6.8
			c0.3,0.5,0.6,1.1,0.8,1.7h0.1c-0.1-0.8-0.1-1.5-0.1-2.1v-6.3h1.2v9.8C146.1,114.1,144.3,114.1,144.3,114.1z"/>
		<path fill="#FFFFFF" d="M148.3,114.1v-9.8h5.8v1.1h-4.6v3.1h4.3v1.1h-4.3v3.5h4.6v1.1C154.1,114.1,148.3,114.1,148.3,114.1z"/>
		<path fill="#FFFFFF" d="M77,126.7l-2.3-3.8c-0.3,0-0.6,0-0.9,0h-1.1v3.8h-1.2v-9.8h2.3c2.2,0,4.1,0.5,4.1,3c0,1.6-0.7,2.4-1.8,2.7
			l2.5,4.1L77,126.7L77,126.7z M73.7,118h-1.1v3.8h1.1c1.9,0,2.8-0.4,2.8-1.9S75.7,118,73.7,118z"/>
		<path fill="#FFFFFF" d="M79.9,126.7v-9.8h1.2v9.8H79.9z"/>
		<path fill="#FFFFFF" d="M86.9,126.9c-2.2,0-3.9-0.8-3.9-4.2V121c0-3.4,1.7-4.2,3.9-4.2c0.9,0,1.9,0.2,2.2,0.2v1
			c-0.6-0.1-1.5-0.2-2.2-0.2c-1.8,0-2.8,0.8-2.8,3.2v1.6c0,2.4,0.9,3.2,2.8,3.2c0.7,0,1.6-0.1,2.2-0.1v1
			C88.7,126.7,87.7,126.9,86.9,126.9z"/>
		<path fill="#FFFFFF" d="M90.6,126.7v-9.8h5.8v1.1h-4.6v3.1h4.3v1.1h-4.3v3.5h4.6v1.1L90.6,126.7L90.6,126.7z"/>
		<path fill="#FFFFFF" d="M103.8,126.7l-2.3-3.8c-0.3,0-0.6,0-0.9,0h-1.1v3.8h-1.2v-9.8h2.3c2.2,0,4.1,0.5,4.1,3
			c0,1.6-0.7,2.4-1.8,2.7l2.5,4.1L103.8,126.7L103.8,126.7z M100.6,118h-1.1v3.8h1.1c1.9,0,2.8-0.4,2.8-1.9S102.5,118,100.6,118z"/>
		<path fill="#FFFFFF" d="M110,126.9c-2.2,0-3.9-0.8-3.9-4.2V121c0-3.4,1.7-4.2,3.9-4.2c0.9,0,1.9,0.2,2.2,0.2v1
			c-0.6-0.1-1.5-0.2-2.2-0.2c-1.8,0-2.8,0.8-2.8,3.2v1.6c0,2.4,0.9,3.2,2.8,3.2c0.7,0,1.6-0.1,2.2-0.1v1
			C111.9,126.7,110.9,126.9,110,126.9z"/>
		<path fill="#FFFFFF" d="M119.8,126.7l-1-3.2h-3.5l-1,3.2H113l3.2-9.8h1.7l3.2,9.8H119.8z M117.5,119.5c-0.2-0.5-0.3-1-0.4-1.6
			h-0.2c-0.1,0.6-0.2,1.1-0.4,1.6l-0.9,2.9h2.8L117.5,119.5z"/>
		<path fill="#FFFFFF" d="M125.1,126.7v-9.8h5.8v1.1h-4.6v3.1h4.3v1.1h-4.3v3.5h4.6v1.1L125.1,126.7L125.1,126.7z"/>
		<path fill="#FFFFFF" d="M135.4,126.7h-2.8v-9.8h2.8c3,0,4.3,1.6,4.3,4.1v1.6C139.7,125.1,138.5,126.7,135.4,126.7z M138.5,121
			c0-2.2-1.1-3-3.2-3h-1.4v7.6h1.4c2.1,0,3.2-0.8,3.2-3V121z"/>
		<path fill="#FFFFFF" d="M145,126.9c-2.4,0-3.6-1.4-3.6-4.2V117h1.2v5.6c0,2.4,0.6,3.3,2.4,3.3c1.8,0,2.4-0.9,2.4-3.3V117h1.2v5.7
			C148.6,125.5,147.4,126.9,145,126.9z"/>
		<path fill="#FFFFFF" d="M154.3,126.9c-2.2,0-3.9-0.8-3.9-4.2V121c0-3.4,1.7-4.2,3.9-4.2c0.9,0,1.9,0.2,2.2,0.2v1
			c-0.6-0.1-1.5-0.2-2.2-0.2c-1.8,0-2.8,0.8-2.8,3.2v1.6c0,2.4,0.9,3.2,2.8,3.2c0.7,0,1.6-0.1,2.2-0.1v1
			C156.2,126.7,155.2,126.9,154.3,126.9z"/>
		<path fill="#FFFFFF" d="M164,126.7l-1-3.2h-3.5l-1,3.2h-1.2l3.2-9.8h1.7l3.2,9.8H164z M161.7,119.5c-0.2-0.5-0.3-1-0.4-1.6h-0.2
			c-0.1,0.6-0.2,1.1-0.4,1.6l-0.9,2.9h2.8L161.7,119.5z"/>
		<path fill="#FFFFFF" d="M169.1,118v8.7h-1.2V118h-3v-1.1h7.3v1.1H169.1z"/>
		<path fill="#FFFFFF" d="M173.7,126.7v-9.8h1.2v9.8H173.7z"/>
		<path fill="#FFFFFF" d="M181.2,126.7h-1.6l-3.2-9.8h1.3l2.3,7.2c0.2,0.6,0.3,1.2,0.5,1.7h0.1c0.1-0.5,0.3-1.1,0.4-1.7l2.3-7.2h1.2
			L181.2,126.7z"/>
		<path fill="#FFFFFF" d="M190.7,126.7l-1-3.2h-3.5l-1,3.2H184l3.2-9.8h1.7l3.2,9.8H190.7z M188.4,119.5c-0.2-0.5-0.3-1-0.4-1.6
			h-0.2c-0.1,0.6-0.2,1.1-0.4,1.6l-0.9,2.9h2.8L188.4,119.5z"/>
	</g>
	<g>
		<path fill="#FFFFFF" d="M0,94.1V65.5h7.2v28.7L0,94.1L0,94.1z"/>
		<path fill="#FFFFFF" d="M27.6,94.1l-8.3-14.9c-0.7-1.2-1.4-2.7-2-3.9h-0.1c0.1,1.5,0.1,3.1,0.1,4.7v14.2h-6.5V65.5h7.4l8.4,14.6
			c0.7,1.2,1.5,2.8,2,4h0.1c-0.1-1.3-0.1-3.2-0.1-4.9V65.5h6.5v28.7L27.6,94.1L27.6,94.1z"/>
		<path fill="#FFFFFF" d="M48.3,94.4c-3.7,0-6.2-0.1-9.9-0.4V65.5c3.6-0.3,5.9-0.4,9.9-0.4c9.7,0,13.9,4.1,13.9,13.1v3
			C62.2,90.4,58.2,94.4,48.3,94.4z M55.1,78.2c0-6.1-1.9-7.7-6.7-7.7h-3V89h2.9c4.8,0,6.7-1.8,6.7-7.9L55.1,78.2L55.1,78.2z"/>
		<path fill="#FFFFFF" d="M0,126.4V97.8h7.2v28.6H0z"/>
		<path fill="#FFFFFF" d="M29.7,126.4l-6.5-10.2h-4.8v10.2h-7.7V97.8c3.2-0.2,6.3-0.4,10.3-0.4c8,0,14.7,1.4,14.7,9.2v0.3
			c0,4.2-1.9,6.5-5.1,7.9l7.1,11.5L29.7,126.4L29.7,126.4z M28,106.8c0-3.2-2-4-6.7-4c-1,0-1.8,0-2.8,0.1v8.3h2.9
			c4.8,0,6.6-1,6.6-4.1V106.8z"/>
		<path fill="#FFFFFF" d="M38.5,126.4V97.8h22.3v5.3H45.7v6.2h11.5v5H45.7v7h15.1v5.2L38.5,126.4L38.5,126.4z"/>
	</g>
</g>
</svg>
