<?xml version="1.0" encoding="utf-8"?>
<!-- Generator: Adobe Illustrator 25.4.1, SVG Export Plug-In . SVG Version: 6.00 Build 0)  -->
<svg version="1.1" id="Livello_1" xmlns="http://www.w3.org/2000/svg" xmlns:xlink="http://www.w3.org/1999/xlink" x="0px" y="0px"
	 viewBox="0 0 192 61.6" style="enable-background:new 0 0 192 61.6;" xml:space="preserve">
<style type="text/css">
	.st0{fill:#394250;}
</style>
<g>
	<g>
		<path class="st0" d="M71.4,11V1.2h1.2V11H71.4L71.4,11z"/>
		<path class="st0" d="M77.5,11.2c-1.2,0-2.5-0.2-2.8-0.3v-1c0.8,0.1,1.7,0.2,2.8,0.2c1.3,0,2-0.5,2-1.6c0-0.8-0.3-1.2-1.3-1.7
			L76.5,6c-1.3-0.6-2-1.3-2-2.7c0-1.6,1.1-2.4,3.2-2.4c1.2,0,2.4,0.2,2.7,0.3v1C79.8,2.1,78.7,2,77.7,2c-1.3,0-2,0.3-2,1.3
			c0,0.8,0.3,1.2,1.3,1.6l1.7,0.7c1.4,0.6,2,1.4,2,2.7C80.8,10.3,79.7,11.2,77.5,11.2z"/>
		<path class="st0" d="M86.1,2.3V11h-1.2V2.3h-3V1.2h7.3v1.1C89.2,2.3,86.1,2.3,86.1,2.3z"/>
		<path class="st0" d="M90.7,11V1.2h1.2V11H90.7L90.7,11z"/>
		<path class="st0" d="M97.6,2.3V11h-1.2V2.3h-3V1.2h7.3v1.1C100.7,2.3,97.6,2.3,97.6,2.3z"/>
		<path class="st0" d="M105.6,11.2c-2.4,0-3.6-1.4-3.6-4.2V1.3h1.2v5.6c0,2.4,0.6,3.3,2.4,3.3s2.4-0.9,2.4-3.3V1.3h1.2V7
			C109.2,9.8,107.9,11.2,105.6,11.2z"/>
		<path class="st0" d="M114.8,2.3V11h-1.2V2.3h-3V1.2h7.3v1.1C117.9,2.3,114.8,2.3,114.8,2.3z"/>
		<path class="st0" d="M122.2,11.2c-2.5,0-3.8-1.6-3.8-4.4V5.4c0-2.8,1.3-4.3,3.8-4.3s3.8,1.6,3.8,4.3v1.4
			C126,9.6,124.6,11.2,122.2,11.2z M124.7,5.5c0-2.4-1.1-3.3-2.6-3.3s-2.6,0.9-2.6,3.3v1.4c0,2.4,1.1,3.3,2.6,3.3s2.6-0.9,2.6-3.3
			V5.5z"/>
		<path class="st0" d="M76.8,23.7l-3.4-7c-0.3-0.5-0.6-1.1-0.8-1.6h-0.1c0.1,0.7,0.1,1.4,0.1,2v6.6h-1.1v-9.8h1.7l3.4,6.8
			c0.3,0.5,0.6,1.1,0.8,1.7h0.1c-0.1-0.8-0.1-1.5-0.1-2.1v-6.4h1.2v9.8H76.8z"/>
		<path class="st0" d="M86.7,23.7l-1-3.2h-3.5l-1,3.2H80l3.2-9.8h1.7l3.2,9.8H86.7z M84.4,16.5c-0.2-0.5-0.3-1-0.4-1.6h-0.2
			c-0.1,0.6-0.2,1.1-0.4,1.6l-0.9,2.9h2.8L84.4,16.5z"/>
		<path class="st0" d="M89.1,23.7v-1.3l5.3-7.4h-5.1v-1.1h6.4v1.3l-5.3,7.4h5.5v1.1C95.9,23.7,89.1,23.7,89.1,23.7z"/>
		<path class="st0" d="M97.7,23.7v-9.8h1.2v9.8C98.9,23.7,97.7,23.7,97.7,23.7z"/>
		<path class="st0" d="M104.6,23.9c-2.5,0-3.8-1.6-3.8-4.4v-1.4c0-2.8,1.3-4.3,3.8-4.3s3.8,1.6,3.8,4.3v1.4
			C108.3,22.3,107,23.9,104.6,23.9z M107.1,18.1c0-2.4-1.1-3.3-2.6-3.3s-2.6,0.9-2.6,3.3v1.4c0,2.4,1.1,3.3,2.6,3.3s2.6-0.9,2.6-3.3
			V18.1z"/>
		<path class="st0" d="M115.5,23.7l-3.4-7c-0.3-0.5-0.6-1.1-0.8-1.6h-0.1c0.1,0.7,0.1,1.4,0.1,2v6.6h-1.1v-9.8h1.7l3.4,6.8
			c0.3,0.5,0.6,1.1,0.8,1.7h0.1c-0.1-0.8-0.1-1.5-0.1-2.1v-6.4h1.2v9.8C117.3,23.7,115.5,23.7,115.5,23.7z"/>
		<path class="st0" d="M125.5,23.7l-1-3.2H121l-1,3.2h-1.2l3.2-9.8h1.7l3.2,9.8H125.5z M123.2,16.5c-0.2-0.5-0.3-1-0.4-1.6h-0.2
			c-0.1,0.6-0.2,1.1-0.4,1.6l-0.9,2.9h2.8L123.2,16.5z"/>
		<path class="st0" d="M128.2,23.7v-9.8h1.2v8.7h4.5v1.1H128.2L128.2,23.7z"/>
		<path class="st0" d="M135.3,23.7v-9.8h5.8V15h-4.6v3.1h4.3v1.1h-4.3v3.5h4.6v1.1L135.3,23.7L135.3,23.7z"/>
		<path class="st0" d="M74.2,36.3h-2.8v-9.8h2.8c3,0,4.3,1.6,4.3,4.1v1.6C78.5,34.7,77.4,36.3,74.2,36.3z M77.3,30.6
			c0-2.2-1.1-3-3.2-3h-1.4v7.7h1.4c2.1,0,3.2-0.8,3.2-3V30.6z"/>
		<path class="st0" d="M83.7,36.5c-2.5,0-3.8-1.6-3.8-4.4v-1.4c0-2.8,1.3-4.3,3.8-4.3s3.8,1.6,3.8,4.3v1.4
			C87.5,34.9,86.2,36.5,83.7,36.5z M86.3,30.7c0-2.4-1.1-3.3-2.6-3.3s-2.6,0.9-2.6,3.3v1.4c0,2.4,1.1,3.3,2.6,3.3s2.6-0.9,2.6-3.3
			V30.7z"/>
		<path class="st0" d="M92.9,36.5c-2.2,0-3.9-0.8-3.9-4.2v-1.6c0-3.4,1.7-4.2,3.9-4.2c0.9,0,1.9,0.2,2.2,0.2v1
			c-0.6-0.1-1.5-0.2-2.2-0.2c-1.8,0-2.8,0.8-2.8,3.2v1.6c0,2.4,0.9,3.2,2.8,3.2c0.7,0,1.6-0.1,2.2-0.1v1
			C94.7,36.3,93.8,36.5,92.9,36.5z"/>
		<path class="st0" d="M100.2,36.5c-2.4,0-3.6-1.4-3.6-4.2v-5.7h1.2v5.6c0,2.4,0.6,3.3,2.4,3.3s2.4-0.9,2.4-3.3v-5.6h1.2v5.7
			C103.7,35.1,102.5,36.5,100.2,36.5z"/>
		<path class="st0" d="M113.1,36.3v-6.4c0-0.7,0.1-1.1,0.1-1.8h-0.1c-0.2,0.6-0.5,1-0.7,1.5l-1.6,3.5h-1.4l-1.6-3.5
			c-0.2-0.5-0.5-1-0.7-1.5H107c0.1,0.7,0.1,1.1,0.1,1.8v6.3h-1.2v-9.8h1.6l2,4.4c0.2,0.4,0.4,0.9,0.6,1.3h0.1
			c0.2-0.4,0.4-0.9,0.6-1.3l2-4.4h1.6v9.8L113.1,36.3L113.1,36.3z"/>
		<path class="st0" d="M116.6,36.3v-9.8h5.8v1.1h-4.6v3.1h4.3v1.1h-4.3v3.5h4.6v1.1L116.6,36.3L116.6,36.3z"/>
		<path class="st0" d="M129.6,36.3l-3.4-7c-0.3-0.5-0.6-1.1-0.8-1.6h-0.1c0.1,0.7,0.1,1.4,0.1,2v6.6h-1.1v-9.9h1.7l3.4,6.8
			c0.3,0.5,0.6,1.1,0.8,1.7h0.1c-0.1-0.8-0.1-1.5-0.1-2.1v-6.4h1.2v9.8L129.6,36.3L129.6,36.3z"/>
		<path class="st0" d="M137,27.6v8.7h-1.2v-8.7h-3v-1.1h7.3v1.1C140.1,27.6,137,27.6,137,27.6z"/>
		<path class="st0" d="M146.4,36.3l-1-3.2h-3.5l-1,3.2h-1.2l3.2-9.8h1.7l3.2,9.8H146.4z M144.1,29.1c-0.2-0.5-0.3-1-0.4-1.6h-0.2
			c-0.1,0.6-0.2,1.1-0.4,1.6l-0.9,2.9h2.8L144.1,29.1z"/>
		<path class="st0" d="M148.7,36.3V35l5.3-7.4h-5.1v-1.1h6.4v1.4l-5.3,7.4h5.5v1.1L148.7,36.3L148.7,36.3z"/>
		<path class="st0" d="M157.3,36.3v-9.8h1.2v9.8H157.3L157.3,36.3z"/>
		<path class="st0" d="M164.1,36.5c-2.5,0-3.8-1.6-3.8-4.4v-1.4c0-2.8,1.3-4.3,3.8-4.3s3.8,1.6,3.8,4.3v1.4
			C167.9,34.9,166.5,36.5,164.1,36.5z M166.7,30.7c0-2.4-1.1-3.3-2.6-3.3s-2.6,0.9-2.6,3.3v1.4c0,2.4,1.1,3.3,2.6,3.3
			s2.6-0.9,2.6-3.3V30.7z"/>
		<path class="st0" d="M175.1,36.3l-3.4-7c-0.3-0.5-0.6-1.1-0.8-1.6h-0.1c0.1,0.7,0.1,1.4,0.1,2v6.6h-1.1v-9.9h1.7l3.4,6.8
			c0.3,0.5,0.6,1.1,0.8,1.7h0.1c-0.1-0.8-0.1-1.5-0.1-2.1v-6.4h1.2v9.8L175.1,36.3L175.1,36.3z"/>
		<path class="st0" d="M179.1,36.3v-9.8h5.8v1.1h-4.6v3.1h4.3v1.1h-4.3v3.5h4.6v1.1L179.1,36.3L179.1,36.3z"/>
		<path class="st0" d="M71.4,49v-9.8h1.2V49C72.7,49,71.4,49,71.4,49z"/>
		<path class="st0" d="M80.2,49l-3.4-7c-0.3-0.5-0.6-1.1-0.8-1.6l0,0c0.1,0.7,0.1,1.4,0.1,2V49H75v-9.8h1.7l3.4,6.8
			c0.3,0.5,0.6,1.1,0.8,1.7H81c-0.1-0.8-0.1-1.5-0.1-2.1v-6.4H82V49H80.2z"/>
		<path class="st0" d="M89.5,49l-3.4-7c-0.3-0.5-0.6-1.1-0.8-1.6h-0.1c0.1,0.7,0.1,1.4,0.1,2V49h-1.1v-9.8H86l3.4,6.8
			c0.3,0.5,0.6,1.1,0.8,1.7h0.1c-0.1-0.8-0.1-1.5-0.1-2.1v-6.4h1.2V49C91.3,49,89.5,49,89.5,49z"/>
		<path class="st0" d="M96.9,49.2c-2.5,0-3.8-1.6-3.8-4.4v-1.4c0-2.8,1.3-4.3,3.8-4.3s3.8,1.6,3.8,4.3v1.4
			C100.7,47.6,99.3,49.2,96.9,49.2z M99.4,43.4c0-2.4-1.1-3.3-2.6-3.3s-2.6,0.9-2.6,3.3v1.4c0,2.4,1.1,3.3,2.6,3.3s2.6-0.9,2.6-3.3
			V43.4z"/>
		<path class="st0" d="M106.1,49h-1.6l-3.2-9.8h1.3l2.3,7.2c0.2,0.6,0.3,1.2,0.5,1.7h0.1c0.1-0.5,0.3-1.1,0.4-1.7l2.3-7.2h1.2
			L106.1,49z"/>
		<path class="st0" d="M115.6,49l-1-3.2h-3.5l-1,3.2h-1.2l3.2-9.8h1.7L117,49H115.6z M113.3,41.8c-0.2-0.5-0.3-1-0.4-1.6h-0.2
			c-0.1,0.6-0.2,1.1-0.4,1.6l-0.9,2.9h2.8L113.3,41.8z"/>
		<path class="st0" d="M117.9,49v-1.3l5.3-7.4h-5.1v-1.1h6.4v1.3l-5.3,7.4h5.4V49H117.9z"/>
		<path class="st0" d="M126.5,49v-9.8h1.2V49C127.8,49,126.5,49,126.5,49z"/>
		<path class="st0" d="M133.4,49.2c-2.5,0-3.8-1.6-3.8-4.4v-1.4c0-2.8,1.3-4.3,3.8-4.3s3.8,1.6,3.8,4.3v1.4
			C137.2,47.6,135.8,49.2,133.4,49.2z M135.9,43.4c0-2.4-1.1-3.3-2.6-3.3s-2.6,0.9-2.6,3.3v1.4c0,2.4,1.1,3.3,2.6,3.3
			s2.6-0.9,2.6-3.3V43.4z"/>
		<path class="st0" d="M144.3,49l-3.4-7c-0.3-0.5-0.6-1.1-0.8-1.6H140c0.1,0.7,0.1,1.4,0.1,2V49H139v-9.8h1.7l3.4,6.8
			c0.3,0.5,0.6,1.1,0.8,1.7h0.1c-0.1-0.8-0.1-1.5-0.1-2.1v-6.3h1.2v9.8C146.1,49,144.3,49,144.3,49z"/>
		<path class="st0" d="M148.3,49v-9.8h5.8v1.1h-4.6v3.1h4.3v1.1h-4.3V48h4.6v1.1C154.1,49,148.3,49,148.3,49z"/>
		<path class="st0" d="M77,61.6l-2.3-3.8c-0.3,0-0.6,0-0.9,0h-1.1v3.8h-1.2v-9.8h2.3c2.2,0,4.1,0.5,4.1,3c0,1.6-0.7,2.4-1.8,2.7
			l2.5,4.1H77L77,61.6z M73.7,52.9h-1.1v3.8h1.1c1.9,0,2.8-0.4,2.8-1.9S75.7,52.9,73.7,52.9z"/>
		<path class="st0" d="M79.9,61.6v-9.8h1.2v9.8H79.9z"/>
		<path class="st0" d="M86.9,61.8c-2.2,0-3.9-0.8-3.9-4.2v-1.7c0-3.4,1.7-4.2,3.9-4.2c0.9,0,1.9,0.2,2.2,0.2v1
			c-0.6-0.1-1.5-0.2-2.2-0.2c-1.8,0-2.8,0.8-2.8,3.2v1.6c0,2.4,0.9,3.2,2.8,3.2c0.7,0,1.6-0.1,2.2-0.1v1
			C88.7,61.6,87.7,61.8,86.9,61.8z"/>
		<path class="st0" d="M90.6,61.6v-9.8h5.8v1.1h-4.6V56h4.3v1.1h-4.3v3.5h4.6v1.1L90.6,61.6L90.6,61.6z"/>
		<path class="st0" d="M103.8,61.6l-2.3-3.8c-0.3,0-0.6,0-0.9,0h-1.1v3.8h-1.2v-9.8h2.3c2.2,0,4.1,0.5,4.1,3c0,1.6-0.7,2.4-1.8,2.7
			l2.5,4.1H103.8L103.8,61.6z M100.6,52.9h-1.1v3.8h1.1c1.9,0,2.8-0.4,2.8-1.9S102.5,52.9,100.6,52.9z"/>
		<path class="st0" d="M110,61.8c-2.2,0-3.9-0.8-3.9-4.2v-1.7c0-3.4,1.7-4.2,3.9-4.2c0.9,0,1.9,0.2,2.2,0.2v1
			c-0.6-0.1-1.5-0.2-2.2-0.2c-1.8,0-2.8,0.8-2.8,3.2v1.6c0,2.4,0.9,3.2,2.8,3.2c0.7,0,1.6-0.1,2.2-0.1v1
			C111.9,61.6,110.9,61.8,110,61.8z"/>
		<path class="st0" d="M119.8,61.6l-1-3.2h-3.5l-1,3.2H113l3.2-9.8h1.7l3.2,9.8H119.8z M117.5,54.4c-0.2-0.5-0.3-1-0.4-1.6h-0.2
			c-0.1,0.6-0.2,1.1-0.4,1.6l-0.9,2.9h2.8L117.5,54.4z"/>
		<path class="st0" d="M125.1,61.6v-9.8h5.8v1.1h-4.6V56h4.3v1.1h-4.3v3.5h4.6v1.1L125.1,61.6L125.1,61.6z"/>
		<path class="st0" d="M135.4,61.6h-2.8v-9.8h2.8c3,0,4.3,1.6,4.3,4.1v1.6C139.7,60,138.5,61.6,135.4,61.6z M138.5,55.9
			c0-2.2-1.1-3-3.2-3h-1.4v7.6h1.4c2.1,0,3.2-0.8,3.2-3V55.9z"/>
		<path class="st0" d="M145,61.8c-2.4,0-3.6-1.4-3.6-4.2v-5.7h1.2v5.6c0,2.4,0.6,3.3,2.4,3.3c1.8,0,2.4-0.9,2.4-3.3v-5.6h1.2v5.7
			C148.6,60.4,147.4,61.8,145,61.8z"/>
		<path class="st0" d="M154.3,61.8c-2.2,0-3.9-0.8-3.9-4.2v-1.7c0-3.4,1.7-4.2,3.9-4.2c0.9,0,1.9,0.2,2.2,0.2v1
			c-0.6-0.1-1.5-0.2-2.2-0.2c-1.8,0-2.8,0.8-2.8,3.2v1.6c0,2.4,0.9,3.2,2.8,3.2c0.7,0,1.6-0.1,2.2-0.1v1
			C156.2,61.6,155.2,61.8,154.3,61.8z"/>
		<path class="st0" d="M164,61.6l-1-3.2h-3.5l-1,3.2h-1.2l3.2-9.8h1.7l3.2,9.8H164z M161.7,54.4c-0.2-0.5-0.3-1-0.4-1.6h-0.2
			c-0.1,0.6-0.2,1.1-0.4,1.6l-0.9,2.9h2.8L161.7,54.4z"/>
		<path class="st0" d="M169.1,52.9v8.7h-1.2v-8.7h-3v-1.1h7.3v1.1H169.1z"/>
		<path class="st0" d="M173.7,61.6v-9.8h1.2v9.8H173.7z"/>
		<path class="st0" d="M181.2,61.6h-1.6l-3.2-9.8h1.3L180,59c0.2,0.6,0.3,1.2,0.5,1.7h0.1c0.1-0.5,0.3-1.1,0.4-1.7l2.3-7.2h1.2
			L181.2,61.6z"/>
		<path class="st0" d="M190.7,61.6l-1-3.2h-3.5l-1,3.2H184l3.2-9.8h1.7l3.2,9.8H190.7z M188.4,54.4c-0.2-0.5-0.3-1-0.4-1.6h-0.2
			c-0.1,0.6-0.2,1.1-0.4,1.6l-0.9,2.9h2.8L188.4,54.4z"/>
	</g>
	<g>
		<path class="st0" d="M0,29V0.4h7.2v28.7L0,29L0,29z"/>
		<path class="st0" d="M27.6,29l-8.3-14.9c-0.7-1.2-1.4-2.7-2-3.9h-0.1c0.1,1.5,0.1,3.1,0.1,4.7v14.2h-6.5V0.4h7.4L26.6,15
			c0.7,1.2,1.5,2.8,2,4h0.1c-0.1-1.3-0.1-3.2-0.1-4.9V0.4h6.5v28.7L27.6,29L27.6,29z"/>
		<path class="st0" d="M48.3,29.3c-3.7,0-6.2-0.1-9.9-0.4V0.4C42,0.1,44.3,0,48.3,0C58,0,62.2,4.1,62.2,13.1v3
			C62.2,25.3,58.2,29.3,48.3,29.3z M55.1,13.1c0-6.1-1.9-7.7-6.7-7.7h-3v18.5h2.9c4.8,0,6.7-1.8,6.7-7.9L55.1,13.1L55.1,13.1z"/>
		<path class="st0" d="M0,61.3V32.7h7.2v28.6C7.2,61.3,0,61.3,0,61.3z"/>
		<path class="st0" d="M29.7,61.3l-6.5-10.2h-4.8v10.2h-7.7V32.7c3.2-0.2,6.3-0.4,10.3-0.4c8,0,14.7,1.4,14.7,9.2v0.3
			c0,4.2-1.9,6.5-5.1,7.9l7.1,11.5L29.7,61.3L29.7,61.3z M28,41.7c0-3.2-2-4-6.7-4c-1,0-1.8,0-2.8,0.1v8.3h2.9c4.8,0,6.6-1,6.6-4.1
			V41.7z"/>
		<path class="st0" d="M38.5,61.3V32.7h22.3V38H45.7v6.2h11.5v5H45.7v7h15.1v5.2L38.5,61.3L38.5,61.3z"/>
	</g>
</g>
</svg>
