<svg id="Capa_1" enable-background="new 0 0 512 512" height="512" viewBox="0 0 512 512" width="512" xmlns="http://www.w3.org/2000/svg"><g><g><path d="m111.71 312.113h-56.113c-13.282 0-24.048-10.767-24.048-24.048 0-13.282 10.767-24.048 24.048-24.048h56.113z" fill="#ffd05b"/><path d="m472.435 7.5h-336.677c-4.427 0-8.016 3.589-8.016 8.016v456.919h344.694c4.427 0 8.016-3.589 8.016-8.016v-448.903c0-4.427-3.589-8.016-8.017-8.016z" fill="#ffe077"/><path d="m472.435 7.5h-16.623v408.823h-23.457v56.113h40.081c4.427 0 8.016-3.589 8.016-8.016v-448.904c0-4.427-3.59-8.016-8.017-8.016z" fill="#ffd05b"/><path d="m372.922 44.26c-3.007-3.007-7.085-4.696-11.337-4.696h-257.891c-4.427 0-8.016 3.589-8.016 8.016v448.903c0 4.427 3.589 8.016 8.016 8.016h336.677l3.32-389.47z" fill="#eceaec"/><path d="m352.194 312.113h-296.597c-13.282 0-24.048-10.767-24.048-24.048v144.29c0 13.282 10.767 24.048 24.048 24.048h296.597c8.854 0 16.032-7.178 16.032-16.032v-112.226c0-8.855-7.178-16.032-16.032-16.032z" fill="#ffe077"/><path d="m443.691 115.029-70.769-70.769c-3.007-3.007-7.085-4.695-11.337-4.695h-1.375v72.145c0 8.854 7.178 16.032 16.032 16.032h48.097v304.613c0 26.563-21.534 48.097-48.097 48.097h-232.468c-13.282 0-24.048 10.767-24.048 24.048h320.645c4.427 0 8.016-3.589 8.016-8.016v-370.117c0-4.253-1.689-8.331-4.696-11.338z" fill="#dbd8db"/><path d="m352.194 312.113h-8.016v88.177c0 17.709-14.356 32.065-32.065 32.065h-232.468c-13.282 0-24.048 10.767-24.048 24.048h296.597c8.854 0 16.032-7.178 16.032-16.032v-112.226c0-8.854-7.178-16.032-16.032-16.032z" fill="#ffd05b"/><path d="m272.032 272.032c-12.829 0-22.809-11.151-21.393-23.901l5.36-48.244h32.065l5.36 48.244c1.418 12.75-8.563 23.901-21.392 23.901z" fill="#ffe077"/></g><g><path d="m472.436 0h-336.678c-8.556 0-15.517 6.96-15.517 15.516v16.548h-16.548c-8.556 0-15.516 6.96-15.516 15.516v208.936h-32.58c-17.396 0-31.548 14.153-31.548 31.548v144.29c0 17.396 14.152 31.549 31.548 31.549h32.581v32.581c0 8.556 6.96 15.516 15.516 15.516h336.678c8.556 0 15.516-6.96 15.516-15.516v-16.548h16.548c8.556 0 15.516-6.96 15.516-15.516v-448.904c0-8.556-6.961-15.516-15.516-15.516zm-433.388 432.354v-117.439c4.814 2.979 10.483 4.698 16.548 4.698h296.597c4.705 0 8.532 3.828 8.532 8.533v112.226c0 4.705-3.828 8.532-8.532 8.532h-296.596c-9.125-.001-16.549-7.425-16.549-16.55zm433.904 32.065c0 .285-.231.516-.516.516h-16.548v-8.532c0-4.142-3.358-7.5-7.5-7.5s-7.5 3.358-7.5 7.5v40.081c0 .285-.231.516-.516.516h-336.679c-.285 0-.516-.231-.516-.516v-32.581h249.016c12.976 0 23.532-10.557 23.532-23.532v-112.225c0-12.976-10.557-23.533-23.532-23.533h-296.596c-9.125 0-16.548-7.423-16.548-16.548s7.423-16.548 16.548-16.548h32.581v8.532c0 4.142 3.358 7.5 7.5 7.5s7.5-3.358 7.5-7.5v-232.468c0-.285.231-.516.516-.516h160.839v17.064h-8.533c-4.142 0-7.5 3.358-7.5 7.5 0 4.143 3.358 7.5 7.5 7.5h8.532v17.064h-8.532c-4.142 0-7.5 3.358-7.5 7.5 0 4.143 3.358 7.5 7.5 7.5h8.532v17.064h-8.532c-4.142 0-7.5 3.358-7.5 7.5 0 4.143 3.358 7.5 7.5 7.5h8.532v17.064h-8.532c-4.142 0-7.5 3.358-7.5 7.5 0 4.143 3.358 7.5 7.5 7.5h8.532v17.065h-8.532c-3.822 0-7.032 2.874-7.454 6.672l-5.36 48.244c-.911 8.194 1.721 16.418 7.22 22.562 5.499 6.145 13.381 9.668 21.627 9.668s16.128-3.523 21.627-9.668c5.499-6.144 8.13-14.367 7.22-22.562l-5.36-48.244c-.422-3.798-3.632-6.672-7.454-6.672h-8.532v-17.065h8.532c4.142 0 7.5-3.357 7.5-7.5 0-4.142-3.358-7.5-7.5-7.5h-8.532v-17.064h8.532c4.142 0 7.5-3.357 7.5-7.5 0-4.142-3.358-7.5-7.5-7.5h-8.532v-17.064h8.532c4.142 0 7.5-3.357 7.5-7.5 0-4.142-3.358-7.5-7.5-7.5h-8.532v-17.064h8.532c4.142 0 7.5-3.357 7.5-7.5 0-4.142-3.358-7.5-7.5-7.5h-8.532v-17.065h73.177v64.646c0 12.976 10.557 23.532 23.532 23.532h64.646v289.097c0 4.142 3.358 7.5 7.5 7.5s7.5-3.358 7.5-7.5v-297.972c0-6.286-2.448-12.195-6.893-16.64l-70.77-70.77c-4.445-4.445-10.354-6.893-16.64-6.893h-226.344v-16.548c0-.285.232-.516.517-.516h336.677c.285 0 .516.231.516.516zm-191.6-257.032 4.619 41.572c.446 4.018-.792 7.89-3.488 10.902s-6.408 4.671-10.45 4.671-7.754-1.659-10.45-4.671-3.935-6.884-3.488-10.902l4.619-41.572zm86.357-157.732 70.587 70.587h-62.055c-4.705 0-8.532-3.828-8.532-8.532z"/><path d="m102.678 423.822c4.142 0 7.5-3.357 7.5-7.5 0-4.142-3.358-7.5-7.5-7.5h-.08c-4.142 0-7.46 3.358-7.46 7.5 0 4.143 3.398 7.5 7.54 7.5z"/><path d="m213.999 423.458c4.142 0 7.5-3.358 7.5-7.5v-63.764c0-4.142-3.358-7.5-7.5-7.5s-7.5 3.358-7.5 7.5v63.764c0 4.142 3.358 7.5 7.5 7.5z"/><path d="m139.146 423.822h42.538c4.142 0 7.5-3.357 7.5-7.5 0-4.142-3.358-7.5-7.5-7.5h-28.699l33.992-52.169c1.502-2.306 1.622-5.249.31-7.668-1.311-2.419-3.842-3.926-6.594-3.926h-40.239c-4.142 0-7.5 3.358-7.5 7.5s3.358 7.5 7.5 7.5h26.401l-33.992 52.169c-1.502 2.306-1.622 5.249-.31 7.668 1.31 2.419 3.841 3.926 6.593 3.926z"/><path d="m250.39 423.822c4.142 0 7.5-3.357 7.5-7.5v-20.237c3.693-.02 7.879-.038 10.255-.038 14.252 0 25.847-11.437 25.847-25.494s-11.595-25.494-25.847-25.494h-17.755c-4.142 0-7.5 3.358-7.5 7.5v63.764c0 4.142 3.358 7.499 7.5 7.499zm28.602-53.269c0 5.688-4.967 10.494-10.847 10.494-1.686 0-6.372.01-10.255.021v-21.01h10.255c5.879.001 10.847 4.806 10.847 10.495z"/></g></g></svg>